<svg width="220" height="80" viewBox="0 0 220 80" fill="none" xmlns="http://www.w3.org/2000/svg">
<path d="M105.632 40.2519C103.797 38.4954 101.416 37.5977 98.4484 37.5977C95.4808 37.5977 93.0994 38.5344 91.2252 40.369C89.3902 42.2036 88.4531 44.5066 88.4531 47.2781C88.4531 50.2056 89.3902 52.5477 91.2252 54.343C93.0994 56.0996 95.4808 56.9975 98.4092 56.9975C101.298 56.9975 103.68 56.0996 105.554 54.2651C106.491 53.3672 107.233 52.3134 107.702 51.1424C108.17 49.9714 108.404 48.6833 108.404 47.2781C108.443 44.3895 107.506 42.0475 105.632 40.2519ZM102.626 51.5718C101.611 52.6648 100.244 53.2113 98.4484 53.2113C96.8865 53.2113 95.4421 52.6648 94.3487 51.5328C93.2557 50.3617 92.7871 48.9565 92.7871 47.2781C92.7871 45.5606 93.3336 44.1163 94.3879 43.0234C95.4421 41.9304 96.8085 41.3839 98.4484 41.3839C100.01 41.3839 101.376 41.9304 102.47 43.0234C103.563 44.1163 104.071 45.5215 104.071 47.2781C104.11 49.0346 103.602 50.4398 102.626 51.5718Z" fill="white"/>
<path d="M120.98 46.0292H115.67V41.7355H121.799C122.112 41.7355 122.346 41.5013 122.346 41.189V38.4566C122.346 38.1443 122.112 37.9102 121.799 37.9102H112.117C111.805 37.9102 111.57 38.1443 111.57 38.4566V56.1391C111.57 56.4513 111.805 56.6856 112.117 56.6856H115.123C115.435 56.6856 115.67 56.4513 115.67 56.1391V49.8545H120.98C121.292 49.8545 121.526 49.6203 121.526 49.3081V46.5757C121.487 46.3025 121.253 46.0292 120.98 46.0292Z" fill="white"/>
<path d="M129.919 41.7355V56.1778C129.919 56.4905 130.153 56.7243 130.466 56.7243H133.472C133.784 56.7243 134.019 56.4905 134.019 56.1778V41.7355H139.211C139.524 41.7355 139.758 41.5013 139.758 41.189V38.4566C139.758 38.1443 139.524 37.9102 139.211 37.9102H124.765C124.453 37.9102 124.219 38.1443 124.219 38.4566V41.189C124.219 41.5013 124.453 41.7355 124.765 41.7355H129.919Z" fill="white"/>
<path d="M146.94 48.9565C147.877 49.3859 148.58 49.8543 149.088 50.2837C149.556 50.7131 149.829 51.1424 149.829 51.6108C149.829 52.1183 149.634 52.5086 149.283 52.8209C148.931 53.0942 148.463 53.2501 147.877 53.2501C147.096 53.2501 146.355 53.055 145.574 52.7038C145.027 52.4305 144.559 52.1183 144.168 51.7279C143.934 51.4937 143.583 51.5328 143.387 51.7669L141.709 53.7965C141.552 53.9921 141.552 54.2259 141.669 54.4214C142.138 55.163 142.88 55.7482 143.895 56.2168C145.105 56.7633 146.394 57.0367 147.76 57.0367C149.634 57.0367 151.118 56.529 152.328 55.4752C153.343 54.6944 154.007 53.5627 154.124 52.3134C154.241 51.0253 154.046 49.9714 153.578 49.0736C153.187 48.332 152.719 47.7855 152.172 47.3952C151.586 46.9658 150.962 46.6145 150.298 46.2241C149.595 45.8728 148.971 45.5606 148.385 45.3264C147.799 45.0531 147.292 44.7409 146.862 44.3505C146.472 43.9602 146.238 43.4918 146.238 42.9453C146.238 42.4769 146.433 42.0865 146.784 41.8133C147.174 41.5401 147.682 41.423 148.268 41.423C148.893 41.423 149.4 41.501 149.829 41.6962C150.103 41.8133 150.376 42.0085 150.688 42.2427C150.923 42.4379 151.274 42.3988 151.469 42.1256L153.031 39.9397C153.187 39.7055 153.148 39.3932 152.953 39.2371C151.703 38.1441 150.025 37.5977 147.877 37.5977C146.042 37.5977 144.598 38.1051 143.504 39.159C142.411 40.2129 141.865 41.462 141.865 42.9453C141.865 43.6089 141.943 44.2334 142.138 44.8189C142.372 45.4045 142.646 45.9119 142.919 46.2632C143.231 46.6535 143.622 47.0439 144.129 47.3952C144.637 47.7465 145.066 48.0587 145.457 48.2539C145.886 48.5272 146.394 48.7223 146.94 48.9565Z" fill="white"/>
<path d="M165.292 56.3341L169.197 44.1556L173.14 56.3341C173.218 56.5684 173.413 56.6855 173.648 56.6855H176.81C177.044 56.6855 177.24 56.5292 177.318 56.2953L182.315 38.6128C182.393 38.2615 182.159 37.9492 181.807 37.9492H178.997C178.762 37.9492 178.528 38.1053 178.489 38.3396L175.248 50.323L171.578 38.3396C171.5 38.1053 171.305 37.9492 171.071 37.9492H167.674C167.44 37.9492 167.245 38.1053 167.166 38.3396L163.614 50.362L160.412 38.3786C160.334 38.1444 160.139 37.9882 159.904 37.9882H156.391C156.039 37.9882 155.766 38.3396 155.883 38.6518L161.115 56.3341C161.193 56.5684 161.388 56.7247 161.622 56.7247H164.785C164.98 56.7247 165.214 56.5684 165.292 56.3341Z" fill="white"/>
<path d="M185.906 56.7243H188.913C189.225 56.7243 189.459 56.4905 189.459 56.1778V38.4566C189.459 38.1443 189.225 37.9102 188.913 37.9102H185.906C185.594 37.9102 185.359 38.1443 185.359 38.4566V56.1391C185.359 56.4513 185.594 56.7243 185.906 56.7243Z" fill="white"/>
<path d="M198.362 48.9566C199.299 49.386 200.002 49.8543 200.509 50.2837C200.978 50.7131 201.251 51.1425 201.251 51.6109C201.251 52.1183 201.056 52.5087 200.704 52.8209C200.353 53.0941 199.885 53.2504 199.299 53.2504C198.518 53.2504 197.776 53.0549 196.996 52.7038C196.449 52.4306 195.98 52.1183 195.59 51.728C195.356 51.4937 195.004 51.5328 194.809 51.767L193.13 53.7969C192.974 53.992 192.974 54.2263 193.091 54.4214C193.559 55.1629 194.301 55.7486 195.316 56.2167C196.527 56.7632 197.816 57.0367 199.182 57.0367C201.056 57.0367 202.54 56.5289 203.75 55.4752L203.945 55.3193C204.96 54.3434 205.585 53.0161 205.585 51.6499C205.585 50.6741 205.39 49.8153 204.999 49.1127C204.609 48.371 204.14 47.8246 203.594 47.4342C203.008 47.0049 202.383 46.6535 201.72 46.2632C201.017 45.9119 200.392 45.5996 199.806 45.3654C199.221 45.0922 198.713 44.7799 198.284 44.3896C197.893 43.9993 197.659 43.5308 197.659 42.9844C197.659 42.5159 197.854 42.1256 198.206 41.8524C198.596 41.5792 199.104 41.462 199.689 41.462C200.314 41.462 200.821 41.5401 201.251 41.7353C201.524 41.8524 201.798 42.0476 202.11 42.2818C202.344 42.4769 202.696 42.4379 202.891 42.1647L204.453 39.9787C204.609 39.7446 204.57 39.4323 204.375 39.2761C203.125 38.1832 201.446 37.6367 199.299 37.6367C197.464 37.6367 196.019 38.1442 194.926 39.1981C193.833 40.252 193.286 41.5011 193.286 42.9844C193.286 43.6479 193.364 44.2725 193.559 44.858C193.794 45.4435 194.067 45.9509 194.341 46.3023C194.653 46.6926 195.043 47.0829 195.551 47.4342C196.058 47.7855 196.488 48.0978 196.878 48.293C197.308 48.5272 197.816 48.7224 198.362 48.9566Z" fill="white"/>
<path d="M212.768 48.9566C213.705 49.386 214.408 49.8543 214.915 50.2837C215.384 50.7131 215.657 51.1425 215.657 51.6109C215.657 52.1183 215.462 52.5087 215.111 52.8209C214.76 53.0941 214.291 53.2504 213.705 53.2504C212.925 53.2504 212.183 53.0549 211.402 52.7038C210.855 52.4306 210.387 52.1183 209.996 51.728C209.762 51.4937 209.411 51.5328 209.215 51.767L207.536 53.7969C207.38 53.992 207.38 54.2263 207.498 54.4214C207.966 55.1629 208.708 55.7486 209.723 56.2167C210.933 56.7632 212.222 57.0367 213.588 57.0367C215.462 57.0367 216.946 56.5289 218.156 55.4752L218.352 55.3193C219.367 54.3434 219.991 53.0161 219.991 51.6499C219.991 50.6741 219.796 49.8153 219.405 49.1127C219.015 48.371 218.547 47.8246 218 47.4342C217.415 47.0049 216.79 46.6535 216.126 46.2632C215.423 45.9119 214.798 45.5996 214.213 45.3654C213.627 45.0922 213.12 44.7799 212.69 44.3896C212.3 43.9993 212.065 43.5308 212.065 42.9844C212.065 42.5159 212.261 42.1256 212.612 41.8524C213.003 41.5792 213.51 41.462 214.096 41.462C214.72 41.462 215.228 41.5401 215.657 41.7353C215.931 41.8524 216.204 42.0476 216.516 42.2818C216.75 42.4769 217.102 42.4379 217.297 42.1647L218.859 39.9787C219.015 39.7446 218.976 39.4323 218.781 39.2761C217.532 38.1832 215.853 37.6367 213.705 37.6367C211.87 37.6367 210.426 38.1442 209.333 39.1981C208.239 40.252 207.693 41.5011 207.693 42.9844C207.693 43.6479 207.771 44.2725 207.966 44.858C208.2 45.4435 208.473 45.9509 208.747 46.3023C209.059 46.6926 209.45 47.0829 209.957 47.4342C210.465 47.7855 210.894 48.0978 211.285 48.293C211.753 48.5272 212.222 48.7224 212.768 48.9566Z" fill="white"/>
<path d="M78.8112 48.9565C79.7483 49.3859 80.4511 49.8543 80.9584 50.2837C81.427 50.713 81.7004 51.1424 81.7004 51.6108C81.7004 52.1183 81.5054 52.5086 81.154 52.8209C80.8025 53.0941 80.334 53.2504 79.7483 53.2504C78.9676 53.2504 78.2256 53.0549 77.4448 52.7038C76.8979 52.4305 76.4298 52.1183 76.0392 51.7279C75.8049 51.4937 75.4535 51.5328 75.2584 51.7669L73.5793 53.7969C73.4234 53.992 73.4234 54.2263 73.5406 54.4214C74.0087 55.1629 74.7507 55.7486 75.7657 56.2167C76.9762 56.7632 78.2647 57.0367 79.6312 57.0367C81.5054 57.0367 82.9889 56.5289 84.199 55.4752L84.3554 55.3188C85.3704 54.343 85.9953 53.016 86.034 51.6108C86.034 50.6349 85.839 49.7762 85.4484 49.0346C85.0582 48.2929 84.5896 47.7464 84.0432 47.3561C83.4575 46.9267 82.8326 46.5754 82.169 46.1851C81.4662 45.8338 80.8413 45.5215 80.2556 45.2873C79.6699 45.0141 79.1626 44.7018 78.7333 44.3115C78.3427 43.9211 78.1084 43.4527 78.1084 42.9062C78.1084 42.4378 78.3035 42.0475 78.6549 41.7743C79.0455 41.501 79.5528 41.3839 80.1385 41.3839C80.7634 41.3839 81.2711 41.462 81.7004 41.6571C81.9735 41.7743 82.2469 41.9694 82.5591 42.2036C82.7934 42.3988 83.1448 42.3598 83.3403 42.0865L84.9019 39.9006C85.0582 39.6664 85.019 39.3541 84.8239 39.198C83.5746 38.1051 81.8955 37.5586 79.7483 37.5586C77.9133 37.5586 76.4685 38.066 75.3755 39.1199C74.2821 40.1739 73.7356 41.423 73.7356 42.9062C73.7356 43.5698 73.8136 44.1944 74.0087 44.7799C74.2429 45.3654 74.5164 45.8728 74.7899 46.2241C75.1021 46.6145 75.4927 47.0048 76 47.3561C76.5077 47.7074 76.9371 48.0197 77.3277 48.2148C77.7962 48.5272 78.2647 48.7223 78.8112 48.9565Z" fill="white"/>
<path d="M76.4854 33.9545V31.071C76.7883 31.1073 77.2487 31.1073 77.4304 31.1073C79.3932 31.1073 80.5684 29.7746 80.5684 28.2601C80.5684 26.7941 79.7203 25.4493 77.1396 25.4493C76.4854 25.4493 75.0194 25.4735 74.5469 25.4735V33.9545H76.4854ZM77.3335 27.2666C78.0241 27.2666 78.5087 27.4968 78.5087 28.248C78.5087 29.0719 77.8787 29.29 77.3698 29.29C77.0912 29.29 76.7641 29.2657 76.4854 29.2294V27.2909C76.8852 27.2788 77.0791 27.2666 77.3335 27.2666Z" fill="white"/>
<path d="M81.274 29.714C81.274 32.4158 83.2004 34.0999 85.781 34.0999C88.3617 34.0999 90.2881 32.2826 90.2881 29.714C90.2881 27.0122 88.3617 25.3281 85.781 25.3281C83.0792 25.3281 81.274 27.2545 81.274 29.714ZM83.3336 29.714C83.3336 28.1632 84.3756 27.1455 85.781 27.1455C87.1501 27.1455 88.2284 28.1632 88.2284 29.714C88.2284 31.1437 87.3924 32.2826 85.781 32.2826C84.4241 32.2826 83.3336 31.1679 83.3336 29.714Z" fill="white"/>
<path d="M102.557 25.4735H100.691L99.2373 30.8287L97.6016 25.4735H95.651L94.0638 30.8287L92.6342 25.4735H90.4412L92.9492 33.9545H94.8029L96.5476 28.5025L98.3165 33.9545H100.17L102.557 25.4735Z" fill="white"/>
<path d="M103.526 33.9545H108.675V32.1372H105.465V30.5985H108.191V28.7811H105.465V27.2909H108.554V25.4735H103.526V33.9545Z" fill="white"/>
<path d="M112.313 33.9545V30.9862H113.027L115.087 33.9545H117.438L114.966 30.6106C115.426 30.3804 116.396 29.7383 116.396 28.1632C116.396 26.6003 115.572 25.4493 113.258 25.4493C113.015 25.4493 110.847 25.4735 110.374 25.4735V33.9545H112.313ZM113.161 27.2666C114.094 27.2666 114.336 27.7149 114.336 28.1874C114.336 28.9023 113.754 29.1688 113.015 29.1688H112.313V27.2909C112.712 27.2788 112.87 27.2666 113.161 27.2666Z" fill="white"/>
<path d="M118.405 33.9545H123.554V32.1372H120.343V30.5985H123.07V28.7811H120.343V27.2909H123.433V25.4735H118.405V33.9545Z" fill="white"/>
<path d="M125.253 33.9545H125.459C126.27 33.9545 127.385 33.9788 127.833 33.9788C131.068 33.9788 132.692 32.016 132.692 29.6413C132.692 27.3878 131.323 25.4372 127.93 25.4372C127.373 25.4372 125.871 25.4735 125.422 25.4735H125.253V33.9545ZM127.906 27.2545C129.481 27.2545 130.632 28.0784 130.632 29.6413C130.632 31.2527 129.566 32.1614 127.894 32.1614C127.615 32.1614 127.446 32.1614 127.191 32.1372V27.2909C127.434 27.2545 127.7 27.2545 127.906 27.2545Z" fill="white"/>
<path d="M136.452 33.9303C136.949 33.9788 138.075 34.003 138.887 34.003C140.729 34.003 142.11 33.167 142.11 31.386C142.11 30.2956 141.516 29.6777 140.898 29.4475V29.4233C141.528 29.0113 141.868 28.4176 141.868 27.5332C141.868 26.358 141.044 25.4251 139.02 25.4251C138.1 25.4251 136.924 25.4735 136.452 25.4977V33.9303ZM139.141 30.5258C139.771 30.5258 140.171 30.756 140.171 31.2891C140.171 31.8585 139.796 32.1856 139.045 32.1856C138.681 32.1856 138.524 32.1493 138.39 32.1129V30.5258H139.141ZM138.996 27.2424C139.469 27.2424 139.929 27.4968 139.929 28.0057C139.929 28.6236 139.529 28.8296 139.032 28.8296H138.39V27.2909C138.608 27.2666 138.754 27.2424 138.996 27.2424Z" fill="white"/>
<path d="M150.642 25.4735H148.546L146.752 28.6842L144.935 25.4735H142.718L145.698 30.5016V33.9545H147.637V30.5016L150.642 25.4735Z" fill="white"/>
<path d="M25.6529 44.1649C24.4985 43.0105 23.8388 41.4932 23.7729 39.8441L17.6709 45.946L11.3381 39.6132L17.6709 33.2804L19.551 35.1604C20.0127 35.6222 20.6394 35.886 21.2991 35.886C21.9588 35.886 22.5854 35.6222 23.0472 35.1604L25.7189 32.4887C26.6754 31.5322 26.6754 29.949 25.7189 28.9925L19.419 22.7256C18.9573 22.2639 18.3306 22 17.6709 22C17.0112 22 16.3845 22.2639 15.9228 22.7256L0.717391 37.898C-0.23913 38.8546 -0.23913 40.4378 0.717391 41.3943L15.9228 56.5667C16.3845 57.0285 17.0112 57.2923 17.6709 57.2923C18.3306 57.2923 18.9573 57.0285 19.419 56.5667L29.9737 46.045C28.3246 45.979 26.8073 45.3193 25.6529 44.1649Z" fill="white"/>
<path d="M59.6592 41.3947L44.4538 56.5671C43.992 57.0289 43.3654 57.2928 42.7057 57.2928C42.046 57.2928 41.4193 57.0289 40.9576 56.5671L34.6577 50.2673C33.7012 49.3108 33.7012 47.7276 34.6577 46.771L37.3294 44.0994C37.7911 43.6376 38.4178 43.3737 39.0775 43.3737C39.7372 43.3737 40.3639 43.6376 40.8256 44.0994L42.6067 45.8805L42.7057 45.9794L49.0385 39.6466L42.7057 33.3138L33.2724 42.78C33.2394 42.813 33.2064 42.846 33.1405 42.879C32.3489 43.6376 31.2934 44.0664 30.172 44.0664C29.0175 44.0664 27.8961 43.6046 27.0715 42.78C26.2469 41.9555 25.7852 40.867 25.7852 39.6796C25.7852 38.5582 26.181 37.5027 26.9726 36.7111L27.0715 36.6121L27.1045 36.5791L27.1705 36.5462L40.9576 22.792C41.4193 22.3303 42.046 22.0664 42.7057 22.0664C43.3654 22.0664 43.992 22.3303 44.4538 22.792L59.6592 37.9645C60.5827 38.855 60.5827 40.4052 59.6592 41.3947Z" fill="white"/>
</svg>
