<?xml version="1.0" encoding="UTF-8"?>
<!DOCTYPE svg PUBLIC "-//W3C//DTD SVG 1.1//EN" "http://www.w3.org/Graphics/SVG/1.1/DTD/svg11.dtd">
<!-- Creator: CorelDRAW -->
<svg xmlns="http://www.w3.org/2000/svg" xml:space="preserve" width="101" height="100" style="shape-rendering:geometricPrecision; text-rendering:geometricPrecision; image-rendering:optimizeQuality; fill-rule:evenodd; clip-rule:evenodd"
viewBox="0 0 303.775 303.274"
 xmlns:xlink="http://www.w3.org/1999/xlink">
 <defs>
  <style type="text/css">
   <![CDATA[
    .fil0 {fill:#FEFEFE}
    .fil2 {fill:black}
    .fil1 {fill:#EFB310}
    .fil3 {fill:black;fill-rule:nonzero}
   ]]>
  </style>
 </defs>
 <g id="Layer_x0020_1">
  <metadata id="CorelCorpID_0Corel-Layer"/>
  <g id="_777383464">
   <rect id="_777385288" class="fil0" x="2.47022e-005" y="-2.48626e-005" width="303.775" height="303.274" rx="26.1445" ry="26.1445"/>
   <rect id="_777385696" fill="white" x="5.23754" y="5.25108" width="292.014" height="292.772" rx="23.4865" ry="23.4865"/>
   <polygon id="_777385096" class="fil2" points="33.5608,186.219 33.5608,102.629 18.5455,105.766 18.5455,189.754 "/>
   <path id="_777384712" class="fil3" d="M56.4476 172.534l0 -25.344c0.0134,-2.3151 0.7429,-5.2323 2.3443,-7.3458 2.5182,-3.3236 8.328,-5.2913 9.9007,-0.3918 0.7006,2.1845 0.6132,3.4319 0.613,5.6327l0 1.3892 0.0002 31.3287 14.354 -3.3798 0 -37.7915c0,-3.5665 -0.5806,-6.358 -1.7328,-8.3921 -1.1448,-2.0213 -2.8132,-3.3517 -4.9686,-3.9569 -2.175,-0.6107 -4.7846,-0.6239 -7.833,0.0933 -5.5886,1.3147 -10.4054,5.2037 -13.2601,10.3842l-0.2123 0.047 0.0003 -5.7656 -13.6565 3.2133 -0.1324 37.945c1.6624,-0.7398 3.5929,-1.117 5.5231,-1.117l0 0c2.963,0 6.5204,1.3387 9.0601,3.4511z"/>
   <path id="_777385024" class="fil3" d="M94.6664 119.892l-7.1857 1.51 0 10.8668 7.0955 -1.7647c0.2068,11.9126 -0.9592,27.8865 1.325,38.9937 0.146,0.7106 0.3637,1.3407 0.6327,1.8949l15.4097 -3.6281c-0.071,-0.0833 -0.1409,-0.179 -0.2022,-0.2907 -2.0628,-3.763 -2.5603,-8.3755 -2.5646,-12.5653l-0.0313 -27.7562 10.2562 -2.4317 0 -10.7379 -10.2564 2.3684 0.0317 -11.6908 -14.6008 3.4777 0.0902 11.7539z"/>
   <path id="_777384592" class="fil3" d="M163.569 132.514c0.1218,-9.3172 0.6582,-23.4489 -11.305,-25.6959 -2.6961,-0.5061 -5.8436,-0.576 -9.97,0.4058 -3.8232,0.91 -7.0322,2.1708 -9.6432,3.7573 -2.6179,1.5908 -4.2182,3.4944 -5.8204,5.5978 -1.6019,2.1032 -2.829,4.3992 -3.6556,6.8807 -0.8249,2.4761 -1.4624,5.0112 -1.7311,7.7256 -0.2678,2.7087 -0.5983,5.4641 -0.5456,8.2739 0.0489,2.6236 0.0976,5.2435 0.344,7.831 0.3886,4.0795 2.2137,10.1299 5.4374,12.8311 1.8044,1.5126 3.5988,2.4835 5.8306,2.9284 2.6881,0.5358 6.1091,0.2188 10.2009,-0.7548 4.4602,-1.0614 8.5786,-2.6299 11.4649,-4.7858 2.8914,-2.1596 5.2498,-4.8113 6.6761,-7.9771 1.4261,-3.1658 1.8096,-7.1075 1.8878,-11.2039l-13.1816 3.1105c0.5562,2.9018 -1.0131,9.4092 -6.9915,10.1004 -7.1322,0.8246 -7.3264,-6.8678 -7.0572,-12.6008l28.0595 -6.4242zm-28.0282 -2.2905c-0.0479,-2.5351 0.0512,-2.6442 0.4336,-4.8754 0.2177,-1.27 0.5831,-2.4853 1.1242,-3.6304 0.5393,-1.1422 1.274,-2.123 2.2083,-2.9624 0.9346,-0.8395 2.1146,-1.4387 3.5273,-1.7816 1.9422,-0.4711 3.3829,-0.2755 4.4498,0.403 1.9425,1.2353 2.326,4.0214 2.4317,6.0595 0.0556,1.0701 0.0731,2.2298 0.0433,3.4485l-14.2182 3.3388z"/>
   <path id="_777384880" class="fil3" d="M168.976 154.718l14.3577 -3.35 0 -28.2142c0.171,-4.9001 1.1196,-9.1709 4.6709,-12.0529 0.9094,-0.7378 2.768,-1.6621 4.4779,-2.2653 1.962,-0.6925 3.4692,-0.7 5.5062,-0.8678 0.0807,-0.0066 0.1607,-0.0232 0.2411,-0.0367l-0.0011 -0.1864 -0.0622 -13.2307c-4.2321,-0.2073 -7.9458,1.4591 -10.9931,4.6736 -1.6896,1.7824 -3.2139,3.972 -4.4455,6.7374l-0.2082 0.0484 0.063 -6.8804 -13.6067 3.2675 0 52.3575z"/>
   <path id="_777384520" class="fil3" d="M214.951 107.825l0 -1.4364c0,-1.3559 0.1999,-2.7628 0.7077,-3.8704 0.5073,-1.107 1.2437,-2.0536 2.241,-2.8121 0.9979,-0.7584 2.0319,-1.4049 3.523,-1.5899 2.7244,-0.3382 4.5629,-0.3763 5.5047,2.7806 0.1498,0.5027 0.1455,1.0835 0.1455,1.703 0,1.1423 -0.1753,2.1511 -0.5431,3.0035 -0.3674,0.8518 -0.9847,1.6225 -1.821,2.3042 -0.8435,0.688 -1.5249,1.3187 -2.9722,1.9474l-8.2899 3.602c-2.5067,1.089 -4.6403,2.3495 -6.4439,3.6009 -1.8036,1.2514 -3.2927,2.6308 -4.4475,4.1325 -1.1552,1.5017 -2.0875,3.2609 -2.6377,5.1567 -0.5519,1.903 -0.6648,4.4103 -0.6648,6.8635 0,1.7755 0.4509,3.4551 0.9389,5.0954 0.4921,1.655 1.4507,2.8705 2.5185,4.0978 1.0678,1.2271 2.5031,2.3404 4.2514,2.8499 1.7529,0.511 4.186,0.8392 6.7074,0.3254 2.2933,-0.4674 4.3246,-1.0741 6.0586,-1.8248 1.7503,-0.7579 3.3099,-1.7787 4.6581,-3.0472 1.3482,-1.2686 2.6846,-3.0727 3.7876,-5.0966l0.1945 -0.0283c0.1925,0.8472 0.3113,1.4945 0.574,2.391 0.2626,0.8965 0.6304,1.7071 1.0858,2.4503l13.2367 -3.1108c-0.4901,-0.8813 -0.953,-1.5349 -1.2153,-2.4157 -0.2627,-0.8807 -0.4302,-1.8941 -0.5253,-3.0045 -0.0965,-1.1239 -0.3222,-2.6148 -0.3294,-4.2124l-0.1266 -27.2647c-0.0106,-2.3478 -0.5356,-4.4885 -1.0864,-6.3081 -0.5514,-1.8205 -1.685,-3.2876 -3.138,-4.4014 -1.453,-1.1137 -2.7797,-1.757 -5.4761,-1.9632 -2.6964,-0.2065 -6.1033,-0.0106 -10.3765,0.8696 -2.7482,0.5663 -5.4145,1.5467 -7.7992,2.6041 -2.3945,1.0621 -4.3742,2.6532 -6.195,4.2792 -1.8205,1.6257 -3.1205,4.1373 -4.1462,6.4072 -1.0217,2.2601 -1.3058,4.9559 -1.3058,7.9287l0 1.2428 13.4065 -3.2492zm11.8065 16.9369c-0.0246,1.4387 -0.6112,2.7906 -1.1565,3.92 -0.283,0.5854 -0.6047,1.1279 -0.979,1.622 -2.0465,2.7018 -6.6384,4.9479 -9.6653,2.6311 -0.4717,-0.3612 -0.8269,-0.8576 -1.0784,-1.4949 -0.9248,-2.3435 -0.4597,-5.6556 0.9616,-7.6571 0.2047,-0.2882 0.4098,-0.5772 0.6146,-0.8656 1.6678,-1.7286 3.7836,-3.0091 6.209,-3.9801 0.0682,-0.0272 0.6791,-0.3363 1.4545,-0.8043 1.5644,-0.9443 3.8214,-2.3968 3.7974,-2.5004l-0.1579 9.1293z"/>
   <path id="_777384856" class="fil3" d="M289.577 93.0333c-0.0367,-4.1462 -0.2707,-7.7568 -1.6707,-10.5351 -1.3522,-2.6826 -3.2386,-4.5278 -6.435,-5.505 -3.0848,-0.9435 -6.9079,-0.8745 -11.4334,0.0925 -3.3992,0.7261 -6.6269,1.6859 -9.4504,3.1864 -2.8236,1.5006 -5.3991,3.6121 -7.4599,6.1549 -2.0516,2.5317 -3.4218,5.7674 -4.53,9.5951 -1.1082,3.8277 -1.331,8.4248 -1.2929,13.794 0.0375,5.2516 0.7063,9.4456 1.6461,12.8068 0.9397,3.3611 2.2779,5.8521 4.1256,7.5678 1.8399,1.7082 3.736,2.845 6.504,3.1675 2.7505,0.3208 5.9773,0.0513 9.6641,-0.7727 5.1814,-1.158 8.9512,-2.9324 12.0813,-5.4025 7.2338,-5.7084 8.1956,-13.1184 8.1807,-21.3819l-13.7259 3.1644c-0.2079,4.3201 0.454,8.5912 -3.512,11.3918 -0.7321,0.517 -1.6266,0.8103 -2.5907,1.0219 -2.1931,0.4821 -3.8472,0.2386 -5.0026,-0.7733 -1.1638,-1.0188 -1.6544,-2.8888 -2.0875,-5.4973 -0.4333,-2.609 -0.4989,-4.188 -0.5367,-8.5001 -0.0264,-3.0203 0.0401,-5.678 0.2328,-7.9688 0.1942,-2.3065 0.6545,-4.2671 1.2385,-5.8719 0.9959,-2.7365 3.5957,-5.371 6.5104,-5.9166 4.0571,-0.7593 5.0813,1.6759 5.5256,5.1198 0.1693,1.3135 0.2326,2.6098 0.1673,3.2557 -0.0333,0.3303 0.0008,0.6668 -0.0009,1.0025l13.8522 -3.1959z"/>
   <path id="_777384136" class="fil2" d="M89.6386 286.861l-27.7702 0c-0.2744,0.022 -0.576,0.0312 -0.9063,0.0343 -2.8994,0.0281 -6.889,-1.4636 -10.4288,-3.2345 -10.9711,-5.4881 -12.8712,-16.9495 -12.8712,-27.6806l0 -6.9468 0 -65.9304c0,-5.2103 4.2625,-9.4728 9.4728,-9.4728l0 0c5.2103,0 9.3545,4.264 9.4728,9.4728 0.2956,13.0098 -0.9455,33.6155 0.0094,44.8853 0.1355,1.5991 1.2402,2.1877 2.1516,2.1522 0.8492,-0.0333 1.6707,-0.554 1.8065,-1.8612 0.7461,-7.1843 -0.4766,-27.6728 0.0134,-37.1227 7.4272,5.0785 14.8229,10.0004 22.3113,14.9669 4.7478,3.1486 7.0251,5.6245 7.0251,14.3649l-0.2864 66.3726z"/>
   <path id="_777384016" class="fil2" d="M33.755 190.758l-17.7357 4.1482 -1.5141 0.3543c-0.7071,0.1759 -1.1554,0.7556 -1.4667,1.4834 -1.4419,3.3663 -0.2862,7.7497 2.5474,10.0244 1.8557,1.4897 4.465,2.1135 7.6563,1.3671l10.5125 -2.442 0.0003 -14.9354z"/>
   <path id="_777384424" class="fil2" d="M33.755 210.083l-17.7357 4.1482 -1.5141 0.3543c-0.7071,0.1759 -1.1554,0.7556 -1.4667,1.4834 -1.4419,3.3663 -0.2862,7.7497 2.5474,10.0244 1.8557,1.4897 4.465,2.1135 7.6563,1.3671l10.5125 -2.442 0.0003 -14.9354z"/>
   <path id="_777383488" class="fil2" d="M33.755 229.281l-17.7357 4.1482 -1.5141 0.3543c-0.7071,0.1759 -1.1554,0.7556 -1.4667,1.4834 -1.4419,3.3663 -0.2862,7.7497 2.5474,10.0245 1.8557,1.4896 4.465,2.1135 7.6563,1.367l10.5125 -2.442 0.0003 -14.9354z"/>
  </g>
 </g>
</svg>
