<svg width="40" height="40" viewBox="0 0 40 40" fill="none" xmlns="http://www.w3.org/2000/svg">
<path d="M37.8218 32.4384C38.0152 32.905 37.9085 33.4434 37.5502 33.8L35.8835 35.4667C35.6402 35.71 35.3202 35.8333 35.0002 35.8333C34.6802 35.8333 34.3601 35.7117 34.1168 35.4667C33.7651 35.115 33.6669 34.6067 33.8219 34.1667H29.1668C27.0985 34.1667 25.4168 32.485 25.4168 30.4167V29.5833C25.4168 28.8933 25.9768 28.3333 26.6668 28.3333C27.3568 28.3333 27.9168 28.8933 27.9168 29.5833V30.4167C27.9168 31.1067 28.4768 31.6667 29.1668 31.6667H36.6668C37.1718 31.6667 37.6285 31.9717 37.8218 32.4384ZM34.1668 24.1667H29.5135C29.6685 23.7267 29.5702 23.2183 29.2185 22.8666C28.7302 22.3783 27.9384 22.3783 27.4501 22.8666L25.7834 24.5333C25.4268 24.8899 25.3185 25.4283 25.5118 25.895C25.7052 26.3616 26.1618 26.6667 26.6668 26.6667H34.1668C34.8568 26.6667 35.4168 27.2267 35.4168 27.9167V28.75C35.4168 29.44 35.9768 30 36.6668 30C37.3568 30 37.9168 29.44 37.9168 28.75V27.9167C37.9168 25.8483 36.2352 24.1667 34.1668 24.1667ZM21.6668 27.9167C21.6668 28.2333 21.6835 28.55 21.7169 28.8667C21.7335 28.9333 21.7501 29 21.7501 29.0667C21.7501 29.35 21.5168 29.5833 21.2335 29.5833H8.3335C5.00016 29.5833 3.3335 27.9167 3.3335 24.5833V11.25C3.3335 7.91667 5.00016 6.25 8.3335 6.25H28.3335C31.6668 6.25 33.3335 7.91667 33.3335 11.25V19.55C33.3335 19.9 33.0001 20.1167 32.6668 20.0167C31.8335 19.7333 30.9335 19.5833 30.0002 19.5833C25.4002 19.5833 21.6668 23.3167 21.6668 27.9167ZM10.0002 17.915C10.0002 16.995 9.2535 16.2484 8.3335 16.2484C7.4135 16.2484 6.66683 16.995 6.66683 17.915C6.66683 18.835 7.4135 19.5817 8.3335 19.5817C9.2535 19.5817 10.0002 18.8367 10.0002 17.915ZM23.3335 17.9167C23.3335 15.155 21.0952 12.9167 18.3335 12.9167C15.5718 12.9167 13.3335 15.155 13.3335 17.9167C13.3335 20.6783 15.5718 22.9167 18.3335 22.9167C21.0952 22.9167 23.3335 20.6783 23.3335 17.9167Z" fill="url(#paint0_linear_27553_18043)"/>
<defs>
<linearGradient id="paint0_linear_27553_18043" x1="20.6252" y1="6.25" x2="20.6252" y2="35.8333" gradientUnits="userSpaceOnUse">
<stop stop-color="#FFDF6E"/>
<stop offset="1" stop-color="#FFA12B"/>
</linearGradient>
</defs>
</svg>
