<svg width="40" height="40" viewBox="0 0 40 40" fill="none" xmlns="http://www.w3.org/2000/svg">
<path d="M7.16675 22.5007H18.75V34.5007C18.75 34.7774 18.5266 35.0007 18.2499 35.0007H11.6667C8.33333 35.0007 6.66667 33.334 6.66667 30.0007V23.0006C6.66667 22.724 6.89008 22.5007 7.16675 22.5007ZM32.8333 22.5007H21.25V34.5007C21.25 34.7774 21.4734 35.0007 21.7501 35.0007H28.3333C31.6667 35.0007 33.3333 33.334 33.3333 30.0007V23.0006C33.3333 22.724 33.1099 22.5007 32.8333 22.5007ZM35 14.1673V19.5007C35 19.7774 34.7766 20.0007 34.4999 20.0007H21.25V14.1673H18.75V20.0007H5.50008C5.22341 20.0007 5 19.7774 5 19.5007V14.1673C5 12.7873 6.12 11.6673 7.5 11.6673H9.2749C8.74324 10.6373 8.54502 9.40899 9.01835 8.07399C9.49002 6.74399 10.5666 5.64236 11.9132 5.2207C13.7766 4.63736 15.6933 5.24732 16.8667 6.67232C16.92 6.73732 18.795 9.23229 20.0016 10.8356C21.2066 9.23229 23.08 6.74231 23.125 6.68564C24.3067 5.24898 26.2066 4.64396 28.065 5.21063C29.365 5.60896 30.4216 6.63901 30.9216 7.90401C31.475 9.30401 31.2817 10.5924 30.7284 11.6657H32.5033C33.8799 11.6674 35 12.7873 35 14.1673ZM17.4967 11.6673C16.3684 10.1673 15.005 8.35396 14.9133 8.23563C14.5317 7.77063 13.9633 7.50066 13.3333 7.50066C12.185 7.50066 11.25 8.43566 11.25 9.584C11.25 10.7323 12.185 11.6673 13.3333 11.6673H17.4967ZM28.75 9.584C28.75 8.43566 27.815 7.50066 26.6667 7.50066C26.0367 7.50066 25.4682 7.77061 25.0649 8.26228C24.9866 8.36561 23.6283 10.1707 22.5033 11.6673H26.6667C27.815 11.6673 28.75 10.7323 28.75 9.584Z" fill="url(#paint0_linear_27553_18038)"/>
<defs>
<linearGradient id="paint0_linear_27553_18038" x1="20" y1="5" x2="20" y2="35.0007" gradientUnits="userSpaceOnUse">
<stop stop-color="#FFDF6E"/>
<stop offset="1" stop-color="#FFA12B"/>
</linearGradient>
</defs>
</svg>
