<svg width="40" height="40" viewBox="0 0 40 40" fill="none" xmlns="http://www.w3.org/2000/svg">
<path d="M10.5234 28.3339H29.4734C30.6134 28.3339 31.6085 27.564 31.8935 26.4606L34.9251 14.7389C35.4001 12.9939 33.4567 11.594 31.9534 12.5973L28.0934 15.1706C27.2651 15.7223 26.1384 15.4106 25.7151 14.5089L21.7651 6.12396C21.0601 4.62729 18.9301 4.62725 18.2251 6.12559L14.2851 14.5073C13.8618 15.409 12.7351 15.7223 11.9051 15.1706L8.04512 12.5973C6.54012 11.594 4.59675 12.9956 5.07342 14.7389L8.10513 26.4606C8.38847 27.564 9.38345 28.3339 10.5234 28.3339Z" fill="url(#paint0_linear_27553_18045)"/>
<path d="M30.8332 34.5833H9.1665C8.4765 34.5833 7.9165 34.0233 7.9165 33.3333C7.9165 32.6433 8.4765 32.0833 9.1665 32.0833H30.8332C31.5232 32.0833 32.0832 32.6433 32.0832 33.3333C32.0832 34.0233 31.5232 34.5833 30.8332 34.5833Z" fill="url(#paint1_linear_27553_18045)"/>
<defs>
<linearGradient id="paint0_linear_27553_18045" x1="19.999" y1="5.00165" x2="19.999" y2="28.3339" gradientUnits="userSpaceOnUse">
<stop stop-color="#FFDF6E"/>
<stop offset="1" stop-color="#FFA12B"/>
</linearGradient>
<linearGradient id="paint1_linear_27553_18045" x1="19.9998" y1="32.0833" x2="19.9998" y2="34.5833" gradientUnits="userSpaceOnUse">
<stop stop-color="#FFDF6E"/>
<stop offset="1" stop-color="#FFA12B"/>
</linearGradient>
</defs>
</svg>
