<svg width="40" height="40" viewBox="0 0 40 40" fill="none" xmlns="http://www.w3.org/2000/svg">
<path d="M30.0002 21.667C26.3168 21.667 23.3335 24.6503 23.3335 28.3337C23.3335 32.017 26.3168 35.0003 30.0002 35.0003C33.6835 35.0003 36.6668 32.017 36.6668 28.3337C36.6668 24.6503 33.6835 21.667 30.0002 21.667ZM32.3669 30.7003C32.2169 30.867 32.0002 30.9503 31.7835 30.9503C31.5668 30.9503 31.3502 30.867 31.2002 30.7003L29.4168 28.917C29.2502 28.767 29.1668 28.5503 29.1668 28.3337V25.8337C29.1668 25.367 29.5335 25.0003 30.0002 25.0003C30.4668 25.0003 30.8335 25.367 30.8335 25.8337V27.9836L32.3669 29.5336C32.7002 29.8503 32.7002 30.3836 32.3669 30.7003ZM28.3335 6.66699H8.3335C5.00016 6.66699 3.3335 8.33366 3.3335 11.667V25.0003C3.3335 28.3337 5.00016 30.0003 8.3335 30.0003H20.3835C20.6668 30.0003 20.9002 29.767 20.9002 29.4837C20.8502 29.1003 20.8335 28.717 20.8335 28.3337C20.8335 23.2837 24.9502 19.167 30.0002 19.167C30.9335 19.167 31.8335 19.3003 32.6668 19.567C33.0002 19.667 33.3335 19.4337 33.3335 19.1004V11.667C33.3335 8.33366 31.6668 6.66699 28.3335 6.66699ZM8.3335 20.0003C7.41683 20.0003 6.66683 19.2503 6.66683 18.3337C6.66683 17.417 7.41683 16.667 8.3335 16.667C9.25016 16.667 10.0002 17.417 10.0002 18.3337C10.0002 19.2503 9.25016 20.0003 8.3335 20.0003ZM18.3335 23.3337C15.5668 23.3337 13.3335 21.1003 13.3335 18.3337C13.3335 15.567 15.5668 13.3337 18.3335 13.3337C21.1002 13.3337 23.3335 15.567 23.3335 18.3337C23.3335 21.1003 21.1002 23.3337 18.3335 23.3337Z" fill="url(#paint0_linear_27553_18046)"/>
<defs>
<linearGradient id="paint0_linear_27553_18046" x1="20.0002" y1="6.66699" x2="20.0002" y2="35.0003" gradientUnits="userSpaceOnUse">
<stop stop-color="#FFDF6E"/>
<stop offset="1" stop-color="#FFA12B"/>
</linearGradient>
</defs>
</svg>
