<svg width="40" height="40" viewBox="0 0 40 40" fill="none" xmlns="http://www.w3.org/2000/svg">
<path d="M33.3333 6.66665H29.9583C29.7583 5.48498 28.7383 4.58331 27.5 4.58331H12.5C11.2617 4.58331 10.2417 5.48498 10.0417 6.66665H6.66667C5.05833 6.66665 3.75 7.97498 3.75 9.58331V12.3334C3.75 17.0467 7.74496 19.1666 10.5833 19.1666H11.12C12.6 22.0283 15.42 24.08 18.7516 24.4966V29.6783C16.255 30.0667 15.0016 31.6984 15.0016 34.5817H25.0016C25.0016 31.6967 23.7483 30.0667 21.2516 29.6783V24.4966C24.5833 24.08 27.4016 22.0283 28.8833 19.1666H29.42C32.2566 19.1666 36.2533 17.0467 36.2533 12.3334V9.58331C36.2499 7.97498 34.9417 6.66665 33.3333 6.66665ZM6.25 12.3334V9.58331C6.25 9.35331 6.43667 9.16665 6.66667 9.16665H10V14.5833C10 15.2866 10.0749 15.9717 10.2116 16.635C8.71659 16.475 6.25 15.3517 6.25 12.3334ZM24.8317 13.1466L23.0316 14.8933C22.9 15.0216 22.84 15.205 22.8717 15.385L23.2833 17.7767C23.3666 18.2617 22.8567 18.6316 22.42 18.4033L20.26 17.2733C20.0983 17.1883 19.9049 17.1883 19.7432 17.2733L17.585 18.4033C17.1484 18.6316 16.6366 18.2616 16.72 17.7749L17.1318 15.3866C17.1634 15.2066 17.1033 15.0217 16.9716 14.895L15.1717 13.1483C14.8417 12.8266 15.0233 12.2666 15.4799 12.2016L17.97 11.8416C18.1516 11.8149 18.3083 11.7016 18.3883 11.5383L19.4668 9.36165C19.6851 8.91999 20.3167 8.91999 20.5351 9.36165L21.6134 11.5383C21.695 11.7016 21.8517 11.8149 22.0317 11.8416L24.5217 12.2016C24.98 12.265 25.1617 12.825 24.8317 13.1466ZM33.75 12.3334C33.75 15.3517 31.2834 16.475 29.7884 16.635C29.9267 15.9733 30 15.2866 30 14.5833V9.16665H33.3333C33.5633 9.16665 33.75 9.35331 33.75 9.58331V12.3334Z" fill="url(#paint0_linear_27553_18050)"/>
<defs>
<linearGradient id="paint0_linear_27553_18050" x1="20.0016" y1="4.58331" x2="20.0016" y2="34.5817" gradientUnits="userSpaceOnUse">
<stop stop-color="#FFDF6E"/>
<stop offset="1" stop-color="#FFA12B"/>
</linearGradient>
</defs>
</svg>
