<svg width="40" height="40" viewBox="0 0 40 40" fill="none" xmlns="http://www.w3.org/2000/svg">
<path d="M26.6668 5H13.3335C10.0002 5 8.3335 6.66667 8.3335 10V30C8.3335 33.3333 10.0002 35 13.3335 35H26.6668C30.0002 35 31.6668 33.3333 31.6668 30V10C31.6668 6.66667 30.0002 5 26.6668 5ZM20.0002 31.6667C19.0802 31.6667 18.3335 30.92 18.3335 30C18.3335 29.08 19.0802 28.3333 20.0002 28.3333C20.9202 28.3333 21.6668 29.08 21.6668 30C21.6668 30.92 20.9202 31.6667 20.0002 31.6667ZM22.5002 11.25H17.5002C16.8102 11.25 16.2502 10.69 16.2502 10C16.2502 9.31 16.8102 8.75 17.5002 8.75H22.5002C23.1902 8.75 23.7502 9.31 23.7502 10C23.7502 10.69 23.1902 11.25 22.5002 11.25Z" fill="url(#paint0_linear_27553_18051)"/>
<defs>
<linearGradient id="paint0_linear_27553_18051" x1="20.0002" y1="5" x2="20.0002" y2="35" gradientUnits="userSpaceOnUse">
<stop stop-color="#FFDF6E"/>
<stop offset="1" stop-color="#FFA12B"/>
</linearGradient>
</defs>
</svg>
