<svg width="40" height="40" viewBox="0 0 40 40" fill="none" xmlns="http://www.w3.org/2000/svg">
<path d="M10.0149 10.8337C10.0149 7.15699 13.0049 4.16699 16.6816 4.16699C20.3582 4.16699 23.3482 7.15699 23.3482 10.8337C23.3482 14.5103 20.3582 17.5003 16.6816 17.5003C13.0049 17.5003 10.0149 14.5103 10.0149 10.8337ZM20.9998 30.0837C20.5331 27.7171 21.0165 25.4337 22.3332 23.8171C22.7999 23.2671 23.3499 22.8003 23.9832 22.467C24.0632 22.4186 24.1048 22.4004 24.1665 22.3504C24.2665 22.267 24.3164 22.1336 24.3164 22.0002C24.3164 21.6402 23.9331 21.517 23.9331 21.517C22.8331 21.0837 21.5332 20.8337 19.9998 20.8337H13.3332C6.5665 20.8337 4.1665 25.7837 4.1665 30.0337C4.1665 33.8337 6.18317 35.8337 9.99984 35.8337H23.2664C23.5331 35.8337 23.7665 35.6169 23.7665 35.3336C23.7665 35.2002 23.6999 35.067 23.6166 34.9836C22.4166 33.6836 21.3831 32.0337 20.9998 30.0837ZM32.9531 24.167C30.7465 24.157 30.0065 26.3437 30.0065 26.3437C30.0065 26.3437 29.2648 24.157 27.0598 24.167C24.0964 24.182 22.9315 26.9003 23.4648 29.6036C24.3348 34.0103 30.0065 36.547 30.0065 36.547C30.0065 36.547 35.6781 34.0086 36.5481 29.6036C37.0814 26.9003 35.9215 24.182 32.9531 24.167Z" fill="url(#paint0_linear_27553_18048)"/>
<defs>
<linearGradient id="paint0_linear_27553_18048" x1="20.4201" y1="4.16699" x2="20.4201" y2="36.547" gradientUnits="userSpaceOnUse">
<stop stop-color="#FFDF6E"/>
<stop offset="1" stop-color="#FFA12B"/>
</linearGradient>
</defs>
</svg>
