<svg width="40" height="40" viewBox="0 0 40 40" fill="none" xmlns="http://www.w3.org/2000/svg">
<path d="M36.6668 15.6219C36.4869 16.58 36.0862 17.4883 35.4932 18.2819L23.2946 33.8779C22.9079 34.3526 22.4126 34.7375 21.8461 35.0035C21.2797 35.2695 20.6571 35.4097 20.0252 35.4134C19.3934 35.417 18.769 35.2842 18.1992 35.0248C17.6294 34.7654 17.1291 34.3863 16.7363 33.9162L4.47794 17.9969C3.95722 17.2801 3.58962 16.4732 3.396 15.6219H12.1016L18.7029 31.9291C18.8034 32.1786 18.9812 32.3932 19.2128 32.5446C19.4444 32.6961 19.719 32.7771 20.0002 32.7771C20.2813 32.7771 20.5559 32.6961 20.7875 32.5446C21.0191 32.3932 21.1969 32.1786 21.2974 31.9291L27.8988 15.6219H36.6668ZM27.9168 12.983H36.6071C36.3958 12.0902 35.9904 11.2494 35.4168 10.5143L31.8641 5.95686C31.3496 5.27372 30.6711 4.7169 29.8849 4.33255C29.0987 3.9482 28.2274 3.74739 27.3432 3.74677H24.2877L27.9168 12.983ZM18.7613 3.74677L15.0682 12.983H24.946L21.3266 3.74677H18.7613ZM12.0974 12.983L15.7891 3.74677H12.5641C11.6874 3.74595 10.823 3.94274 10.0419 4.32098C9.26083 4.69922 8.58537 5.24811 8.071 5.92256L4.63627 10.2002C3.97906 11.0183 3.53286 11.9714 3.3335 12.983H12.0974ZM24.9224 15.6219H15.0779L20.0002 27.7794L24.9224 15.6219Z" fill="url(#paint0_linear_27553_18044)"/>
<defs>
<linearGradient id="paint0_linear_27553_18044" x1="20.0002" y1="3.74677" x2="20.0002" y2="35.4134" gradientUnits="userSpaceOnUse">
<stop stop-color="#FFDF6E"/>
<stop offset="1" stop-color="#FFA12B"/>
</linearGradient>
</defs>
</svg>
