<svg width="162" height="36" fill="none" xmlns="http://www.w3.org/2000/svg"><g clip-path="url(#clip0_10317_67240)"><path d="M12.88 23.86a15.93 15.93 0 005.008 4.122c.886-1.951.44-4.736-2.32-6.082.384-.445.828-.84 1.32-1.174-1.393-.725-2.37-1.86-2.4-1.896 1.158.759 2.602 1.203 3.853 1.219h.013c4.125-.014 6.648-2.883 7.353-3.809a4.51 4.51 0 01-3.11-.896c1.714.273 3.865-.198 3.865-.198a12.18 12.18 0 00-5.177-4.275c-2.331-1.054-8.526-2.132-13.163 1.905l-.002.001a13.16 13.16 0 00-3.239 4.107 15.327 15.327 0 011.057-3.19c-2.216.568-4.475.206-5.938-.155 1.567 2.42 2.39 6.257 1.839 9.215a3.425 3.425 0 011.682.187c.288 6.977 7.028 12.553 13.796 12.826 6.447.26 10.77-4.38 11.561-5.229 4.687-5.031 4.243-11.123 4.142-12.234-2.101 3.3-6.775 4.158-9.995 2.003 1.691 4.95-.222 10.267-5.081 12.008a3.619 3.619 0 01-.519.173h-.003c-1.832.55-3.861.592-5.865.107 0 0 2.22.157 4.22-.594-2.236-1.142-2.673-3.665-2.134-6.206a7.327 7.327 0 01-.764-1.936zm7.485-11.606c.148 0 .294.028.43.082.137.053.261.132.365.232.105.1.188.218.244.348.057.13.086.269.086.41-.06 1.421-2.19 1.42-2.25 0 0-.141.03-.28.086-.41.057-.13.14-.249.244-.348a1.173 1.173 0 01.795-.314zm5.216-9.856l-3.075 7.114a13 13 0 00-5.83-1.601 13.06 13.06 0 00-5.935 1.196L7.855 2.398l5.436 2.425L16.718 0l3.427 4.823 5.436-2.425zM5.395 8.633c-.243 0-.481-.069-.684-.198a1.187 1.187 0 01-.453-.526 1.122 1.122 0 01-.07-.678c.047-.228.165-.437.337-.6.172-.165.391-.276.63-.322.239-.045.486-.022.711.067.225.089.418.24.553.432a1.134 1.134 0 01-.153 1.481c-.231.22-.544.344-.87.344zm22.616 0c-.244 0-.482-.069-.684-.198a1.188 1.188 0 01-.453-.526 1.122 1.122 0 01-.07-.678c.047-.228.164-.437.337-.6a1.25 1.25 0 01.63-.322c.239-.045.486-.022.711.067.225.089.417.24.553.432a1.134 1.134 0 01-.154 1.481c-.23.22-.544.344-.87.344z" fill="url(#paint0_linear_10317_67240)"/><path d="M44.155 27.173a5.611 5.611 0 01-2.26-1.599l2.37-2.676c.82 1.018 1.704 1.526 2.655 1.526.628 0 1.107-.181 1.437-.543.329-.363.493-.892.493-1.59V16h-5.309v-3.2h9.61v9.242c0 1.895-.502 3.317-1.503 4.265-1.002.948-2.476 1.422-4.421 1.421-1.127 0-2.15-.184-3.072-.554zM58.416 26.87a5.864 5.864 0 01-2.403-2.09c-.578-.892-.866-1.903-.866-3.032 0-1.115.289-2.118.866-3.01a5.806 5.806 0 012.392-2.08c1.016-.495 2.168-.743 3.455-.743s2.442.247 3.466.742 1.821 1.185 2.392 2.07c.57.885.855 1.892.855 3.021 0 1.13-.285 2.14-.855 3.032a5.79 5.79 0 01-2.392 2.09c-1.023.502-2.179.753-3.466.753-1.272 0-2.42-.25-3.444-.753zm5.243-3.125c.468-.481.702-1.147.702-1.997 0-.836-.234-1.491-.702-1.965-.468-.474-1.068-.71-1.799-.711-.731 0-1.331.237-1.799.71-.468.475-.702 1.13-.702 1.966 0 .85.234 1.516.702 1.997.468.48 1.068.721 1.8.721.73 0 1.33-.24 1.798-.721zM73.027 26.87a5.865 5.865 0 01-2.403-2.09c-.578-.892-.866-1.903-.866-3.032 0-1.115.289-2.118.866-3.01a5.807 5.807 0 012.392-2.08c1.016-.495 2.168-.743 3.455-.743s2.442.247 3.466.742 1.821 1.185 2.392 2.07c.57.885.856 1.892.856 3.021 0 1.13-.286 2.14-.856 3.032a5.79 5.79 0 01-2.391 2.09c-1.024.502-2.18.753-3.467.753-1.272 0-2.42-.25-3.444-.753zm5.243-3.125c.468-.481.702-1.147.702-1.997 0-.836-.234-1.491-.702-1.965-.468-.474-1.068-.71-1.799-.711-.731 0-1.331.237-1.799.71-.468.475-.702 1.13-.702 1.966 0 .85.234 1.516.702 1.997.468.48 1.068.721 1.8.721.73 0 1.33-.24 1.798-.721zM88.636 26.756a7.487 7.487 0 01-3.017-2.708c-.731-1.157-1.097-2.467-1.097-3.93 0-1.464.366-2.774 1.097-3.931a7.49 7.49 0 013.017-2.708c1.28-.648 2.724-.972 4.333-.972 1.404 0 2.67.237 3.796.711a7.279 7.279 0 012.808 2.05l-2.765 2.382c-.995-1.142-2.201-1.714-3.62-1.714-.833 0-1.576.174-2.226.523a3.715 3.715 0 00-1.514 1.474c-.359.634-.538 1.362-.538 2.184 0 .823.18 1.551.538 2.185.344.621.87 1.133 1.514 1.474.65.349 1.392.523 2.226.523 1.419 0 2.626-.572 3.62-1.715l2.765 2.384a7.27 7.27 0 01-2.808 2.049c-1.127.474-2.392.71-3.796.71-1.61 0-3.053-.323-4.333-.971zM110.893 17.2c1.038.858 1.557 2.172 1.558 3.942v6.293h-3.884V25.97c-.599 1.102-1.77 1.652-3.51 1.652-.921 0-1.718-.153-2.391-.46-.673-.306-1.181-.721-1.525-1.244a3.18 3.18 0 01-.516-1.788c0-1.073.432-1.905 1.295-2.498.863-.592 2.194-.888 3.993-.888h2.369c-.073-1.199-.914-1.798-2.523-1.798a6.051 6.051 0 00-1.733.26 4.714 4.714 0 00-1.492.722l-1.404-2.697c.658-.418 1.459-.742 2.402-.972a11.97 11.97 0 012.842-.345c1.974 0 3.48.429 4.519 1.286zm-3.401 7.58c.373-.233.652-.58.79-.983v-.983h-1.799c-1.214 0-1.821.384-1.821 1.15-.005.161.03.321.102.466.073.146.181.273.315.37.278.21.658.314 1.141.314.449.01.891-.107 1.272-.334zM116.465 27.299c-.965-.216-1.74-.498-2.325-.847l1.25-2.718c.6.345 1.251.602 1.931.763.722.186 1.467.28 2.216.283.672 0 1.151-.067 1.437-.199.285-.132.427-.324.427-.575 0-.25-.171-.428-.515-.533-.344-.105-.889-.206-1.635-.303a16.837 16.837 0 01-2.424-.44 3.772 3.772 0 01-1.722-1.003c-.483-.488-.724-1.17-.724-2.049-.009-.699.231-1.38.68-1.934.453-.564 1.115-1.01 1.986-1.338.87-.327 1.912-.49 3.126-.491.862 0 1.722.084 2.567.25.848.168 1.557.405 2.128.712l-1.251 2.697a7.205 7.205 0 00-3.422-.837c-.658 0-1.141.074-1.448.22-.307.146-.461.338-.461.575 0 .265.168.45.505.554.336.105.892.213 1.667.324.822.108 1.636.269 2.435.48a3.761 3.761 0 011.679.994c.475.48.712 1.153.713 2.018a2.982 2.982 0 01-.68 1.913c-.454.564-1.123 1.007-2.008 1.327-.885.32-1.949.48-3.192.481-.99 0-1.976-.108-2.94-.324zM127.325 14.242a2.037 2.037 0 01-.519-.681 1.946 1.946 0 010-1.647c.121-.26.298-.492.519-.682.468-.404 1.082-.606 1.843-.606.76 0 1.374.191 1.843.575.226.179.407.404.528.66.122.255.181.533.174.813 0 .628-.234 1.147-.702 1.558-.469.411-1.083.617-1.843.617-.761 0-1.375-.202-1.843-.607zm-.241 1.861h4.168v11.332h-4.168V16.103zM145.26 17.17c.899.836 1.349 2.097 1.349 3.784v6.48h-4.168v-5.832c0-1.547-.651-2.32-1.953-2.32-.717 0-1.291.222-1.722.668-.432.446-.648 1.115-.647 2.007v5.478h-4.169V16.103h3.971v1.234a4.741 4.741 0 011.668-1.056 5.895 5.895 0 012.106-.366c1.477 0 2.665.418 3.565 1.255zM151.743 26.87a5.857 5.857 0 01-2.402-2.09c-.578-.892-.867-1.903-.867-3.032 0-1.115.289-2.118.867-3.01a5.806 5.806 0 012.391-2.08c1.016-.495 2.168-.743 3.455-.743s2.443.247 3.467.742c1.023.495 1.82 1.185 2.391 2.07.57.885.856 1.892.856 3.021 0 1.13-.286 2.14-.856 3.032a5.79 5.79 0 01-2.391 2.09c-1.024.502-2.18.753-3.467.753-1.272 0-2.42-.25-3.444-.753zm5.243-3.125c.468-.481.702-1.147.702-1.997 0-.836-.234-1.491-.702-1.965-.468-.474-1.068-.71-1.799-.711-.731 0-1.331.237-1.799.71-.468.475-.702 1.13-.702 1.966 0 .85.234 1.516.702 1.997.468.48 1.068.721 1.799.721.731 0 1.331-.24 1.799-.721z" fill="#fff"/></g><defs><linearGradient id="paint0_linear_10317_67240" x1="16.539" y1="0" x2="16.539" y2="35.778" gradientUnits="userSpaceOnUse"><stop stop-color="#FFDF6E"/><stop offset="1" stop-color="#FFA12B"/></linearGradient><clipPath id="clip0_10317_67240"><path fill="#fff" d="M0 0h161.901v36H0z"/></clipPath></defs></svg>