<svg width="399" height="122" xmlns="http://www.w3.org/2000/svg" xmlns:xlink="http://www.w3.org/1999/xlink"><defs><path id="a" d="M.795.19h113.412v40.556H.795z"/><path id="c" d="M0 .498h129.267v5.62H0z"/></defs><g fill="none" fill-rule="evenodd"><g transform="translate(7.938 .417)"><mask id="b" fill="#fff"><use xlink:href="#a"/></mask><path d="M57.311.189c19.01 8.026 37.844 16.53 56.833 24.607.102 5.313.05 10.626.05 15.95-37.762-.02-75.535-.01-113.307-.01C.826 35.462.907 30.2.795 24.928 19.601 16.638 38.425 8.296 57.311.189" fill="#006E90" mask="url(#b)"/></g><path d="M215.922 37.115c2.48 0 4.967-.01 7.456-.02 4.538 7.831 8.82 15.806 13.43 23.597-.05-7.873-.01-15.735-.041-23.598 2.1.01 4.192.02 6.282.02.05 11.208-.01 22.416.041 33.623-2.407-.01-4.814-.03-7.21-.051-4.457-8.046-9.056-16.02-13.645-23.996.102 8.016.01 16.021.091 24.037h-6.445c.052-11.197-.01-22.405.041-33.612M249.698 37.115c2.335 0 4.67-.01 7.016-.01-.03 4.71-.02 9.433-.02 14.144 4.272-4.762 8.688-9.392 13.033-14.093a656.77 656.77 0 0 1 8.973-.062c-4.506 4.549-9.76 8.77-13.757 13.737 4.57 6.628 9.474 13.053 14.176 19.6-2.886-.184-6.446.357-9.148-.47-3.59-4.619-6.69-9.667-10.054-14.45-1.174 1.133-2.346 2.275-3.52 3.407a603.74 603.74 0 0 0-.009 11.452c-2.234-.01-4.466-.02-6.69-.02.01-11.075-.01-22.16 0-33.235" fill="#00AFD8"/><path d="M15.26 45.365c8.22.081 16.44-.02 24.649.06.01 1.969.01 3.937.02 5.915l-4.344.092c-.041 14.93-.02 29.85-.01 44.779l4.323.061.03 5.537c-8.218.092-16.448-.01-24.667.062.01-1.907.01-3.825.01-5.742 1.52.051 3.039.092 4.548.133.02-14.97.01-29.941.01-44.911l-4.558.06c0-2.018 0-4.027-.01-6.046M53.278 45.477c8.128-.245 16.286.03 24.423-.113 0 2.01.011 4.029.011 6.038-1.387-.01-2.785-.031-4.17-.041-.062 14.97.039 29.94-.062 44.91l4.232-.152v5.762c-8.18-.051-16.347-.041-24.515-.01 0-1.877 0-3.753-.012-5.63 1.398-.01 2.785-.02 4.183-.02.03-14.93-.032-29.87.03-44.8-1.397-.01-2.784-.03-4.182-.04-.02-1.968-.082-3.946.062-5.904M90.693 45.395c8.302-.02 16.593.041 24.883-.04.01 2.019.01 4.038.01 6.057-1.468-.01-2.926-.03-4.394-.04 0 14.96-.011 29.92 0 44.89l4.404-.122c-.01 1.917-.01 3.834-.02 5.741a2023.8 2023.8 0 0 0-24.883-.01l-.03-5.71 4.61.09c-.06-14.97-.01-29.93-.031-44.89-1.52.01-3.05.03-4.569.051 0-2.009.01-4.008.02-6.017" fill="#006E90"/><path d="M191.071 57.928c1.163-3.335 2.334-6.67 3.447-10.024.387-1.172.784-2.346 1.172-3.519 1.489 4.498 2.825 9.046 4.314 13.543h-8.933Zm8.464-20.824c-2.6-.01-5.242-.122-7.821.133-4.253 10.87-7.844 22.15-11.85 33.132 2.386-.01 4.771-.04 7.157-.071.725-2.233 1.449-4.467 2.162-6.7 4.212-.02 8.414-.02 12.625-.04.654 2.396 1.307 4.782 1.98 7.178 2.487-.01 4.985-.02 7.485-.01-4.02-11.166-7.843-22.414-11.738-33.622ZM166.056 64.241c-3.56 1.05-7.7.5-11.391.56-.02-3.12-.03-6.23-.02-9.34 4.099.163 9.453-.592 13.154 1.417 2.01 2.193 1.143 6.292-1.743 7.363m.02-20.956c2.886.968 2.61 5.67-.143 6.526-3.58.898-7.588.51-11.258.54a855.57 855.57 0 0 1-.03-7.413c3.74.092 7.76-.429 11.431.347m4.997 9.29c3.05-2.54 4.222-4.396 3.65-8.536-.59-4.69-5.201-6.832-9.442-7.18-5.743-.336-11.525-.03-17.286-.132.133 11.208.051 22.415.051 33.622 6.037-.07 12.095.174 18.12-.101 2.694-.113 5.121-.939 6.875-3.06 3.833-4.273 3.498-11.809-1.968-14.613M301.085 79.538c2.947 2.019 3.61 4.956 4.395 8.23-2.172.01-4.344.01-6.516-.01-1.031-1.765-1.541-3.59-3.632-4.355-2.232-.663-4.955-.765-7.179-.01-2.344 1.03-3.456 3.691-1.866 5.884 5.089 2.784 11.749 2.743 16.785 5.598 3.519 2.213 3.774 6.69 2.898 10.351-1.092 3.559-4.142 5.65-7.588 6.598-5.467 1.438-12.033.857-16.612-2.702-2.622-2.101-2.928-4.895-3.528-7.975 2.253-.01 4.507-.01 6.75.02.806 1.703 1.08 3.957 3.039 4.732 2.886.744 6.496 1.05 9.34-.02 2.46-1.194 3.388-4.477.939-6.18-4.66-2.672-12.43-1.989-16.836-5.66-4.425-3.926-3.038-12.492 2.285-15.093 4.936-2.733 12.685-2.784 17.326.592M146.863 77.722c9.188-.204 18.387-.05 27.585-.081 0 1.978 0 3.956.011 5.935-3.397-.041-6.782-.051-10.178-.051-.01 9.29.01 18.58 0 27.87h-7.312c-.01-9.29 0-18.58 0-27.88-3.406.02-6.812.02-10.218.02.04-1.938.071-3.875.112-5.813M246.26 77.64c2.48-.01 4.957-.01 7.425-.02 4.437 7.822 8.75 15.715 13.32 23.455.12-7.811.01-15.633.06-23.445h6.323c.02 11.259.02 22.507.01 33.765-2.367 0-4.722 0-7.078.01-4.578-8.005-9.056-16.061-13.706-24.026-.132 8.006-.082 16.011-.03 24.016h-6.353c.07-11.248.01-22.496.03-33.754M311.527 77.64c7.903-.03 15.796 0 23.7-.02.031 1.978.05 3.957.081 5.935-5.68-.04-11.36-.02-17.03-.03-.01 2.58-.01 5.15-.02 7.72 4.915.01 9.83.01 14.746-.01 0 1.906-.01 3.803-.01 5.71-4.896-.112-9.79-.102-14.686-.03-.05 4.69-.04 9.392-.03 14.083-2.264 0-4.518 0-6.772.01.051-11.126 0-22.242.02-33.367M340.325 77.64c8.149-.02 16.307 0 24.455-.02.01 1.978.01 3.947.02 5.925-5.935-.02-11.88-.02-17.825 0 .01 2.448.01 4.885.01 7.332a1247.97 1247.97 0 0 1 16.348-.03v5.68c-5.457 0-10.913-.02-16.369.01.011 2.917.011 5.843 0 8.76 6.212-.03 12.421-.02 18.632-.02.01 2.04.01 4.079.02 6.118h-25.321c.04-11.248 0-22.506.03-33.754M196.384 92.53c-3.528.642-7.332.193-10.922.275.01-3.08.02-6.17.02-9.25 3.386.03 6.944-.316 10.28.276 3.05 1.61 3.977 6.914.622 8.698m7.414 5.823c-.826-1.172-2.204-1.998-3.325-2.886 5.232-2.427 6.516-8.923 3.406-13.542-2.05-3.223-5.455-3.998-9.036-4.212-5.364-.235-10.748-.01-16.121-.092-.174 11.259.04 22.517-.123 33.775h6.934c-.07-4.436-.07-8.872-.041-13.308 3.14.367 9.698-1.224 11.575 1.917 1.09 3.488.53 7.73.898 11.391 2.691-.01 5.383 0 8.076.062-2.234-4.345-.255-8.852-2.243-13.105M389.152 92.622c-3.497.458-7.127.142-10.656.183-.01-3.08-.01-6.16 0-9.24 3.477.042 7.465-.468 10.8.643 2.773 1.49 3.252 7.343-.144 8.414m7.72 6.322c-.51-1.815-2.294-2.712-3.65-3.855 1.488-1.1 3.11-1.947 3.987-3.64 2.09-4.008.693-9.566-3.12-12.044-2.979-1.805-6.19-2.03-9.596-2.05-4.488 0-8.964.041-13.452.02 0 11.208.051 22.426-.03 33.633l6.762-.03a722.395 722.395 0 0 1-.022-13.38c3.294.265 8.404-.795 11.147 1.275 1.846 3.355.887 8.321 1.622 12.115 2.701 0 5.394.02 8.096.102-1.794-4.008-.61-8.078-1.744-12.146M221.44 98.546c1.58-4.222 2.753-8.597 4.497-12.757 2.213 3.763 2.814 8.678 4.415 12.767-2.977-.01-5.945-.01-8.913-.01m8.27-20.956c-2.447.01-4.925-.082-7.361.152-.858.939-1.215 2.377-1.684 3.55-3.426 10.065-6.883 20.12-10.534 30.113 2.397-.01 4.793-.01 7.19-.01.764-2.294 1.54-4.579 2.325-6.873 4.18-.01 8.362-.01 12.543 0 .642 2.284 1.285 4.569 1.928 6.863 2.498.01 4.996.01 7.495.02-4.1-11.227-7.771-22.598-11.901-33.815" fill="#00AFD8"/><path d="M8.795 106.44c37.783.05 75.566.01 113.348.02 0 1.897 0 3.804.011 5.7-37.784-.03-75.566-.01-113.349-.01-.01-1.907-.01-3.804-.01-5.71" fill="#006E90"/><g transform="translate(.8 115.872)"><mask id="d" fill="#fff"><use xlink:href="#c"/></mask><path d="M.02.51C43.106.5 86.192.49 129.267.51v5.599c-43.085 0-86.181-.041-129.267.01C.01 4.253.02 2.376.02.51" fill="#006E90" mask="url(#d)"/></g></g></svg>