<?xml version="1.0" encoding="utf-8"?>
<!-- Generator: Adobe Illustrator 26.0.1, SVG Export Plug-In . SVG Version: 6.00 Build 0)  -->
<svg version="1.1" id="Layer_1" xmlns="http://www.w3.org/2000/svg" xmlns:xlink="http://www.w3.org/1999/xlink" x="0px" y="0px"
	 viewBox="0 0 219 90" style="enable-background:new 0 0 219 90;" xml:space="preserve">
<style type="text/css">
	.st0{fill:url(#SVGID_1_);}
	.st1{fill:url(#SVGID_00000147196222606891173610000011564632343397716100_);}
	.st2{fill:#E7E6E6;}
	.st3{fill:url(#SVGID_00000131350697686723491140000008992424024271370639_);}
	.st4{fill:url(#SVGID_00000075157976796531013460000002036780736605231286_);}
	.st5{opacity:0.71;fill:url(#SVGID_00000007416429093784310500000015514915252455059358_);enable-background:new    ;}
	.st6{fill:url(#SVGID_00000166671024807205178250000014318893777063936155_);}
	.st7{opacity:0.57;fill:#1887B2;enable-background:new    ;}
	.st8{fill:#FFFFFF;}
	.st9{fill:#2D9DD3;}
</style>
<g>
	<g id="Layer_1_00000056412423608185583820000004577592829225498245_">
		
			<linearGradient id="SVGID_1_" gradientUnits="userSpaceOnUse" x1="74.8195" y1="83.9705" x2="110.1803" y2="83.9705" gradientTransform="matrix(0.9999 1.047178e-02 1.047178e-02 -0.9999 -48.1743 125.2368)">
			<stop  offset="1.000000e-02" style="stop-color:#FFA220"/>
			<stop  offset="4.000000e-02" style="stop-color:#FFA61C"/>
			<stop  offset="0.34" style="stop-color:#FFC000"/>
			<stop  offset="0.61" style="stop-color:#FDC200"/>
			<stop  offset="0.74" style="stop-color:#F6C900"/>
			<stop  offset="0.75" style="stop-color:#F5CB00"/>
			<stop  offset="0.78" style="stop-color:#F3C200"/>
			<stop  offset="0.84" style="stop-color:#F0B100"/>
			<stop  offset="0.89" style="stop-color:#EFAB00"/>
			<stop  offset="1" style="stop-color:#B74600"/>
		</linearGradient>
		<path class="st0" d="M61.9,39.6c0.1,0.1,0.2,0.3,0.3,0.4c-0.2-0.9-0.6-1.8-1-2.7c-3.7-6.8-14-4.8-24.2,2.9c-2.7,2-5.1,4.4-7.2,7
			c1.2,0.7,2.4,1.6,3.5,2.5c0.7,0.5,1.4,0.9,2.2,1.3c0.7-0.8,1.3-1.5,2-2.2C46.5,39.5,58.2,34.7,61.9,39.6z"/>
		
			<linearGradient id="SVGID_00000035510926643488181140000007911842425326743478_" gradientUnits="userSpaceOnUse" x1="74.8195" y1="83.6572" x2="110.1803" y2="83.6572" gradientTransform="matrix(0.9999 1.047178e-02 1.047178e-02 -0.9999 -48.1743 125.2368)">
			<stop  offset="1.000000e-02" style="stop-color:#FFA220"/>
			<stop  offset="4.000000e-02" style="stop-color:#FFA61C"/>
			<stop  offset="0.34" style="stop-color:#FFC000"/>
			<stop  offset="0.61" style="stop-color:#FDC200"/>
			<stop  offset="0.74" style="stop-color:#F6C900"/>
			<stop  offset="0.75" style="stop-color:#F5CB00"/>
			<stop  offset="0.78" style="stop-color:#F3C200"/>
			<stop  offset="0.84" style="stop-color:#F0B100"/>
			<stop  offset="0.89" style="stop-color:#EFAB00"/>
			<stop  offset="1" style="stop-color:#B74600"/>
		</linearGradient>
		<path style="fill:url(#SVGID_00000035510926643488181140000007911842425326743478_);" d="M62.5,45.4l0.2-0.1
			c0.3-2.1,0.2-4-0.6-5.3C62.5,41.8,62.7,43.6,62.5,45.4z"/>
		<g>
			<path class="st2" d="M62.1,40c-0.1-0.1-0.2-0.3-0.3-0.4l0,0c0.1,0.3,0.2,0.5,0.2,0.8c0.1,0.2,0.2,0.4,0.3,0.6
				C62.3,40.6,62.2,40.3,62.1,40z"/>
			<path class="st2" d="M36.8,40.7C47,33,57.3,30.9,61,37.7c0.3,0.6,0.6,1.2,0.8,1.9c0,0,0,0,0,0c0.1,0.1,0.2,0.3,0.3,0.4
				c-0.2-0.9-0.6-1.8-1-2.7c-3.7-6.8-14-4.7-24.2,3.1c-3.8,2.8-6.9,6.3-9.4,10.3c0,0,0,0,0.1,0.1C30,46.9,33.1,43.5,36.8,40.7z"/>
		</g>
		<polygon points="10.3,38.3 10.3,38.3 10.3,38.3 		"/>
		
			<linearGradient id="SVGID_00000168804886321080889500000009420867472527085455_" gradientUnits="userSpaceOnUse" x1="828.47" y1="928.7875" x2="863.9982" y2="928.7875" gradientTransform="matrix(0.93 0.21 0.23 -1 -980.3 804.21)">
			<stop  offset="1.000000e-02" style="stop-color:#C59252"/>
			<stop  offset="0.22" style="stop-color:#EBA31C"/>
			<stop  offset="0.34" style="stop-color:#FFAC00"/>
			<stop  offset="0.51" style="stop-color:#FDAC03"/>
			<stop  offset="0.63" style="stop-color:#F6AB0D"/>
			<stop  offset="0.75" style="stop-color:#E9AA1E"/>
			<stop  offset="0.78" style="stop-color:#E4A925"/>
			<stop  offset="0.8" style="stop-color:#E7AC21"/>
			<stop  offset="0.86" style="stop-color:#F4B70F"/>
			<stop  offset="0.93" style="stop-color:#FCBE04"/>
			<stop  offset="1" style="stop-color:#FFC000"/>
		</linearGradient>
		<path style="fill:url(#SVGID_00000168804886321080889500000009420867472527085455_);" d="M33.9,47.5c-0.9-0.8-1.9-1.6-2.8-2.4
			c-1.8,2.1-3.7,4-5.9,5.8c-9.1,7.6-19,10.1-22,5.6c0-0.1-0.1-0.1-0.1-0.2c-0.6-0.9-1-1.8-1.3-2.8c-0.5-1.9-0.5-3.9,0.1-5.7
			c-1.4,2.8-1.8,5.6-0.9,8C3.3,62,13.7,63,24.1,58c4.9-2.3,8.9-5.6,11.6-9C35.1,48.5,34.5,48,33.9,47.5z"/>
		
			<linearGradient id="SVGID_00000062171741280436772210000000971302265849730212_" gradientUnits="userSpaceOnUse" x1="830.9669" y1="940.9878" x2="827.7405" y2="923.6839" gradientTransform="matrix(0.93 0.21 0.23 -1 -980.3 804.21)">
			<stop  offset="1.000000e-02" style="stop-color:#C59252"/>
			<stop  offset="0.22" style="stop-color:#EBA31C"/>
			<stop  offset="0.34" style="stop-color:#FFAC00"/>
			<stop  offset="0.51" style="stop-color:#FDAC03"/>
			<stop  offset="0.63" style="stop-color:#F6AB0D"/>
			<stop  offset="0.75" style="stop-color:#E9AA1E"/>
			<stop  offset="0.78" style="stop-color:#E4A925"/>
			<stop  offset="0.8" style="stop-color:#E7AC21"/>
			<stop  offset="0.86" style="stop-color:#F4B70F"/>
			<stop  offset="0.93" style="stop-color:#FCBE04"/>
			<stop  offset="1" style="stop-color:#FFC000"/>
		</linearGradient>
		<path style="fill:url(#SVGID_00000062171741280436772210000000971302265849730212_);" d="M11.7,38c-0.5,0-1,0.1-1.4,0.3l0,0.1
			l-0.1,0c-2,1.4-2.1,1.5,0.1,0C9,39.1,7.8,40,6.7,41.1c-1.8,1.7-3.3,3.7-4.5,5.9l0,0c-0.1,0.2-0.2,0.5-0.4,0.7
			c-0.6,1.9-0.6,3.9-0.1,5.7c0.3,1,0.7,1.9,1.3,2.8c-0.8-1.4-1.2-3-1.2-4.6c0-4,3.4-9.2,5.7-11.2c1-0.9,2.2-1.5,3.6-1.6
			C11.3,38.5,11.5,38.2,11.7,38z"/>
		
			<linearGradient id="SVGID_00000091704501994284072070000011872490640149034685_" gradientUnits="userSpaceOnUse" x1="2086.9199" y1="10739.9248" x2="2112.0852" y2="10714.7588" gradientTransform="matrix(-8.000000e-02 0.92 0.64 5.000000e-02 -6666.25 -2417.79)">
			<stop  offset="0" style="stop-color:#000000;stop-opacity:0"/>
			<stop  offset="0.4592" style="stop-color:#000000;stop-opacity:0.3"/>
			<stop  offset="1" style="stop-color:#000000;stop-opacity:0"/>
		</linearGradient>
		<path style="opacity:0.71;fill:url(#SVGID_00000091704501994284072070000011872490640149034685_);enable-background:new    ;" d="
			M20.4,54.3c4.3-2.7,8.1-6.3,9.3-7.9l0.7-0.8c0.5-0.5,1.2-1.5,1.8-2c1.4-0.7,3.9-2.5,6.6-4.3c1.1-0.8,2.3-1.5,2.9-1.9l3.1,5.2
			c-1.9,1.3-6.9,5.5-8.7,7c-0.6,0.5,0.1-0.6-0.4-0.1L32,52.9c-2.6,2.2-5.4,4-8.5,5.4L20.4,54.3z"/>
		
			<linearGradient id="SVGID_00000049198107404407312850000012118357486765325975_" gradientUnits="userSpaceOnUse" x1="69.8832" y1="32.7312" x2="6.8465" y2="61.8576" gradientTransform="matrix(1 0 0 -1 0 92)">
			<stop  offset="1.000000e-02" style="stop-color:#001F2A"/>
			<stop  offset="0.16" style="stop-color:#004B5D"/>
			<stop  offset="0.2" style="stop-color:#00576E"/>
			<stop  offset="0.31" style="stop-color:#00799F"/>
			<stop  offset="0.42" style="stop-color:#0094C7"/>
			<stop  offset="0.52" style="stop-color:#00A8E3"/>
			<stop  offset="0.61" style="stop-color:#00B4F4"/>
			<stop  offset="0.67" style="stop-color:#00B8FA"/>
			<stop  offset="0.76" style="stop-color:#00B6F7"/>
			<stop  offset="0.83" style="stop-color:#01AEEC"/>
			<stop  offset="0.9" style="stop-color:#03A2DA"/>
			<stop  offset="0.97" style="stop-color:#0691C1"/>
			<stop  offset="1" style="stop-color:#0788B3"/>
		</linearGradient>
		<path style="fill:url(#SVGID_00000049198107404407312850000012118357486765325975_);" d="M60.4,36.4c7.6,14.4-9.7,21.2-18.8,11.2
			c-3.8-4.8-4.3-7.2-6.6-9.7C24.8,28,10,34.2,2.4,46.6c1-1.2,7.5-8.6,16.9-7.4c7.3,0.9,8.5,10.2,19.2,15.7
			C50.7,61.1,72.6,52.7,60.4,36.4z"/>
		<path class="st7" d="M38.8,54.5C28.1,49,26.9,39.7,19.6,38.8c-9-1.1-15.3,5.5-16.7,7.2l0,0c1.9-2.1,8-7.9,16.4-6.8
			c7.3,0.9,8.5,10.2,19.2,15.7c7.6,3.9,18.8,2.1,23.4-3.7C57.2,56.7,46.2,58.3,38.8,54.5z"/>
		<path class="st8" d="M60.8,36.8c-0.1-0.2-0.2-0.3-0.4-0.5c7.4,14.1-9,20.9-18.2,11.8C51.3,57.5,67.9,50.9,60.8,36.8z"/>
		<path class="st9" d="M99.5,34c-0.1-0.1-0.3-0.1-0.4-0.1c-1.1-0.3-3.7-0.4-4.6,0.3l0,0c-0.1,0.1-0.3,0.3-0.3,0.5
			c-2.5,3.3-4.8,6.7-6.9,10.3l-6.4-10.3l0-0.1c-0.1-0.2-0.2-0.3-0.3-0.5l0,0c-0.7-0.6-3-0.6-4.2-0.4c-0.3,0-0.6,0.1-0.8,0.2
			c-0.5,0.2-0.8,0.7-0.8,1.2v21.7c0,0.4,0.2,1.2,1.5,1.4c0.4,0.1,0.9,0.1,1.3,0.1c0.9,0,2.9,0,2.9-1.5V44.4c0.4,0.7,1.2,2,2.1,3.6
			c1.2,2.3,2,3.7,2.5,4.4l0.2,0.5c0.2,0.3,0.5,0.6,0.8,0.9c0.7,0.4,1.5,0.5,2.3,0.4c0.2-0.1,0.4-0.1,0.5-0.3
			c0.4-0.2,0.7-0.5,0.9-0.9l0.6-1c0.3-0.5,0.9-1.6,1.9-3.5c1-1.9,1.8-3.2,2.3-4.1c0.8-1.3,0,2.3,0,2.5v10.1c0,1.5,1.9,1.5,2.9,1.5
			c0.9,0,2.9,0,2.9-1.5V35.2C100.2,34.7,99.9,34.3,99.5,34z"/>
		<path class="st9" d="M106.5,42.6c-1.9,0-2.1,0.3-2.1,0.7v13.8c0,0.4,0.3,0.7,2.1,0.7s2.1-0.3,2.1-0.7V43.3
			C108.6,43,108.3,42.6,106.5,42.6z"/>
		<path class="st9" d="M106.5,58.7c-0.9,0-2.9,0-2.9-1.5V43.3c0-1.5,1.9-1.5,2.9-1.5c0.9,0,2.9,0,2.9,1.5v13.8
			C109.3,58.7,107.4,58.7,106.5,58.7z M105.2,57c0.9,0.1,1.7,0.1,2.6,0V43.5c-0.9-0.1-1.7-0.1-2.6,0V57z"/>
		<path class="st9" d="M127.5,34.8h-12.1c-1.3,0-1.9,0.2-1.9,0.7v21.7c0,0.4,0.3,0.7,2.1,0.7s2.1-0.3,2.1-0.7v-8.9h8.6
			c0.7,0,1.1-0.8,1.1-1.9c0-1.2-0.4-1.9-1.1-1.9h-8.6v-5.7h9.8c0.7,0,1.1-0.8,1.1-1.9C128.6,35.6,128.2,34.8,127.5,34.8z"/>
		<path class="st9" d="M115.7,58.7c-0.9,0-2.9,0-2.9-1.5V35.5c0-1.4,1.6-1.4,2.7-1.5h12.1c0.9,0,1.9,0.7,1.9,2.7c0,2-1,2.7-1.9,2.7
			h-9v4.1h7.8c0.9,0,1.9,0.7,1.9,2.7c0,2-1,2.7-1.9,2.7h-7.8v8.2C118.5,58.7,116.6,58.7,115.7,58.7z M114.4,57
			c0.9,0.1,1.7,0.1,2.6,0v-9.5h9.4c0.1,0,0.3-0.4,0.3-1.1s-0.2-1.1-0.3-1.1H117v-7.3h10.6c0.1,0,0.3-0.3,0.3-1.1s-0.3-1.1-0.3-1.1
			v-0.8v0.8h-12.1c-0.4,0-0.8,0-1.1,0.1L114.4,57z"/>
		<path class="st9" d="M159,34.8c-1.8,0-2.1,0.4-2.1,0.7v14.3l-9.9-14.6l0-0.1c-0.5-0.5-3-0.4-3.6-0.1c-0.2,0.1-0.4,0.3-0.4,0.5
			v21.6c0,0.2,0,0.7,2.1,0.7c2.1,0,2.1-0.5,2.1-0.7V42.8l9.9,14.6c0.2,0.3,1.1,0.4,1.9,0.4c0.5,0,1.1,0,1.6-0.2
			c0.4-0.1,0.5-0.4,0.5-0.6V35.5C161.1,35.2,160.9,34.8,159,34.8z"/>
		<path class="st9" d="M159,58.7c-1.8,0-2.3-0.4-2.6-0.8L148,45.4v11.7c0,1.5-1.9,1.5-2.9,1.5c-0.9,0-2.9,0-2.9-1.5V35.5
			c0-0.6,0.4-1,0.9-1.2c0.6-0.2,3.6-0.5,4.5,0.3l0.1,0.2l8.4,12.5V35.5c0-1.5,2-1.5,2.9-1.5s2.9,0,2.9,1.5v21.6
			c0,0.6-0.5,1.2-1.1,1.3C160.3,58.6,159.6,58.7,159,58.7z M157.7,56.9c0.4,0.1,0.9,0.2,1.3,0.2c0.5,0,0.9,0,1.3-0.1V35.7
			c-0.9-0.1-1.7-0.1-2.6,0v16.7l-11.3-16.7c-0.9-0.2-1.8-0.2-2.7,0V57c0.9,0.1,1.7,0.1,2.6,0V40.3L157.7,56.9z"/>
		<path class="st9" d="M168.7,34.8c-1.8,0-2.1,0.3-2.1,0.7v21.7c0,0.4,0.3,0.7,2.1,0.7c1.8,0,2.1-0.3,2.1-0.7V35.5
			C170.8,35.1,170.6,34.8,168.7,34.8z"/>
		<path class="st9" d="M168.7,58.7c-0.9,0-2.9,0-2.9-1.5V35.5c0-1.5,1.9-1.5,2.9-1.5c0.9,0,2.9,0,2.9,1.5v21.7
			C171.6,58.7,169.7,58.7,168.7,58.7z M167.4,57c0.9,0.1,1.7,0.1,2.6,0V35.7c-0.4-0.1-0.9-0.1-1.3-0.1c-0.4,0-0.9,0-1.3,0.1V57z"/>
		<path class="st9" d="M135.4,34.8c-1.8,0-2.1,0.3-2.1,0.7v21.7c0,0.4,0.3,0.7,2.1,0.7c1.8,0,2.1-0.3,2.1-0.7V35.5
			C137.5,35.1,137.2,34.8,135.4,34.8z"/>
		<path class="st9" d="M135.4,58.7c-0.9,0-2.9,0-2.9-1.5V35.5c0-1.5,1.9-1.5,2.9-1.5c0.9,0,2.9,0,2.9,1.5v21.7
			C138.2,58.7,136.3,58.7,135.4,58.7z M134.1,57c0.9,0.1,1.7,0.1,2.6,0V35.7c-0.9-0.1-1.7-0.1-2.6,0V57z"/>
		<path class="st9" d="M193.1,34.8h-16.9c-0.4,0-0.7,0.3-0.7,2.1c0,1.8,0.3,2.1,0.7,2.1h6.4v18.2c0,0.4,0.3,0.7,2.1,0.7
			c1.8,0,2.1-0.3,2.1-0.7V39h6.4c0.4,0,0.7-0.3,0.7-2.1C193.8,35.1,193.4,34.8,193.1,34.8z"/>
		<path class="st9" d="M184.6,58.7c-0.9,0-2.9,0-2.9-1.5V39.8h-5.6c-1.5,0-1.5-1.9-1.5-2.9s0-2.9,1.5-2.9h16.9
			c1.5,0,1.5,1.9,1.5,2.9s0,2.9-1.5,2.9h-5.6v17.4C187.5,58.7,185.6,58.7,184.6,58.7z M183.4,57c0.9,0.1,1.7,0.1,2.6,0V38.2h6.9
			c0.1-0.9,0.1-1.7,0-2.6h-16.5c-0.1,0.9-0.1,1.7,0,2.6h6.9V57z"/>
		<path class="st9" d="M217.2,35c-0.8-0.3-3.7-0.3-4.2,0.3l-5.3,8.2l-5.3-8.2c-0.5-0.7-3.4-0.6-4.2-0.4c-0.4,0.1-0.5,0.4-0.5,0.6
			v0.1l7.9,12.3v9c0,0.2,0,0.8,2.1,0.8c2.1,0,2.1-0.6,2.1-0.8v-9l7.9-12.3v-0.1C217.7,35.4,217.6,35.2,217.2,35z"/>
		<path class="st9" d="M207.7,58.7c-0.7,0-2.9,0-2.9-1.6v-8.8l-7.9-12.3v-0.3c0-0.6,0.5-1.2,1.1-1.3c0.8-0.3,4.2-0.5,5.1,0.6l0,0
			l4.6,7.1l4.6-7.2c0.9-1.1,4.4-0.9,5.1-0.6l0,0c0.6,0.2,1,0.7,1,1.3v0.3l-7.9,12.3v8.8C210.6,58.7,208.4,58.7,207.7,58.7z
			 M206.4,56.9c0.9,0.2,1.7,0.2,2.6,0v-9.1l7.8-12.1c-0.8-0.2-2.7-0.1-3.2,0.2l-5.9,9.2l-5.9-9.1c-0.4-0.3-2.3-0.3-3.2-0.2l7.7,12.1
			L206.4,56.9z"/>
		<path class="st9" d="M105.6,34.2h1.5c1.3,0,2.3,1,2.3,2.3v1.6c0,1.3-1,2.3-2.3,2.3h-1.5c-1.3,0-2.3-1-2.3-2.3v-1.6
			C103.3,35.2,104.3,34.2,105.6,34.2z"/>
	</g>
</g>
</svg>
