<svg width="83" height="20" xmlns="http://www.w3.org/2000/svg"><g fill="#F60099" fill-rule="evenodd"><path d="M4.287 10.924v1.525c0 2.123-.009 4.247.007 6.37.004.483-.118.735-.66.72a73.304 73.304 0 0 0-3.037-.003c-.447.006-.598-.18-.597-.622.01-4.74.01-9.48.003-14.22 0-.63.322-1.076.765-1.451 1.251-1.059 3.386-.7 4.187.727 1.096 1.956 2.08 3.971 3.05 5.993.127.263.273.517.414.781.29-.131.167-.358.168-.523.01-2.099.007-4.197.007-6.296 0-.979 0-.98 1.015-.98.765 0 1.534.048 2.295-.014.736-.06.982.158.968.932-.049 2.665-.019 5.332-.019 7.998 0 1.851.003 3.703 0 5.555-.003 1.082-.554 1.929-1.46 2.264-.968.357-1.928.078-2.654-.771-.421-.492-.724-1.058-1.017-1.628-1.092-2.125-2.179-4.254-3.267-6.38l-.168.023M22.214 9.512a2.431 2.431 0 0 0-3.175.823c-.822 1.25-.773 3.041.116 4.25.77 1.045 2.198 1.336 3.459.694.77-.391 1.34-.988 1.776-1.73.67-1.142.473-.998 1.6-.447.641.314 1.273.65 1.91.971.33.166.492.364.308.764-1.551 3.372-4.654 5.631-8.764 4.9a5.603 5.603 0 0 1-2.982-1.545c-2.033-2.006-3.034-4.418-2.257-7.252.812-2.96 2.792-4.885 5.86-5.389 2.215-.364 4.195.345 5.775 2.001.565.592 1 1.283 1.45 1.962.239.36.192.598-.179.853a415.638 415.638 0 0 0-5.7 3.985c-.455.325-.744.354-1.039-.187a16.175 16.175 0 0 0-1.111-1.746c-.313-.432-.205-.7.196-.962.744-.485 1.481-.98 2.214-1.482.194-.133.454-.2.543-.463M37.662 12.694c-.024-1.677-.882-2.657-2.307-2.633-1.37.023-2.459 1.238-2.447 2.73.011 1.46 1.056 2.554 2.428 2.543 1.083-.009 2.527-.828 2.326-2.64m-2.43 7.136c-3.203.394-6.926-3.09-6.892-7.19.03-3.78 3.103-7.196 7.002-7.152 4.19.047 7.001 3.565 6.932 7.46-.08 4.424-3.992 7.19-7.042 6.882M53.019 10.576c0-1.358.016-2.716-.009-4.073-.009-.481.16-.652.635-.642 1.061.021 2.123.026 3.184-.003.531-.014.663.202.66.7-.02 2.469-.015 4.937-.005 7.405.003.796.461 1.332 1.14 1.397.657.062 1.22-.428 1.367-1.192.018-.096.03-.195.034-.294.025-.664.064-1.33.067-1.995.01-1.752.02-3.505-.004-5.257-.007-.556.158-.801.75-.781 1.01.034 2.024.022 3.036.003.504-.009.75.117.744.704-.03 2.592.077 5.187-.036 7.774-.147 3.368-2.478 5.662-5.604 5.514-.912-.043-1.82.006-2.688-.376-2.07-.911-3.247-2.837-3.308-5.257-.03-1.208-.005-2.418-.005-3.627h.042ZM74.137 11.653c0-2.244-.005-4.489 0-6.733.008-2.79 2.126-4.907 4.916-4.92.79-.003 1.579.024 2.367.002.454-.013.682.096.666.612a62.217 62.217 0 0 0-.002 3.18c.01.434-.172.564-.57.551-.517-.016-1.035-.004-1.553 0-.3.002-.595.039-.815.276a.968.968 0 0 0-.227.963c.091.285.428.157.658.162.64.016 1.283.026 1.923.003.454-.017.6.167.59.61a71.935 71.935 0 0 0-.002 3.108c.01.449-.161.622-.606.608-.666-.02-1.334.029-1.997-.015-.561-.038-.72.17-.716.715.023 2.614-.016 5.229.026 7.843.012.744-.186 1.003-.953.95-1.006-.069-2.022-.038-3.032-.007-.498.015-.71-.125-.705-.658.02-2.417.009-4.833.009-7.25h.023M45.605 19.532c-.79 0-1.58-.023-2.368.008-.477.02-.67-.145-.66-.628.02-.937.02-1.875 0-2.812-.01-.444.157-.608.605-.598 1.035.024 2.071.007 3.107.007.173 0 .346.003.518-.005.26-.012.515-.093.589-.356.085-.306-.181-.42-.403-.53-.748-.377-1.51-.726-2.24-1.131-1.66-.92-2.31-2.49-1.947-4.606.241-1.403 1.69-2.738 3.328-2.955 1.617-.215 3.25-.067 4.876-.08.342-.002.493.166.492.498-.002.986-.002 1.972 0 2.959.002.397-.222.485-.574.48-.961-.014-1.923-.004-2.885-.004-.3 0-.65-.018-.728.347-.083.378.275.483.535.601.897.41 1.776.853 2.61 1.38 1.428.9 2.13 2.565 1.75 4.142-.449 1.861-1.723 3.013-3.502 3.202-1.034.11-2.068.084-3.103.08M69.79 7.38c.923-1.098 1.886-1.637 3.154-1.544.495.036.707.17.692.694a59.283 59.283 0 0 0-.002 3.032c.01.452-.115.662-.611.694-1.975.13-2.658.197-2.649 3.029.006 1.824-.021 3.649.017 5.473.014.633-.214.805-.81.785a67.542 67.542 0 0 0-3.328-.006c-.436.007-.615-.138-.614-.597a2117.9 2117.9 0 0 0 0-12.5c-.001-.475.224-.593.632-.59.888.006 1.777.03 2.662-.011.652-.03.988.154.861.863-.025.142-.003.292-.003.677"/></g></svg>