<svg width="49" height="36" viewBox="0 0 49 36" fill="none" xmlns="http://www.w3.org/2000/svg">
<path fill-rule="evenodd" clip-rule="evenodd" d="M8.78026 33.6534C8.78026 32.8821 9.27492 32.2487 10.0843 32.2487C10.8577 32.2487 11.3793 32.8547 11.3793 33.6534C11.3793 34.4521 10.8577 35.0581 10.0843 35.0581C9.27492 35.0581 8.78026 34.4248 8.78026 33.6534ZM12.2607 33.6534V31.459H11.3252V31.9915C11.0284 31.5969 10.5788 31.3488 9.96727 31.3488C8.76212 31.3488 7.81804 32.3131 7.81804 33.6534C7.81804 34.994 8.76212 35.958 9.96727 35.958C10.5788 35.958 11.0284 35.71 11.3252 35.3153V35.8479H12.2607V33.6534ZM43.8444 33.6534C43.8444 32.8821 44.3391 32.2487 45.1485 32.2487C45.9219 32.2487 46.4436 32.8547 46.4436 33.6534C46.4436 34.4521 45.9219 35.0581 45.1485 35.0581C44.3391 35.0581 43.8444 34.4248 43.8444 33.6534ZM48.3711 35.6394V35.7084H48.4334C48.4454 35.709 48.4572 35.7061 48.4675 35.6999C48.476 35.6941 48.4801 35.6853 48.4801 35.6735C48.4804 35.6685 48.4794 35.6635 48.4772 35.659C48.475 35.6545 48.4717 35.6506 48.4675 35.6479C48.4572 35.6417 48.4454 35.6388 48.4334 35.6394H48.3711ZM48.4341 35.591C48.4665 35.591 48.4916 35.5984 48.5096 35.6132C48.5268 35.6279 48.5356 35.648 48.5356 35.6735C48.5359 35.6834 48.5342 35.6932 48.5306 35.7023C48.5269 35.7114 48.5215 35.7196 48.5146 35.7265C48.4979 35.7414 48.4769 35.7505 48.4548 35.7522L48.5377 35.8497H48.4727L48.3959 35.7527H48.3711V35.8497H48.3169V35.591H48.4341ZM48.418 35.9384C48.4457 35.9386 48.4732 35.9331 48.4988 35.9222C48.5245 35.9113 48.5476 35.8953 48.567 35.875C48.5867 35.8548 48.6022 35.8308 48.6128 35.8044C48.6233 35.7781 48.6287 35.7498 48.6286 35.7214C48.6287 35.6639 48.6066 35.6087 48.567 35.5678C48.5475 35.5478 48.5242 35.5319 48.4986 35.5211C48.4731 35.5103 48.4457 35.5048 48.418 35.5049C48.3761 35.5045 48.335 35.5168 48.2999 35.5403C48.2648 35.5637 48.2374 35.5973 48.221 35.6367C48.2102 35.6635 48.2047 35.6923 48.2048 35.7214C48.2047 35.7788 48.2267 35.834 48.2661 35.875C48.2853 35.8944 48.3079 35.91 48.3339 35.9215C48.36 35.9327 48.3882 35.9384 48.418 35.9384ZM48.418 35.4427C48.4564 35.4427 48.4923 35.4501 48.5259 35.4646C48.5923 35.4925 48.6454 35.5458 48.6738 35.6132C48.6882 35.6469 48.6956 35.6831 48.6956 35.7214C48.6956 35.7597 48.6884 35.7956 48.674 35.8293C48.645 35.8963 48.592 35.9493 48.5259 35.9776C48.4919 35.9925 48.4552 36.0001 48.4182 35.9998C48.3813 36.0003 48.3448 35.9932 48.3107 35.9791C48.2765 35.9649 48.2455 35.944 48.2194 35.9175C48.1944 35.8922 48.1743 35.8623 48.1601 35.8293C48.1456 35.7953 48.1383 35.7585 48.1386 35.7214C48.1386 35.6831 48.1458 35.6469 48.1601 35.6132C48.1885 35.5458 48.2415 35.4925 48.3079 35.4646C48.3428 35.4499 48.3802 35.4425 48.418 35.4427ZM47.3249 33.6534V29.6963H46.3896V31.9915C46.093 31.5969 45.6432 31.3488 45.0316 31.3488C43.8265 31.3488 42.8824 32.3131 42.8824 33.6534C42.8824 34.994 43.8265 35.958 45.0316 35.958C45.6432 35.958 46.093 35.71 46.3896 35.3153V35.8479H47.3251L47.3249 33.6534ZM23.8617 32.2027C24.4644 32.2027 24.851 32.5884 24.9499 33.2677H22.7199C22.8186 32.6342 23.1961 32.2027 23.8617 32.2027ZM23.8798 31.3488C22.6208 31.3488 21.7395 32.2854 21.7395 33.6534C21.7395 35.0492 22.6567 35.958 23.9426 35.958C24.5903 35.958 25.1837 35.7927 25.7055 35.3428L25.2467 34.6358C24.8869 34.9296 24.4283 35.095 23.9967 35.095C23.3941 35.095 22.8458 34.8103 22.7106 34.0206H25.9032C25.9121 33.9013 25.9211 33.7821 25.9211 33.6534C25.9121 32.2854 25.0849 31.3488 23.8798 31.3488ZM35.166 33.6534C35.166 32.8821 35.6607 32.2487 36.4703 32.2487C37.2434 32.2487 37.7652 32.8547 37.7652 33.6534C37.7652 34.4521 37.2434 35.0581 36.4703 35.0581C35.6607 35.0581 35.166 34.4248 35.166 33.6534ZM38.6464 33.6534V31.459H37.7112V31.9915C37.4145 31.5969 36.965 31.3488 36.353 31.3488C35.1483 31.3488 34.204 32.3131 34.204 33.6534C34.204 34.994 35.1481 35.958 36.3532 35.958C36.9649 35.958 37.4145 35.71 37.7112 35.3153V35.8479H38.6466L38.6464 33.6534ZM29.8872 33.6534C29.8872 34.9848 30.7954 35.958 32.1805 35.958C32.8279 35.958 33.2596 35.811 33.7271 35.4345L33.2777 34.6633C32.9268 34.9207 32.5582 35.0581 32.1537 35.0581C31.4071 35.0492 30.8584 34.4981 30.8584 33.6534C30.8584 32.8087 31.4071 32.2579 32.1535 32.2487C32.5582 32.2487 32.9268 32.3864 33.2777 32.6436L33.7271 31.8722C33.2596 31.4957 32.8279 31.3488 32.1805 31.3488C30.7954 31.3488 29.8872 32.322 29.8872 33.6534ZM41.938 31.3488C41.3984 31.3488 41.0476 31.606 40.805 31.9915V31.459H39.8785V35.8479H40.814V33.3871C40.814 32.6619 41.1196 32.2579 41.7311 32.2579C41.92 32.2579 42.1179 32.2854 42.3156 32.3681L42.6036 31.4684C42.3967 31.3855 42.1269 31.3488 41.938 31.3488ZM16.883 31.808C16.4333 31.505 15.8129 31.3488 15.1294 31.3488C14.0413 31.3488 13.3398 31.8814 13.3398 32.7536C13.3398 33.4699 13.8614 33.9106 14.8236 34.0483L15.2642 34.1124C15.7768 34.186 16.0196 34.3236 16.0196 34.5715C16.0196 34.9113 15.6779 35.1042 15.0394 35.1042C14.3919 35.1042 13.9244 34.8928 13.6095 34.6451L13.1688 35.3887C13.6815 35.7743 14.3289 35.958 15.0308 35.958C16.2715 35.958 16.991 35.3612 16.991 34.5256C16.991 33.7544 16.4243 33.3504 15.489 33.2128L15.0484 33.1484C14.6437 33.0934 14.3201 33.0107 14.3201 32.7171C14.3201 32.3955 14.6257 32.2027 15.1383 32.2027C15.6871 32.2027 16.2176 32.4141 16.4783 32.5792L16.883 31.808ZM28.9428 31.3488C28.4032 31.3488 28.0526 31.606 27.8098 31.9915V31.459H26.8833V35.8479H27.8188V33.3871C27.8188 32.6619 28.1244 32.2579 28.7363 32.2579C28.9248 32.2579 29.1229 32.2854 29.3206 32.3681L29.6084 31.4684C29.4015 31.3855 29.1317 31.3488 28.9428 31.3488ZM20.9659 31.459H19.4372V30.1278H18.4929V31.459H17.6205V32.3314H18.4931V34.333C18.4931 35.352 18.8795 35.958 19.9857 35.958C20.3904 35.958 20.8579 35.8295 21.1547 35.6182L20.8851 34.8011C20.6062 34.9665 20.3004 35.0492 20.0577 35.0492C19.59 35.0492 19.4372 34.7551 19.4372 34.3145V32.3314H20.9659V31.459ZM6.99067 35.8479V33.0934C6.99067 32.0559 6.34303 31.3582 5.29984 31.3488C4.75131 31.3397 4.18482 31.5142 3.78909 32.1294C3.4923 31.6427 3.02456 31.3488 2.36812 31.3488C1.90937 31.3488 1.45977 31.4865 1.10911 32.0007V31.459H0.173828V35.8479H1.11827V33.4148C1.11827 32.6527 1.53178 32.2487 2.17044 32.2487C2.79079 32.2487 3.10554 32.6619 3.10554 33.4056V35.8479H4.04998V33.4148C4.04998 32.6527 4.48162 32.2487 5.10215 32.2487C5.74045 32.2487 6.04623 32.6619 6.04623 33.4056V35.8479H6.99067Z" fill="white"/>
<path fill-rule="evenodd" clip-rule="evenodd" d="M18.9565 23.1513H29.9131V3.45312H18.9565V23.1513Z" fill="#FF5F00"/>
<path fill-rule="evenodd" clip-rule="evenodd" d="M19.6308 13.304C19.6308 9.30954 21.5093 5.75267 24.4344 3.45946C22.2203 1.72121 19.4817 0.7779 16.6621 0.782241C9.71702 0.782241 4.08691 6.3885 4.08691 13.304C4.08691 20.2194 9.71702 25.8257 16.6624 25.8257C19.4821 25.83 22.2206 24.8867 24.4347 23.1485C21.5096 20.8556 19.6308 17.298 19.6308 13.304Z" fill="#EB001B"/>
<path fill-rule="evenodd" clip-rule="evenodd" d="M44.7826 13.304C44.7826 20.2194 39.1519 25.8257 32.2066 25.8257C29.3872 25.83 26.6488 24.8867 24.4348 23.1485C27.3599 20.8556 29.2383 17.298 29.2383 13.304C29.2383 9.30954 27.3599 5.75267 24.4348 3.45946C26.6489 1.72117 29.3874 0.777846 32.207 0.782242C39.1523 0.782242 44.7826 6.3885 44.7826 13.304Z" fill="#F79E1B"/>
</svg>
