<svg width="183" height="32" viewBox="0 0 183 32" fill="none" xmlns="http://www.w3.org/2000/svg">
<path fill-rule="evenodd" clip-rule="evenodd" d="M25.631 13.856C25.6335 13.8514 25.6361 13.8466 25.6386 13.8419C25.7937 13.5593 25.9035 13.1491 25.9035 12.7244C25.9035 11.9541 25.5901 11.314 25.1774 11.1841C26.0128 11.2974 26.1555 13.1121 25.7372 13.842C26.9289 13.8434 26.9932 13.8758 27.9448 14.0929C27.3277 14.9953 27.2545 15.6211 26.5013 16.0355C26.4673 16.0543 26.4337 16.0628 26.3946 16.0628H25.5938L25.594 16.1428C25.5943 16.2602 25.6921 16.3558 25.812 16.3558C26.3105 16.3555 26.8046 16.3531 27.3019 16.3516C27.3841 16.3514 27.4544 16.3099 27.4933 16.2391C27.9609 15.3855 28.1223 15.2512 28.897 14.5235C29.6673 13.8 29.9892 13.7735 30.842 13.1662C33.2099 11.4801 31.7001 11.3378 35.3998 11.3329C35.4613 11.3329 35.5144 11.3107 35.5571 11.2671C35.5997 11.2235 35.62 11.1707 35.6174 11.1104C35.5858 10.3742 35.5203 10.8994 34.3767 9.7655C33.8205 9.21407 34.011 9.02207 33.3257 8.57259C33.5001 7.83926 33.7731 7.41067 34.0944 6.81605C32.7884 7.15763 33.5204 7.37948 32.5571 8.07076C32.1437 7.30588 32.2345 7.06919 31.5321 6.56519C31.5578 7.69697 31.8226 7.89085 32.0445 8.82345C31.8462 8.96585 30.8125 10.8004 28.4571 9.32604C27.8101 8.92106 27.7416 8.72207 26.9305 8.31114C19.0412 4.31419 18.5018 13.1977 9.51872 12.9951C7.61329 12.9521 5.1133 10.993 4.11852 9.19281C3.88329 8.76704 3.49502 7.43108 3.49512 7.43693C3.67854 13.7908 9.25425 17.4286 18.2079 13.3402C18.3366 14.8547 19.6726 15.2896 21.0265 15.5984C21.0265 19.9526 16.8102 18.1848 21.0656 22.028C22.7062 23.5103 22.4154 24.602 23.3325 25.6354C23.3325 23.6117 23.1653 23.1241 22.3909 22.028C22.0591 21.5584 21.6158 20.9769 21.0265 20.1151C22.5845 17.8366 22.6448 19.38 25.631 13.856Z" fill="white" fill-opacity="0.65"/>
<path d="M65.4739 13.2867L64.6146 13.9327C64.1419 13.3288 63.5733 12.871 62.9085 12.5591C62.2464 12.2471 61.5185 12.0912 60.7222 12.0912C59.8553 12.0912 59.0516 12.2967 58.311 12.7051C57.5705 13.1135 56.9993 13.663 56.5923 14.351C56.1854 15.0392 55.9807 15.8163 55.9807 16.6752C55.9807 17.9771 56.4356 19.0637 57.3456 19.9324C58.2555 20.8037 59.4029 21.2393 60.7906 21.2393C62.3146 21.2393 63.5885 20.6552 64.6146 19.4869L65.4739 20.1256C64.9305 20.8013 64.2532 21.3259 63.4418 21.6947C62.6306 22.0635 61.7232 22.2492 60.7222 22.2492C58.8165 22.2492 57.3127 21.6279 56.2132 20.3854C55.2907 19.3385 54.8281 18.0712 54.8281 16.5886C54.8281 15.0293 55.3867 13.7149 56.5039 12.6506C57.6236 11.5838 59.0238 11.0517 60.7071 11.0517C61.7232 11.0517 62.6406 11.2473 63.4596 11.6383C64.2785 12.0318 64.9508 12.5814 65.4739 13.2867ZM74.6735 14.0961V21.9819H73.6424V20.6255C73.2076 21.1428 72.7224 21.5314 72.1815 21.7888C71.6431 22.0462 71.0517 22.1749 70.4122 22.1749C69.2749 22.1749 68.3017 21.7715 67.4955 20.9646C66.6892 20.1552 66.2873 19.1751 66.2873 18.0167C66.2873 16.8856 66.6942 15.9154 67.5081 15.1109C68.3195 14.3065 69.2975 13.9031 70.4426 13.9031C71.1022 13.9031 71.6987 14.0392 72.2345 14.3114C72.7678 14.5837 73.238 14.9946 73.6424 15.5466V14.0961H74.6735ZM70.5234 14.8832C69.9471 14.8832 69.4138 15.0218 68.9286 15.299C68.4407 15.5738 68.054 15.9623 67.7659 16.4624C67.4778 16.9623 67.3337 17.492 67.3337 18.0514C67.3337 18.6034 67.4778 19.133 67.7684 19.6379C68.0591 20.1429 68.4484 20.5364 68.9387 20.8161C69.429 21.0982 69.9547 21.2393 70.5158 21.2393C71.0795 21.2393 71.6178 21.1008 72.1234 20.821C72.6314 20.5413 73.0206 20.1652 73.2936 19.6874C73.5665 19.2122 73.7031 18.6751 73.7031 18.0786C73.7031 17.1703 73.3972 16.4104 72.783 15.799C72.1713 15.1876 71.4181 14.8832 70.5234 14.8832ZM80.2361 14.9525L79.5688 15.6258C79.0153 15.101 78.4719 14.8387 77.9437 14.8387C77.6075 14.8387 77.3194 14.9475 77.0792 15.1654C76.8392 15.3807 76.7178 15.6357 76.7178 15.9252C76.7178 16.1802 76.8164 16.4252 77.0135 16.6554C77.2107 16.893 77.6277 17.1703 78.2596 17.4895C79.028 17.8781 79.5511 18.2568 79.8291 18.6182C80.0996 18.9845 80.2361 19.3978 80.2361 19.8557C80.2361 20.5042 80.0036 21.0513 79.5385 21.5017C79.0734 21.9497 78.4921 22.1749 77.7945 22.1749C77.3294 22.1749 76.8871 22.0759 76.4625 21.8779C76.0405 21.6799 75.6917 21.4077 75.4136 21.0586L76.0657 20.3334C76.594 20.9176 77.1576 21.2096 77.7516 21.2096C78.1661 21.2096 78.5199 21.0785 78.8131 20.8185C79.1037 20.5587 79.2504 20.2518 79.2504 19.9003C79.2504 19.6107 79.1543 19.3533 78.9622 19.1256C78.7676 18.9028 78.3329 18.6231 77.6556 18.2865C76.9276 17.9202 76.4322 17.5588 76.1719 17.2024C75.909 16.846 75.7776 16.4401 75.7776 15.9822C75.7776 15.3857 75.9874 14.8906 76.4044 14.4946C76.8239 14.1011 77.3522 13.9031 77.9917 13.9031C78.7348 13.9031 79.4829 14.252 80.2361 14.9525ZM81.5803 10.8586C81.8153 10.8586 82.0149 10.9403 82.1818 11.1061C82.3486 11.2695 82.4321 11.47 82.4321 11.7002C82.4321 11.9279 82.3486 12.1259 82.1818 12.2893C82.0149 12.4551 81.8153 12.5368 81.5803 12.5368C81.3477 12.5368 81.1506 12.4551 80.9838 12.2893C80.817 12.1259 80.7336 11.9279 80.7336 11.7002C80.7336 11.47 80.817 11.2695 80.9838 11.1061C81.1506 10.9403 81.3477 10.8586 81.5803 10.8586ZM81.0672 14.0961H82.0984V21.9819H81.0672V14.0961ZM83.4147 14.0961H84.4459V15.5094C84.863 14.9698 85.3229 14.5664 85.8259 14.3015C86.3314 14.0368 86.8799 13.9031 87.4738 13.9031C88.0779 13.9031 88.6137 14.0516 89.0814 14.351C89.549 14.6505 89.8952 15.054 90.1177 15.5614C90.3401 16.0664 90.4512 16.8559 90.4512 17.9276V21.9819H89.4201V18.2247C89.4201 17.3187 89.3796 16.7123 89.3013 16.4078C89.1749 15.8882 88.9423 15.4971 88.6011 15.2322C88.2599 14.9698 87.8151 14.8387 87.2666 14.8387C86.6373 14.8387 86.0736 15.0416 85.5782 15.4476C85.0803 15.851 84.7517 16.3534 84.595 16.9524C84.4965 17.3435 84.4459 18.0563 84.4459 19.0934V21.9819H83.4147V14.0961ZM95.6422 13.9031C96.8832 13.9031 97.9144 14.3412 98.7308 15.2198C99.4739 16.0193 99.8454 16.9673 99.8454 18.0613C99.8454 19.1603 99.4537 20.1206 98.6677 20.9423C97.8841 21.7641 96.8731 22.1749 95.6422 22.1749C94.4037 22.1749 93.3902 21.7641 92.6066 20.9423C91.8207 20.1206 91.4289 19.1603 91.4289 18.0613C91.4289 16.9722 91.8004 16.0267 92.5435 15.2272C93.3599 14.3436 94.3936 13.9031 95.6422 13.9031ZM95.6372 14.898C94.7753 14.898 94.0373 15.2075 93.418 15.8287C92.7987 16.45 92.4905 17.2024 92.4905 18.0836C92.4905 18.6503 92.6319 19.18 92.9125 19.6726C93.1956 20.1627 93.5772 20.5413 94.0575 20.8086C94.5351 21.076 95.0634 21.2096 95.6372 21.2096C96.2109 21.2096 96.7392 21.076 97.2168 20.8086C97.6971 20.5413 98.0787 20.1627 98.3618 19.6726C98.6424 19.18 98.7838 18.6503 98.7838 18.0836C98.7838 17.2024 98.473 16.45 97.8512 15.8287C97.232 15.2075 96.494 14.898 95.6372 14.898ZM104.978 14.9525L104.311 15.6258C103.758 15.101 103.214 14.8387 102.686 14.8387C102.35 14.8387 102.062 14.9475 101.821 15.1654C101.581 15.3807 101.46 15.6357 101.46 15.9252C101.46 16.1802 101.559 16.4252 101.756 16.6554C101.953 16.893 102.37 17.1703 103.002 17.4895C103.77 17.8781 104.293 18.2568 104.571 18.6182C104.842 18.9845 104.978 19.3978 104.978 19.8557C104.978 20.5042 104.746 21.0513 104.281 21.5017C103.816 21.9497 103.234 22.1749 102.537 22.1749C102.072 22.1749 101.629 22.0759 101.205 21.8779C100.783 21.6799 100.434 21.4077 100.156 21.0586L100.808 20.3334C101.336 20.9176 101.9 21.2096 102.494 21.2096C102.908 21.2096 103.262 21.0785 103.555 20.8185C103.846 20.5587 103.993 20.2518 103.993 19.9003C103.993 19.6107 103.897 19.3533 103.704 19.1256C103.51 18.9028 103.075 18.6231 102.398 18.2865C101.67 17.9202 101.174 17.5588 100.914 17.2024C100.651 16.846 100.52 16.4401 100.52 15.9822C100.52 15.3857 100.73 14.8906 101.147 14.4946C101.566 14.1011 102.094 13.9031 102.734 13.9031C103.477 13.9031 104.225 14.252 104.978 14.9525Z" fill="white" fill-opacity="0.65"/>
<path d="M41.0311 11.319L46.1113 21.9819H44.9411L43.2402 18.4771H38.5213L36.8304 21.9819H35.6172L40.7581 11.319H41.0311ZM40.8947 13.5566L39.0217 17.4376H42.7599L40.8947 13.5566ZM46.6466 14.0961H47.6779V17.7766C47.6779 18.6751 47.7285 19.2914 47.8271 19.6305C47.9736 20.1132 48.2592 20.4944 48.6763 20.774C49.0933 21.0537 49.5937 21.1948 50.1726 21.1948C50.7513 21.1948 51.2417 21.0586 51.646 20.7864C52.048 20.5116 52.3285 20.1552 52.4802 19.7097C52.5838 19.4053 52.6369 18.7617 52.6369 17.7766V14.0961H53.6984V17.9623C53.6984 19.0489 53.5695 19.8656 53.3092 20.4151C53.0514 20.9671 52.6596 21.3978 52.139 21.7071C51.6182 22.019 50.9662 22.1749 50.1801 22.1749C49.3941 22.1749 48.7395 22.019 48.2137 21.7071C47.688 21.3978 47.2937 20.9622 47.036 20.4053C46.7755 19.8483 46.6466 19.0093 46.6466 17.8905V14.0961ZM111.319 11.0517C112.967 11.0517 114.347 11.5913 115.456 12.668C116.566 13.7446 117.122 15.0713 117.122 16.6455C117.122 18.2073 116.569 19.5315 115.462 20.618C114.352 21.7047 113.002 22.2492 111.407 22.2492C109.795 22.2492 108.433 21.7071 107.323 20.6255C106.213 19.5439 105.657 18.2346 105.657 16.6974C105.657 15.6728 105.91 14.7248 106.416 13.8486C106.921 12.9749 107.611 12.2893 108.486 11.7943C109.358 11.2992 110.303 11.0517 111.319 11.0517ZM111.367 12.0912C110.563 12.0912 109.8 12.2967 109.077 12.7076C108.357 13.1184 107.793 13.6704 107.386 14.3659C106.982 15.0639 106.78 15.8386 106.78 16.695C106.78 17.9598 107.227 19.029 108.124 19.9003C109.021 20.774 110.103 21.2096 111.367 21.2096C112.214 21.2096 112.995 21.0091 113.713 20.6082C114.433 20.2072 114.994 19.6578 115.396 18.9622C115.798 18.2667 116 17.4945 116 16.643C116 15.7965 115.798 15.0317 115.396 14.3486C114.994 13.6654 114.425 13.1184 113.695 12.7076C112.964 12.2967 112.188 12.0912 111.367 12.0912ZM118.302 14.0961H119.333V15.5094C119.75 14.9698 120.21 14.5664 120.713 14.3015C121.219 14.0368 121.767 13.9031 122.361 13.9031C122.965 13.9031 123.501 14.0516 123.969 14.351C124.436 14.6505 124.782 15.054 125.005 15.5614C125.227 16.0664 125.338 16.8559 125.338 17.9276V21.9819H124.307V18.2247C124.307 17.3187 124.267 16.7123 124.189 16.4078C124.062 15.8882 123.83 15.4971 123.488 15.2322C123.147 14.9698 122.702 14.8387 122.154 14.8387C121.524 14.8387 120.961 15.0416 120.465 15.4476C119.968 15.851 119.639 16.3534 119.482 16.9524C119.384 17.3435 119.333 18.0563 119.333 19.0934V21.9819H118.302V14.0961ZM126.559 11.0517H127.59V21.9819H126.559V11.0517ZM129.268 10.8586C129.503 10.8586 129.702 10.9403 129.869 11.1061C130.036 11.2695 130.119 11.47 130.119 11.7002C130.119 11.9279 130.036 12.1259 129.869 12.2893C129.702 12.4551 129.503 12.5368 129.268 12.5368C129.035 12.5368 128.838 12.4551 128.671 12.2893C128.504 12.1259 128.421 11.9279 128.421 11.7002C128.421 11.47 128.504 11.2695 128.671 11.1061C128.838 10.9403 129.035 10.8586 129.268 10.8586ZM128.755 14.0961H129.786V21.9819H128.755V14.0961ZM131.102 14.0961H132.133V15.5094C132.55 14.9698 133.01 14.5664 133.513 14.3015C134.019 14.0368 134.567 13.9031 135.161 13.9031C135.765 13.9031 136.301 14.0516 136.769 14.351C137.236 14.6505 137.583 15.054 137.805 15.5614C138.027 16.0664 138.139 16.8559 138.139 17.9276V21.9819H137.107V18.2247C137.107 17.3187 137.067 16.7123 136.989 16.4078C136.862 15.8882 136.63 15.4971 136.288 15.2322C135.947 14.9698 135.502 14.8387 134.954 14.8387C134.325 14.8387 133.761 15.0416 133.266 15.4476C132.768 15.851 132.439 16.3534 132.282 16.9524C132.184 17.3435 132.133 18.0563 132.133 19.0934V21.9819H131.102V14.0961ZM146.31 19.3682L147.184 19.8186C146.896 20.3657 146.565 20.8086 146.188 21.1453C145.812 21.4794 145.39 21.7369 144.919 21.9126C144.447 22.0883 143.916 22.1749 143.322 22.1749C142.003 22.1749 140.974 21.7542 140.231 20.9127C139.488 20.0711 139.116 19.1206 139.116 18.0613C139.116 17.0638 139.432 16.1728 140.062 15.393C140.858 14.4005 141.927 13.9031 143.264 13.9031C144.641 13.9031 145.743 14.4129 146.565 15.4302C147.149 16.148 147.447 17.044 147.457 18.1207H140.178C140.198 19.034 140.499 19.7814 141.078 20.3631C141.659 20.9472 142.377 21.2393 143.229 21.2393C143.641 21.2393 144.042 21.17 144.432 21.0314C144.821 20.8928 145.152 20.7097 145.425 20.4795C145.698 20.2493 145.994 19.8805 146.31 19.3682ZM146.32 17.2444C146.181 16.7025 145.978 16.2718 145.713 15.9475C145.445 15.6233 145.094 15.3634 144.657 15.1654C144.219 14.9674 143.759 14.8683 143.279 14.8683C142.483 14.8683 141.801 15.1159 141.229 15.6134C140.81 15.9773 140.496 16.5192 140.282 17.2444H146.32ZM149.663 20.378C149.916 20.378 150.128 20.4646 150.308 20.6379C150.484 20.8136 150.573 21.024 150.573 21.2764C150.573 21.524 150.484 21.7343 150.308 21.9101C150.128 22.0858 149.916 22.1749 149.663 22.1749C149.413 22.1749 149.198 22.0858 149.019 21.9101C148.842 21.7343 148.753 21.524 148.753 21.2764C148.753 21.024 148.842 20.8136 149.019 20.6379C149.198 20.4646 149.413 20.378 149.663 20.378ZM159.709 15.7346L158.888 16.2346C158.175 15.3139 157.202 14.8535 155.969 14.8535C154.983 14.8535 154.164 15.1629 153.512 15.7792C152.862 16.3956 152.536 17.143 152.536 18.0242C152.536 18.5984 152.685 19.138 152.986 19.6429C153.284 20.1478 153.696 20.5413 154.22 20.821C154.74 21.1008 155.327 21.2393 155.976 21.2393C157.164 21.2393 158.135 20.779 158.888 19.8583L159.709 20.3879C159.323 20.9547 158.804 21.3928 158.155 21.7071C157.503 22.019 156.762 22.1749 155.931 22.1749C154.652 22.1749 153.593 21.7789 152.751 20.9894C151.909 20.1973 151.49 19.237 151.49 18.1033C151.49 17.3435 151.687 16.6356 152.081 15.9822C152.473 15.3287 153.014 14.8188 153.701 14.4525C154.392 14.0862 155.16 13.9031 156.012 13.9031C156.547 13.9031 157.063 13.9822 157.561 14.1407C158.056 14.2991 158.478 14.507 158.825 14.7619C159.174 15.0169 159.467 15.3411 159.709 15.7346ZM164.675 13.9031C165.916 13.9031 166.948 14.3412 167.764 15.2198C168.507 16.0193 168.879 16.9673 168.879 18.0613C168.879 19.1603 168.487 20.1206 167.701 20.9423C166.917 21.7641 165.906 22.1749 164.675 22.1749C163.437 22.1749 162.423 21.7641 161.64 20.9423C160.854 20.1206 160.462 19.1603 160.462 18.0613C160.462 16.9722 160.834 16.0267 161.577 15.2272C162.393 14.3436 163.427 13.9031 164.675 13.9031ZM164.67 14.898C163.808 14.898 163.07 15.2075 162.451 15.8287C161.832 16.45 161.524 17.2024 161.524 18.0836C161.524 18.6503 161.665 19.18 161.946 19.6726C162.229 20.1627 162.61 20.5413 163.091 20.8086C163.568 21.076 164.097 21.2096 164.67 21.2096C165.244 21.2096 165.772 21.076 166.25 20.8086C166.73 20.5413 167.112 20.1627 167.395 19.6726C167.676 19.18 167.817 18.6503 167.817 18.0836C167.817 17.2024 167.506 16.45 166.884 15.8287C166.265 15.2075 165.527 14.898 164.67 14.898ZM169.947 14.0961H170.979V15.4599C171.34 14.9574 171.709 14.5887 172.091 14.356C172.614 14.054 173.165 13.9031 173.741 13.9031C174.133 13.9031 174.502 13.9773 174.853 14.1283C175.204 14.2768 175.49 14.4773 175.712 14.7248C175.935 14.9747 176.127 15.3312 176.291 15.7965C176.635 15.1777 177.067 14.7074 177.583 14.3857C178.101 14.064 178.657 13.9031 179.254 13.9031C179.81 13.9031 180.302 14.0417 180.727 14.3164C181.154 14.5911 181.47 14.9747 181.677 15.4673C181.885 15.9599 181.988 16.6974 181.988 17.6826V21.9819H180.927V17.6801C180.927 16.8336 180.866 16.2544 180.742 15.9376C180.618 15.6208 180.409 15.3658 180.11 15.1728C179.812 14.9797 179.458 14.8832 179.044 14.8832C178.543 14.8832 178.083 15.0293 177.669 15.3189C177.252 15.6084 176.948 15.9945 176.756 16.4772C176.564 16.9598 176.468 17.7668 176.468 18.8954V21.9819H175.437V17.9474C175.437 16.997 175.376 16.351 175.255 16.0094C175.134 15.6678 174.924 15.3956 174.623 15.1901C174.32 14.9847 173.963 14.8832 173.549 14.8832C173.069 14.8832 172.621 15.0242 172.204 15.3065C171.787 15.5886 171.479 15.9698 171.279 16.4475C171.08 16.9252 170.979 17.6578 170.979 18.643V21.9819H169.947V14.0961Z" fill="white" fill-opacity="0.65"/>
</svg>
