<svg width="42" height="42" viewBox="0 0 42 42" fill="none" xmlns="http://www.w3.org/2000/svg">
<g id="Group 513180">
<path id="Subtract" fill-rule="evenodd" clip-rule="evenodd" d="M17.4369 0.566742C17.0324 0.258332 16.4966 0.367411 16.2462 0.810358L15.9975 1.24915C15.7472 1.6921 15.176 1.85677 14.7282 1.61555L14.2845 1.37547C13.8367 1.13371 13.3247 1.32526 13.1464 1.80241L12.9696 2.27577C12.7914 2.7523 12.253 3.00326 11.773 2.83522L11.2969 2.66771C10.8165 2.49879 10.3414 2.76866 10.2399 3.26764L10.1392 3.76292C10.0378 4.26085 9.54499 4.59339 9.04432 4.50252L8.54851 4.41112C8.04776 4.32016 7.62052 4.66057 7.59807 5.1691L7.57614 5.67234C7.55387 6.18131 7.11967 6.58713 6.61079 6.57432L6.10667 6.56274C5.59787 6.55124 5.229 6.95415 5.28672 7.46012L5.344 7.96241C5.40155 8.46768 5.03594 8.93697 4.53183 9.00432L4.03143 9.07009C3.5274 9.13851 3.22606 9.59524 3.36237 10.085L3.4969 10.5704C3.63303 11.0615 3.34522 11.5824 2.85772 11.7275L2.37464 11.8721C1.88706 12.0172 1.66112 12.5153 1.87194 12.9783L2.08153 13.4376C2.29208 13.9004 2.0893 14.4587 1.63054 14.6794L1.17619 14.8984C0.717418 15.1189 0.572097 15.6458 0.85275 16.0695L1.13102 16.4902C1.41202 16.9141 1.29879 17.4991 0.880506 17.7874L0.465404 18.0738C0.0467664 18.3633 -0.0145796 18.9069 0.329188 19.2817L0.670038 19.6538C1.01407 20.0286 0.993916 20.6233 0.625664 20.9751L0.260947 21.3227C-0.107217 21.6734 -0.0828203 22.22 0.315221 22.5366L0.709727 22.8502C1.10795 23.167 1.18114 23.7578 0.872197 24.1625L0.566351 24.5631C0.257411 24.9675 0.367374 25.5034 0.809878 25.7542L1.24911 26.0025C1.69162 26.2531 1.85656 26.8242 1.61498 27.2721L1.37552 27.7155C1.13376 28.1634 1.32602 28.6747 1.80273 28.8534L2.27476 29.0301C2.75147 29.208 3.00357 29.747 2.83465 30.2268L2.66741 30.7027C2.49893 31.1824 2.76853 31.6592 3.26681 31.761L3.76156 31.8604C4.25984 31.9617 4.59353 32.4536 4.50133 32.9543L4.41144 33.4504C4.31959 33.9506 4.66036 34.3791 5.16889 34.4008L5.67265 34.4237C6.18048 34.4457 6.58674 34.8797 6.57507 35.3887L6.56323 35.892C6.55068 36.4013 6.95455 36.7704 7.46026 36.7133L7.96131 36.6554C8.46693 36.5986 8.93586 36.964 9.00331 37.4683L9.07013 37.9682C9.13766 38.4717 9.59422 38.7736 10.0849 38.6364L10.5708 38.502C11.0611 38.3667 11.5815 38.6542 11.7273 39.1415L11.8718 39.6256C12.0171 40.1124 12.5157 40.339 12.9784 40.1279L13.4375 39.9193C13.9003 39.7079 14.4594 39.9104 14.6793 40.369L14.8975 40.8238C15.1171 41.2821 15.6447 41.4284 16.0689 41.1467L16.4903 40.8683C16.9142 40.5877 17.4979 40.7006 17.7867 41.1191L18.0739 41.5349C18.3627 41.9535 18.9065 42.0142 19.2818 41.6698L19.6538 41.3294C20.0288 40.9862 20.6229 41.006 20.9735 41.374L21.3223 41.739C21.6733 42.1073 22.2197 42.0824 22.5364 41.6844L22.8504 41.2901C23.1672 40.8919 23.7573 40.8184 24.1617 41.1265L24.5627 41.4338C24.9665 41.7425 25.5029 41.6328 25.7529 41.19L26.0015 40.7506C26.252 40.308 26.8233 40.143 27.2709 40.3847L27.7146 40.6251C28.1623 40.8662 28.6747 40.6747 28.8527 40.1974L29.0295 39.7251C29.2079 39.2479 29.7461 38.9968 30.2264 39.165L30.7025 39.3321C31.1822 39.5014 31.6577 39.2311 31.7593 38.7318L31.8595 38.2374C31.961 37.7389 32.4539 37.4069 32.9547 37.4973L33.4505 37.5885C33.9512 37.6796 34.3783 37.339 34.4012 36.8306L34.4228 36.3276C34.445 35.8185 34.8796 35.4127 35.388 35.4256L35.8926 35.4372C36.4009 35.4489 36.7698 35.0458 36.7122 34.5401L36.655 34.0375C36.5974 33.5322 36.9632 33.0631 37.4672 32.9956L37.9674 32.93C38.4717 32.8617 38.7725 32.4055 38.6369 31.915L38.5017 31.4297C38.3661 30.9382 38.6536 30.4185 39.1412 30.2728L39.6245 30.1284C40.112 29.9829 40.3379 29.4848 40.1271 29.0218L39.9181 28.5626C39.7072 28.0993 39.9096 27.5413 40.3688 27.3202L40.8232 27.1018C41.2818 26.8812 41.427 26.3543 41.1463 25.9305L40.8683 25.5099C40.5873 25.0862 40.6998 24.5013 41.1186 24.2125L41.5336 23.9262C41.9521 23.6368 42.014 23.0929 41.6699 22.7184L41.3288 22.3466C40.9851 21.9715 41.005 21.377 41.3734 21.025L41.738 20.6776C42.1064 20.3269 42.0814 19.7808 41.684 19.464L41.2891 19.1497C40.891 18.8333 40.8178 18.2427 41.1269 17.8378L41.433 17.4369C41.7416 17.033 41.6318 16.4966 41.1893 16.2459L40.75 15.9979C40.3073 15.7467 40.1426 15.1765 40.384 14.728L40.6235 14.2848C40.8655 13.8367 40.6732 13.3251 40.1966 13.147L39.7241 12.9702C39.2474 12.7925 38.9954 12.2533 39.1644 11.7731L39.3317 11.2975C39.5002 10.8177 39.2305 10.3414 38.732 10.2391L38.2374 10.1393C37.7388 10.038 37.4054 9.54654 37.4973 9.04605L37.5878 8.5498C37.6792 8.04992 37.3385 7.62109 36.8302 7.59943L36.3264 7.57689C35.8185 7.5547 35.4126 7.12015 35.4243 6.61179L35.4358 6.10812C35.4483 5.59888 35.0447 5.2301 34.539 5.28729L34.0378 5.34439C33.5321 5.40176 33.0636 5.03607 32.9959 4.53204L32.9289 4.03217C32.8614 3.52823 32.4049 3.22681 31.9145 3.36355L31.4283 3.49791C30.9383 3.63351 30.4182 3.34596 30.2721 2.85873L30.1274 2.37512C29.9819 1.88771 29.4835 1.66169 29.021 1.87233L28.5615 2.08094C28.099 2.29212 27.54 2.08987 27.3201 1.63119L27.1019 1.17675C26.882 0.71825 26.3544 0.572045 25.9302 0.852964L25.5094 1.1315C25.0851 1.41259 24.5014 1.30024 24.2125 0.88125L23.9253 0.465353C23.6365 0.047334 23.0926 -0.0133932 22.7175 0.330639L22.3454 0.670782C21.9704 1.0142 21.3762 0.994572 21.0255 0.626585L20.677 0.261073C20.3257 -0.106473 19.7795 -0.0825179 19.4631 0.315877L19.1485 0.710295C18.8322 1.10896 18.242 1.18197 17.8378 0.874002L17.4369 0.566742ZM18.1656 2.43433C28.4696 0.820265 38.1311 7.86406 39.7456 18.1681C41.3597 28.4719 34.3154 38.1337 24.0121 39.7482C13.7081 41.3624 4.04664 34.3186 2.43196 24.0145C0.817547 13.7115 7.86223 4.04989 18.1656 2.43433ZM24.0663 40.0941C34.5606 38.4495 41.7354 28.6087 40.0914 18.1139C38.447 7.61889 28.6064 0.444542 18.1114 2.08853L18.1114 2.08853C7.61709 3.73403 0.441809 13.5746 2.08616 24.0686C3.73077 34.5638 13.5713 41.7381 24.0663 40.0941L24.0392 39.9212L24.0663 40.0941ZM15.0726 19.9405C14.9514 20.169 14.8205 20.6915 14.7563 21.2845C14.75 21.2721 14.7437 21.2601 14.7375 21.2485C14.5033 21.2919 14.2211 21.3593 13.9139 21.441L14.5958 23.0094C14.7012 22.9678 14.7949 22.9306 14.8744 22.8988C14.8593 22.9139 14.8393 22.9344 14.816 22.9587C14.8755 23.2019 14.9645 23.4152 15.0904 23.5768C15.5265 24.136 15.739 23.7253 15.8213 23.2592C15.8301 23.1053 15.8449 22.9551 15.8637 22.8049L15.8771 22.7006C15.9088 22.4639 16.0123 22.0926 16.1188 21.7855C16.2819 20.8059 17.061 19.8461 17.7596 19.2833C17.7973 19.2529 17.8353 19.2227 17.8735 19.1927C18.2703 18.8812 18.6887 18.5925 19.1218 18.3308C19.0057 18.6893 19.0509 19.0847 19.3242 19.2956C18.6042 19.9896 19.2587 20.9581 19.6067 20.9888C19.1976 21.4198 19.7773 22.5761 20.399 22.6365C20.0669 23.2728 20.7188 23.8036 21.2589 23.6453C20.8227 24.0418 21.1394 24.6556 21.7362 24.4903C21.0123 25.3299 22.1303 26.7544 22.9148 26.2713C22.4144 26.6921 22.6121 27.9633 23.3172 27.9329C22.9367 28.5578 23.709 29.4094 24.2105 29.0308C24.4586 30.3572 25.5645 29.6803 25.5455 29.1607C25.3126 24.6364 23.9525 21.7473 22.9763 19.6735L22.9762 19.6732C22.8971 19.5052 22.8205 19.3425 22.7473 19.1848C22.611 18.8992 21.0289 22.4448 21.0289 22.4448C21.0289 22.4448 21.6324 17.7434 21.5786 16.928C21.5853 16.8898 21.5914 16.8514 21.5969 16.813C21.6396 16.5129 21.6457 16.2068 21.6352 15.8976C21.5366 15.9019 21.4384 15.8934 21.3448 15.8676C21.1223 15.8062 20.9431 15.6506 20.8602 15.3912C20.7415 15.0684 20.6695 14.3761 20.8266 13.704L20.8556 13.5795L21.5746 13.4305C21.6011 13.2418 21.6483 13.067 21.7134 12.9063C22.1709 11.7763 23.5115 11.3449 24.7562 11.6798C26.0318 12.0232 26.4345 13.2794 26.767 14.3816L26.7955 14.4763L26.7955 14.4763C26.9822 15.0968 27.1679 15.7142 27.4997 16.2583C28.0133 17.62 28.0283 21.3015 28.0283 21.3015C28.0283 21.3015 26.5821 18.5754 26.5275 18.7882C25.8751 21.4249 25.3697 25.2134 26.0371 28.3107C26.2987 29.8293 27.6894 28.7932 27.131 28.208C27.7217 28.0322 27.7605 27.2962 27.3119 27.0083C27.7826 26.9642 28.0294 26.3139 27.5793 25.8122C28.197 25.9409 28.9741 25.5139 28.7196 24.4346C29.3553 24.4723 29.9597 23.212 29.4146 22.6237C29.8584 22.5869 30.1141 22.0197 29.712 21.5906C30.3214 21.6359 30.6623 20.6053 30.014 20.0015C30.5399 19.6441 30.6539 18.5618 29.8617 18.0551C30.0634 17.8928 30.1334 17.4672 30.0728 17.0868L30.0891 17.0899C30.597 17.1859 31.141 17.3171 31.5929 17.426L31.5929 17.426L31.5933 17.4261C31.7227 17.4573 31.8446 17.4867 31.9559 17.5129C30.2395 12.28 24.9375 8.91133 19.3202 9.79133C15.5719 10.3791 12.5355 12.7247 10.9199 15.858C10.8388 16.0153 10.6455 16.0771 10.4881 15.996C10.3308 15.9149 10.269 15.7216 10.3502 15.5642C12.0554 12.257 15.2621 9.77881 19.2209 9.15804L19.221 9.15803C25.8114 8.12559 31.9909 12.6309 33.0236 19.2214C34.0559 25.8117 29.5505 31.9912 22.9605 33.0241L22.9605 33.0241C18.0171 33.7984 13.3058 31.4572 10.8236 27.4588C10.7303 27.3084 10.7765 27.1108 10.9269 27.0175C11.0773 26.9241 11.2749 26.9703 11.3682 27.1207C13.4298 30.4415 17.1139 32.554 21.145 32.5301C20.2417 30.8789 19.4087 28.8434 19.073 26.7745C18.9309 27.3759 18.6102 27.9756 18.2084 28.434C17.6241 29.0999 17.2012 29.3794 16.3429 29.3351C14.6904 29.2494 12.9361 28.0757 11.8937 26.8351C11.1805 25.9867 10.7044 25.2624 10.3716 24.6643L10.8026 24.4959L10.0787 22.7588C9.89692 22.8366 9.73328 22.9104 9.59474 22.9782C9.55676 22.8929 9.52098 22.8209 9.48434 22.7622C9.45234 22.7109 9.41874 22.6583 9.38426 22.6042L9.38402 22.6038L9.38358 22.6032L9.38345 22.603C9.09542 22.1514 8.74713 21.6055 8.76322 21.0106C8.78647 20.351 8.66006 17.5958 6.55968 17.6444C4.45942 17.6931 5.91298 16.7981 6.32658 16.6205C6.34142 16.6142 6.35935 16.6063 6.38017 16.5971L6.38042 16.597C6.95475 16.3437 9.72855 15.1205 10.8386 18.486C11.6153 18.2022 12.0649 18.0315 12.3635 17.9181L12.3636 17.918L12.3636 17.918L12.3636 17.918L12.3637 17.918C12.8444 17.7355 12.9338 17.7015 13.3669 17.5831C14.0695 17.3913 15.4086 17.4606 15.6025 18.3321C15.7517 18.969 15.553 19.2415 15.3217 19.5589C15.238 19.6738 15.1499 19.7945 15.0726 19.9405ZM26.2287 13.4439C26.1203 13.0499 25.9825 12.7235 25.9825 12.7235L21.0213 13.7495C20.8712 14.392 20.9451 15.0473 21.0494 15.3262C21.1382 15.61 21.3644 15.709 21.6262 15.6978C21.6262 15.6969 21.6261 15.696 21.6261 15.695C22.0898 15.675 22.6653 15.3097 22.7885 15.0133C22.822 14.9398 22.8271 14.8234 22.8324 14.7019C22.8419 14.4847 22.8521 14.2511 23.0268 14.2167C23.1683 14.2006 23.2176 14.3178 23.2606 14.4741C23.2673 14.4984 23.2738 14.5236 23.2805 14.5495C23.287 14.5748 23.2938 14.6007 23.3009 14.6269C23.333 14.7435 23.3743 14.8646 23.4518 14.9608C24.155 15.7957 25.7472 15.224 26.2267 14.6794C26.4386 14.4431 26.3536 13.8989 26.2287 13.4439ZM7.66807 20.0879L3.23242 20.2656L3.25638 20.8629L4.90962 20.7967L6.42586 20.7107L3.30049 21.4595L3.32197 21.9962L6.49631 22.4673L4.97804 22.5028L3.32471 22.5691L3.34884 23.1715L7.78459 22.9938L7.75074 22.1495L4.48586 21.687L7.70175 20.9271L7.66807 20.0879ZM7.63664 24.8906C7.63823 24.8971 7.50131 24.9323 7.22605 24.996L7.08789 25.0254C7.05757 24.8944 7.00559 24.771 6.93213 24.6551C6.85868 24.5391 6.77647 24.4712 6.68542 24.4508L3.76141 25.1284L3.60938 24.4722L7.29517 23.6182L7.44721 24.2743L7.03679 24.3693C7.19078 24.3785 7.32001 24.4276 7.42432 24.5164C7.52862 24.6053 7.59943 24.73 7.63664 24.8906ZM4.9154 27.774C4.78431 28.01 4.77847 28.2541 4.89789 28.5064C4.96481 28.6478 5.06257 28.754 5.19101 28.8253C5.31963 28.8965 5.45911 28.9161 5.60956 28.884L5.25934 29.1641L5.38884 29.4377L7.57962 28.4009L7.18148 27.5596L6.73695 27.77L6.88253 28.0778L6.34227 28.3335C6.07929 28.4579 5.88102 28.5224 5.74746 28.527C5.61389 28.5317 5.51993 28.4766 5.46565 28.3618C5.41138 28.247 5.4265 28.1455 5.51118 28.0571C5.59586 27.9686 5.76955 27.8623 6.03253 27.7379L7.77203 26.9146C7.9985 26.8075 8.16663 26.7549 8.27641 26.7569C8.3862 26.759 8.46646 26.8135 8.51711 26.9206C8.56785 27.028 8.56511 27.1186 8.50898 27.1925C8.45285 27.2664 8.33281 27.347 8.14895 27.434L7.72944 27.6325L7.99921 28.2024L8.28419 28.0676C8.58968 27.923 8.81553 27.7772 8.96165 27.6298C9.20465 27.3845 9.23293 27.0652 9.04669 26.6715C8.89703 26.3553 8.69063 26.1708 8.42739 26.1177C8.16415 26.0645 7.84708 26.1258 7.47628 26.3013L5.73216 27.1265C5.31874 27.3222 5.04649 27.5379 4.9154 27.774ZM6.35184 31.048C6.20908 30.8462 6.17947 30.6509 6.26318 30.4619C6.3468 30.273 6.52359 30.081 6.79355 29.8859L6.9912 29.7461C7.25471 29.5596 7.50495 29.4897 7.74194 29.5363C7.89619 29.5651 8.09287 29.6597 8.33206 29.8201C8.37529 29.8493 8.43495 29.89 8.51106 29.9422C8.58708 29.9945 8.64091 30.0312 8.6722 30.0522L8.94199 29.8614C9.10949 29.7429 9.21451 29.6505 9.25729 29.5843C9.29998 29.518 9.29097 29.442 9.23033 29.3561C9.16969 29.2703 9.09747 29.2354 9.01403 29.2511C8.93041 29.267 8.81381 29.3279 8.66425 29.4338L8.52627 29.5313L8.14458 28.9918L8.23721 28.9263C8.52962 28.7194 8.79136 28.6162 9.02225 28.6165C9.25314 28.6169 9.46696 28.7561 9.66364 29.0341C9.86032 29.312 9.92326 29.564 9.85263 29.7902C9.78191 30.0165 9.59284 30.2382 9.28531 30.4558L7.08207 32.0144L6.69313 31.4646L6.99995 31.2476C6.88584 31.2871 6.76871 31.2913 6.64858 31.2598C6.52837 31.2284 6.42954 31.1578 6.35184 31.048ZM8.36327 30.2708C8.16402 30.1521 8.00871 30.0869 7.89734 30.0751C7.78587 30.0632 7.65823 30.1084 7.51406 30.2103L7.18258 30.4447C7.0384 30.5466 6.94577 30.6348 6.90466 30.7092C6.86356 30.7836 6.86701 30.8548 6.91509 30.9228C6.96318 30.9907 7.0255 31.0301 7.10205 31.0408C7.1786 31.0515 7.24958 31.042 7.31508 31.0121L8.36327 30.2708ZM11.758 32.6224L9.81203 34.7803L10.3063 35.2263L12.2472 33.0741C12.4511 32.848 12.5662 32.6406 12.5928 32.4517C12.6193 32.2628 12.5446 32.089 12.3685 31.9301C12.1512 31.7342 11.907 31.6849 11.6358 31.7823C11.7359 31.5307 11.6823 31.3114 11.475 31.1244C11.3538 31.0152 11.2286 30.9571 11.099 30.9501C10.9694 30.9431 10.8431 30.9791 10.7198 31.0581L10.995 30.7529L10.4986 30.3052L7.96484 33.115L8.46127 33.5625L10.3599 31.4571C10.4478 31.3597 10.5399 31.2984 10.6362 31.2732C10.7325 31.2479 10.8212 31.2719 10.9025 31.3451C11.0249 31.4555 11.0033 31.6025 10.8378 31.7861L8.88848 33.9477L9.3849 34.3952L11.3071 32.2635C11.3962 32.1649 11.4849 32.108 11.5734 32.0926C11.6619 32.0773 11.7443 32.104 11.8204 32.1728C11.9465 32.2865 11.9257 32.4365 11.758 32.6224ZM12.2635 36.0155L12.0906 36.3234L11.5078 35.9962L13.6994 32.0923L14.2822 32.4194L13.8093 33.2617C13.8876 33.1978 13.9815 33.1627 14.091 33.1567C14.2004 33.1507 14.3021 33.1741 14.3959 33.2267C14.6775 33.3847 14.7921 33.615 14.7401 33.9174C14.7066 34.1108 14.6213 34.3299 14.4837 34.5748L13.6997 35.9714L13.6948 35.9802C13.4273 36.4569 13.1513 36.6992 12.8672 36.7075C12.7608 36.7113 12.6549 36.6837 12.5494 36.6245C12.5464 36.6227 12.5427 36.6207 12.5383 36.6183C12.3157 36.4892 12.2241 36.2884 12.2635 36.0155ZM12.4626 35.7845C12.4472 35.8944 12.4889 35.9772 12.5879 36.0327C12.6869 36.0883 12.7751 36.0806 12.8527 36.0094C12.9303 35.9381 13.0279 35.7976 13.1457 35.5879L13.9038 34.2376C14.0511 33.9751 14.1052 33.7981 14.0659 33.7066C14.0483 33.666 14.0153 33.6319 13.967 33.6048C13.8716 33.5514 13.7828 33.5497 13.7006 33.5999C13.6184 33.6502 13.5238 33.7707 13.4168 33.9613L12.6538 35.3205C12.5418 35.52 12.478 35.6747 12.4626 35.7845ZM15.8145 33.1914L14.168 37.3546L14.7872 37.5997L16.4337 33.4363L15.8145 33.1914ZM16.7019 38.2389C16.2892 38.1357 16.0627 37.9118 16.0223 37.5671C15.9975 37.3478 16.0261 37.0741 16.1081 36.7463L16.4501 35.3783C16.6378 34.628 17.044 34.331 17.6688 34.4871C18.0016 34.5703 18.2073 34.7266 18.286 34.9561C18.3646 35.1856 18.3585 35.4821 18.2676 35.8459L18.0711 36.6313L16.9038 36.3395L16.7233 37.0613C16.6596 37.3158 16.6411 37.4831 16.6679 37.5635C16.6946 37.6439 16.7519 37.6951 16.8401 37.7171C16.9282 37.7391 16.9903 37.7331 17.0267 37.6987C17.0886 37.638 17.1323 37.5709 17.1576 37.4975C17.1829 37.4242 17.2119 37.3222 17.2445 37.1917L17.3252 36.8686L17.9663 37.0289L17.9173 37.2247C17.8341 37.5575 17.7482 37.79 17.6598 37.9221C17.5712 38.0542 17.4846 38.1445 17.3997 38.1926C17.2217 38.2952 16.989 38.3108 16.7019 38.2389ZM16.9964 35.9595L17.5201 36.0904L17.6376 35.6206C17.6878 35.42 17.7078 35.2722 17.6979 35.1769C17.688 35.0817 17.634 35.0217 17.5361 34.9973L17.5337 34.9967C17.364 34.9543 17.2402 35.0611 17.1624 35.3172C17.1468 35.3653 17.1293 35.4286 17.1097 35.5069L16.9964 35.9595ZM20.4188 34.2793L19.7441 38.7124L20.3948 38.7186L20.4981 37.9275L21.2144 37.9342L21.313 38.7271L21.9435 38.7331L21.3116 34.2877L20.4188 34.2793ZM20.8721 35.1587L21.1489 37.3912L20.5689 37.3858L20.8621 35.1587H20.8721ZM23.1382 39.3424L22.3926 34.9023L23.0518 34.7916L23.1081 35.1275C23.1347 35.0019 23.1933 34.8979 23.2833 34.8154C23.3735 34.733 23.4737 34.6824 23.584 34.6639C23.6942 34.6454 23.7942 34.6491 23.8838 34.675C24.0505 34.7237 24.1766 34.8376 24.2621 35.0168C24.3476 35.1959 24.4143 35.4273 24.4618 35.7109L24.6903 37.0717C24.7638 37.5093 24.7727 37.8212 24.7169 38.0071C24.6611 38.1929 24.5662 38.3227 24.4319 38.3963C24.354 38.4401 24.2649 38.4704 24.1646 38.4873C24.0642 38.5041 23.9679 38.4938 23.8755 38.4564C23.7831 38.4192 23.7046 38.3658 23.6401 38.2964L23.7972 39.2317L23.1382 39.3424ZM23.6313 37.8772C23.6874 37.9676 23.7702 38.0036 23.8796 37.9852C23.9891 37.9668 24.0535 37.9045 24.0732 37.7979C24.0929 37.6915 24.0843 37.5288 24.0476 37.3098L23.7878 35.7627C23.7378 35.4642 23.667 35.2919 23.5757 35.2458C23.5348 35.2255 23.486 35.2199 23.4297 35.2294C23.3302 35.246 23.2628 35.2996 23.2277 35.3898C23.1926 35.4801 23.1934 35.6348 23.2301 35.8536L23.4949 37.4307C23.5298 37.638 23.5752 37.7868 23.6313 37.8772ZM24.8125 34.4402L26.3308 38.6788L26.96 38.4533L26.6402 37.5604C26.716 37.6173 26.8026 37.656 26.9001 37.6763C26.9975 37.6968 27.0942 37.6899 27.1901 37.6556C27.2858 37.6212 27.3681 37.5757 27.437 37.5188C27.5562 37.4226 27.6268 37.2781 27.6488 37.0853C27.6708 36.8926 27.607 36.5872 27.4574 36.1693L26.992 34.8705C26.8952 34.5998 26.7887 34.3838 26.6729 34.2225C26.5571 34.0614 26.4129 33.9714 26.2401 33.9528C26.1474 33.9434 26.0483 33.9573 25.9431 33.995C25.8378 34.0328 25.7481 34.1003 25.6739 34.1973C25.5997 34.2944 25.5607 34.4071 25.5566 34.5353L25.4418 34.2148L24.8125 34.4402ZM26.8207 37.2118C26.7162 37.2493 26.6284 37.2285 26.5572 37.1494C26.4861 37.0705 26.4151 36.9322 26.344 36.7341L25.8047 35.2286C25.7299 35.0196 25.7018 34.8676 25.7204 34.7726C25.7391 34.6774 25.7958 34.6129 25.8908 34.5789C25.9447 34.5596 25.9935 34.5564 26.0375 34.5693C26.1354 34.5984 26.2355 34.7555 26.3375 35.0404L26.8666 36.5174C26.9415 36.7265 26.9786 36.885 26.9781 36.9932C26.9776 37.1017 26.9251 37.1744 26.8207 37.2118ZM28.2544 32.868C28.2602 32.8649 28.3307 32.9874 28.4655 33.2355L28.5307 33.361C28.4125 33.4252 28.3073 33.5081 28.2153 33.6097C28.1231 33.7113 28.0795 33.8088 28.0841 33.9019L29.5167 36.5396L28.925 36.861L27.1191 33.5363L27.7109 33.2149L27.912 33.585C27.8798 33.4342 27.8926 33.2966 27.9506 33.1723C28.0082 33.0481 28.1096 32.9466 28.2544 32.868ZM30.7827 35.4643C31.0204 35.5541 31.2827 35.4932 31.5695 35.2814C31.7143 35.1746 31.8202 35.0619 31.8872 34.9433C32.0624 34.6341 31.9626 34.226 31.588 33.7187L30.7474 32.5806C30.2668 31.9299 29.7728 31.7919 29.2657 32.1665C28.7585 32.5411 28.7451 33.0537 29.2257 33.7043L30.0663 34.8425C30.306 35.1672 30.5449 35.3743 30.7827 35.4643ZM31.3386 34.6101C31.3626 34.7062 31.3327 34.7854 31.2488 34.8472C31.2042 34.8802 31.1595 34.8976 31.1148 34.8992C31.0048 34.9032 30.8673 34.7934 30.7025 34.5702L29.697 33.2089C29.5862 33.0588 29.5191 32.9355 29.4957 32.8386C29.4724 32.742 29.5027 32.6627 29.5865 32.6008C29.6703 32.5388 29.7553 32.5336 29.8413 32.5849C29.9274 32.6364 30.0254 32.7365 30.1353 32.8852L31.1408 34.2466C31.2486 34.3927 31.3146 34.5137 31.3386 34.6101ZM33.3912 33.679L30.3027 31.4261L30.7435 30.9751L32.354 32.207L33.0598 32.7803L33.0949 32.7442L32.4949 32.059L31.2036 30.5043L31.6408 30.0569L33.9641 33.0927L33.3912 33.679ZM34.6419 31.6388C34.9779 31.7255 35.2686 31.5951 35.5138 31.2475C35.6845 31.0057 35.754 30.7832 35.7226 30.5799C35.7084 30.4834 35.6556 30.3701 35.5643 30.2398C35.473 30.1095 35.2873 29.9454 35.007 29.7478L34.8421 29.6314L34.4611 30.1713L34.7332 30.3633C34.843 30.4409 34.9277 30.5048 34.987 30.5548C35.0463 30.6048 35.0931 30.6699 35.1274 30.7496C35.1462 30.7958 35.1295 30.856 35.0771 30.9301C35.0248 31.0043 34.9563 31.0395 34.8718 31.0353C34.7872 31.0312 34.6377 30.9535 34.4234 30.8022L33.8154 30.3732L34.5091 29.3902L33.8475 28.9234C33.5412 28.7073 33.2668 28.5944 33.0245 28.5849C32.7821 28.5756 32.5621 28.711 32.3643 28.9912C31.993 29.5175 32.1234 30.0035 32.7553 30.4495L33.9074 31.2623C34.1835 31.4571 34.4283 31.5827 34.6419 31.6388ZM33.8058 29.709L33.4946 30.15L33.113 29.881C33.0472 29.8344 32.9945 29.7952 32.9553 29.7634C32.7446 29.5982 32.6896 29.4442 32.7905 29.3014L32.792 29.2993C32.8503 29.2169 32.9255 29.1882 33.0178 29.2132C33.1103 29.2383 33.241 29.3104 33.4101 29.4297L33.8058 29.709ZM33.9318 28.2918C33.3754 28.0211 33.2273 27.6181 33.4879 27.0828C33.6173 26.8167 33.7881 26.659 34 26.6097C34.2119 26.5604 34.4947 26.6218 34.8487 26.794L35.0347 26.8844L34.7731 27.422L34.5486 27.3127C34.3943 27.2376 34.2714 27.1994 34.1796 27.1977C34.0879 27.196 34.0223 27.2357 33.9829 27.3165C33.9436 27.3974 33.9379 27.4687 33.9661 27.5299C33.9942 27.5913 34.065 27.6496 34.1784 27.7048C34.3583 27.7924 34.5643 27.7935 34.7965 27.7083L35.2458 27.5286C35.7155 27.3475 36.1353 27.347 36.5059 27.5274C36.7962 27.6686 36.982 27.8403 37.063 28.0424C37.1443 28.2446 37.1175 28.4841 36.9829 28.7608C36.8483 29.0375 36.67 29.2032 36.4479 29.2579C36.2259 29.3125 35.9403 29.2549 35.591 29.085L35.3711 28.9779L35.6457 28.413L35.9202 28.5466C36.2226 28.6937 36.4113 28.6902 36.4863 28.536C36.526 28.4543 36.5279 28.3824 36.4918 28.32C36.456 28.2576 36.3736 28.1951 36.2451 28.1325C36.0183 28.0222 35.7574 28.0242 35.4623 28.1387C35.4534 28.142 35.3858 28.1694 35.2595 28.2211C35.1334 28.2729 35.059 28.3026 35.0367 28.3104C34.6447 28.4659 34.2766 28.4596 33.9318 28.2918ZM5.43945 12.3991L9.13433 14.8599L9.46563 14.3624L8.08853 13.445L6.81072 12.6243L9.78023 13.8535L10.078 13.4064L7.78525 11.1612L9.03506 12.0239L10.4123 12.941L10.7463 12.4393L7.0516 9.97852L6.58319 10.6819L8.95436 12.9732L5.90503 11.7L5.43945 12.3991ZM9.19558 8.59759C9.20018 8.59273 9.30439 8.68811 9.50823 8.88372L9.60839 8.98326C9.51513 9.08031 9.44017 9.19125 9.38324 9.31606C9.32623 9.44088 9.31421 9.54704 9.34691 9.63437L11.5119 11.7133L11.0455 12.1991L8.31641 9.57859L8.78295 9.09286L9.08677 9.38466C9.01039 9.25065 8.98069 9.11558 8.99828 8.97954C9.01552 8.84377 9.08137 8.71648 9.19558 8.59759ZM12.8144 10.1649C13.0673 10.2592 13.3095 10.2285 13.5413 10.0727C13.671 9.98552 13.7614 9.87299 13.8126 9.73519C13.8637 9.59738 13.8623 9.45657 13.8081 9.31266L14.1374 9.617L14.3885 9.44808L13.0357 7.43673L12.2634 7.95615L12.5379 8.36427L12.8205 8.17422L13.154 8.67021C13.3165 8.91161 13.4099 9.09804 13.4344 9.22939C13.459 9.36084 13.4186 9.46205 13.3133 9.53285C13.2078 9.60365 13.1051 9.60383 13.005 9.53338C12.9049 9.46293 12.7737 9.307 12.6114 9.0656L11.5373 7.46864C11.3976 7.26073 11.3203 7.10242 11.306 6.9936C11.2914 6.8847 11.3334 6.79719 11.4319 6.73107C11.5303 6.66486 11.6203 6.65408 11.7018 6.69845C11.7834 6.74292 11.881 6.84952 11.9944 7.01835L12.2536 7.4034L12.7767 7.0515L12.6008 6.78994C12.4123 6.50947 12.2342 6.30801 12.0667 6.18559C11.7879 5.98201 11.4679 6.00173 11.1065 6.24472C10.8163 6.4399 10.6645 6.67167 10.6515 6.93986C10.6384 7.20814 10.7463 7.51239 10.9752 7.85291L12.0522 9.454C12.3074 9.83357 12.5614 10.0705 12.8144 10.1649ZM15.3183 9.03997C15.0929 9.14162 14.8955 9.1334 14.726 9.01521C14.5564 8.89703 14.4017 8.68692 14.2619 8.38487L14.1624 8.16415C14.0295 7.8698 14.0086 7.61087 14.0996 7.38714C14.1574 7.2412 14.2879 7.06618 14.491 6.86208C14.527 6.82597 14.5769 6.77668 14.6405 6.71398L14.6449 6.7096C14.7108 6.64489 14.757 6.5991 14.7836 6.57241L14.6477 6.27116C14.5633 6.0842 14.4928 5.96346 14.4359 5.90874C14.3789 5.8542 14.3027 5.84854 14.2067 5.89177C14.111 5.93499 14.0629 5.99908 14.0625 6.08412C14.0622 6.16915 14.0996 6.2952 14.175 6.46236L14.2444 6.61643L13.6422 6.88807L13.5954 6.78464C13.4482 6.45811 13.3968 6.18161 13.4412 5.95497C13.4856 5.72841 13.663 5.545 13.9735 5.40498C14.2839 5.26496 14.5434 5.25126 14.7519 5.36387C14.9603 5.4764 15.142 5.70437 15.2968 6.0477L16.4064 8.50792L15.7925 8.78486L15.6381 8.44233C15.6551 8.56193 15.6368 8.67772 15.583 8.78954C15.5291 8.90119 15.4408 8.98472 15.3183 9.03997ZM14.9391 6.91724C14.7847 7.09022 14.691 7.23024 14.6581 7.33729C14.6253 7.44433 14.6451 7.57834 14.7177 7.73922L14.8847 8.10943C14.9572 8.2704 15.0262 8.37815 15.0913 8.4326C15.1565 8.48723 15.227 8.49731 15.3029 8.4631C15.3788 8.42889 15.4294 8.37524 15.4544 8.30213C15.4796 8.22903 15.4838 8.15752 15.4669 8.08751L14.9391 6.91724ZM18.5257 4.98002L19.1316 7.8218L19.7828 7.68295L19.1785 4.84857C19.1149 4.55095 19.0146 4.33597 18.8771 4.20356C18.7397 4.07132 18.555 4.02977 18.3232 4.07927C18.0369 4.14027 17.8539 4.30919 17.7736 4.58586C17.6285 4.35719 17.4195 4.27197 17.1464 4.33014C16.987 4.36408 16.8663 4.43153 16.7846 4.5323C16.703 4.63307 16.658 4.75664 16.6496 4.90276L16.5639 4.50074L15.9102 4.64014L16.6992 8.34042L17.3529 8.20093L16.7618 5.42818C16.7343 5.29992 16.7388 5.18942 16.7749 5.09661C16.8109 5.00388 16.8825 4.94607 16.9894 4.92327C17.1505 4.88897 17.2568 4.99266 17.3084 5.23442L17.9154 8.08115L18.5692 7.94175L17.9705 5.13453C17.9429 5.00459 17.9489 4.89931 17.9884 4.81861C18.0278 4.73799 18.0978 4.68699 18.1982 4.6656C18.3643 4.63015 18.4735 4.73499 18.5257 4.98002ZM20.7972 7.36983L20.7954 7.72296L20.127 7.71961L20.1493 3.24268L20.8178 3.24595L20.813 4.21201C20.8505 4.11805 20.9156 4.04185 21.0083 3.98351C21.1012 3.92508 21.2013 3.89618 21.309 3.8968C21.6318 3.89839 21.8438 4.04415 21.945 4.33373C22.0096 4.5191 22.0412 4.75202 22.0397 5.03285L22.0317 6.63447V6.64455C22.0289 7.19109 21.9053 7.53689 21.6607 7.68186C21.5696 7.73693 21.4637 7.76412 21.3425 7.7635L21.3298 7.76341C21.0727 7.75873 20.8951 7.62759 20.7972 7.36983ZM20.8592 7.07123C20.8991 7.17483 20.9757 7.22698 21.0893 7.2276C21.2027 7.22813 21.2761 7.17845 21.3094 7.07857C21.3427 6.97868 21.36 6.80852 21.3612 6.56809L21.3689 5.01941C21.3704 4.71843 21.3318 4.53748 21.253 4.47649C21.2179 4.44944 21.1725 4.43574 21.117 4.43547C21.0077 4.43494 20.9294 4.47667 20.8818 4.56046C20.8343 4.64426 20.81 4.79551 20.8089 5.01411L20.8011 6.57286C20.8002 6.80154 20.8193 6.96763 20.8592 7.07123ZM22.9762 3.35791L22.4238 7.8008L23.0846 7.88301L23.637 3.44012L22.9762 3.35791ZM24.3744 8.20748C23.9628 8.09964 23.7388 7.87326 23.7023 7.52813C23.6799 7.30847 23.7115 7.03516 23.7971 6.70818L24.1544 5.34425C24.3503 4.59608 24.7598 4.30349 25.3828 4.46667C25.7146 4.55356 25.9186 4.71223 25.9947 4.9425C26.0708 5.17268 26.0614 5.46933 25.9664 5.83202L25.7614 6.61528L24.5975 6.31041L24.4089 7.03029C24.3424 7.28399 24.3221 7.45123 24.3479 7.53185C24.3737 7.61255 24.4306 7.66435 24.5184 7.68733C24.6062 7.71032 24.6685 7.70483 24.7052 7.67098C24.7678 7.61087 24.8122 7.54431 24.8384 7.47121C24.8643 7.39811 24.8945 7.29645 24.9286 7.16633L25.013 6.84422L25.6522 7.01164L25.601 7.20691C25.5142 7.53874 25.4256 7.77028 25.3357 7.90137C25.2457 8.03246 25.1581 8.12174 25.0727 8.16885C24.8936 8.26962 24.6608 8.28253 24.3744 8.20748ZM24.6942 5.93155L25.2163 6.06829L25.3391 5.5998C25.3915 5.39976 25.4132 5.25206 25.4043 5.15668C25.3954 5.06139 25.3421 5.00084 25.2445 4.97529L25.2421 4.97467C25.073 4.93039 24.948 5.03584 24.8673 5.29113C24.8511 5.33904 24.833 5.40206 24.8125 5.4802L24.6942 5.93155ZM28.9859 5.17822L26.3242 8.78695L26.8972 9.09545L27.3569 8.44353L27.9877 8.78315L27.7056 9.5307L28.2609 9.82956L29.7721 5.60146L28.9859 5.17822ZM28.9775 6.16763L28.1825 8.27205L27.6718 7.99705L28.9685 6.16285L28.9775 6.16763ZM28.0352 10.5555L30.8214 7.01904L31.3465 7.43273L31.1357 7.70021C31.2465 7.6356 31.3628 7.6089 31.4845 7.62022C31.6062 7.63153 31.711 7.67175 31.7987 7.74096C31.8866 7.81018 31.951 7.88655 31.9921 7.97035C32.0682 8.12654 32.0686 8.29652 31.9935 8.48038C31.9182 8.66407 31.7917 8.86888 31.6138 9.09473L30.7598 10.1784C30.4852 10.5272 30.2601 10.7434 30.0851 10.827C29.9101 10.9106 29.75 10.9275 29.6053 10.8777C29.5205 10.8494 29.4382 10.8038 29.3583 10.7408C29.2783 10.6779 29.2212 10.5996 29.1868 10.5062C29.1523 10.4127 29.139 10.3188 29.1471 10.2244L28.5601 10.9693L28.0352 10.5555ZM29.4515 9.93581C29.4223 10.0381 29.4513 10.1236 29.5386 10.1922C29.6257 10.2608 29.7153 10.2668 29.8074 10.2097C29.8993 10.1526 30.0141 10.0369 30.1514 9.86261L31.1223 8.6303C31.3096 8.39252 31.3897 8.22439 31.3624 8.12583C31.3499 8.08181 31.3213 8.04212 31.2763 8.00677C31.1971 7.94427 31.1123 7.93039 31.0218 7.96504C30.9313 7.99978 30.8174 8.10427 30.68 8.27858L29.6904 9.53476C29.5602 9.69988 29.4808 9.83362 29.4515 9.93581ZM33.0423 8.88184L29.6992 11.8976L30.1469 12.3938L30.8511 11.7586C30.8273 11.8503 30.8245 11.9452 30.8428 12.043C30.8608 12.141 30.904 12.2278 30.9722 12.3032C31.0403 12.3787 31.1138 12.4376 31.1926 12.4798C31.3268 12.5534 31.4874 12.5637 31.674 12.5109C31.8607 12.458 32.1188 12.2829 32.4485 11.9856L33.4731 11.0614C33.6864 10.8689 33.8458 10.6884 33.9509 10.5199C34.0559 10.3515 34.0842 10.1839 34.0357 10.0171C34.0093 9.92764 33.9587 9.84136 33.8838 9.75836C33.809 9.67536 33.7123 9.6179 33.5945 9.58634C33.4765 9.5547 33.3573 9.56133 33.2371 9.60632L33.4899 9.37817L33.0423 8.88184ZM31.2422 11.793C31.1679 11.7106 31.1538 11.6215 31.1997 11.5256C31.2458 11.4298 31.3468 11.3115 31.5029 11.1707L32.6903 10.0996C32.8551 9.95088 32.985 9.86717 33.0801 9.84817C33.1751 9.82916 33.2564 9.85718 33.324 9.93214C33.3622 9.97457 33.3838 10.0186 33.3886 10.064C33.3987 10.1658 33.2915 10.318 33.0668 10.5208L31.9018 11.5716C31.7371 11.7203 31.6045 11.815 31.5042 11.8557C31.4039 11.8963 31.3166 11.8755 31.2422 11.793ZM35.6284 12.1038C35.6321 12.1094 35.5168 12.1909 35.2824 12.3487L35.1638 12.4255C35.0886 12.3139 34.9962 12.2171 34.8862 12.1351C34.7762 12.0529 34.6752 12.0187 34.5828 12.0321L32.0927 13.7079L31.7168 13.1492L34.8557 11.0369L35.2316 11.5956L34.8821 11.8307C35.0293 11.7844 35.1675 11.7842 35.2967 11.83C35.4258 11.8756 35.5363 11.967 35.6284 12.1038ZM32.9029 14.4841C32.7699 14.7008 32.7806 14.9699 32.9348 15.2914C33.0125 15.4536 33.1033 15.5787 33.2072 15.6669C33.4779 15.8969 33.8976 15.8756 34.4661 15.6029L35.7421 14.991C36.4713 14.6412 36.6996 14.182 36.4269 13.6134C36.1542 13.0448 35.6531 12.9355 34.9239 13.2853L33.648 13.8973C33.2841 14.0719 33.0358 14.2675 32.9029 14.4841ZM33.6375 15.1906C33.5385 15.1961 33.4665 15.1518 33.4214 15.0578C33.3973 15.0079 33.3888 14.9608 33.3956 14.9164C33.4124 14.8076 33.5458 14.6931 33.796 14.5732L35.322 13.8412C35.4903 13.7605 35.6241 13.7178 35.7235 13.7131C35.8229 13.7083 35.8951 13.7529 35.9402 13.8469C35.9853 13.9409 35.9745 14.0253 35.9078 14.1001C35.8412 14.1751 35.7244 14.2525 35.5576 14.3325L34.0317 15.0644C33.8679 15.143 33.7365 15.1851 33.6375 15.1906ZM33.6055 16.8105L37.0732 15.2014L37.254 15.8055L35.3958 16.6171L34.5523 16.9564L34.5667 17.0047L35.4567 16.8121L37.4427 16.4363L37.6219 17.0355L33.8404 17.5959L33.6055 16.8105ZM34.4853 18.3478C34.1801 18.513 34.0561 18.8063 34.1131 19.228C34.1528 19.5212 34.2534 19.7317 34.4148 19.859C34.4909 19.92 34.6068 19.9671 34.7622 20.0004C34.9177 20.0337 35.1654 20.0273 35.5054 19.9814L35.7054 19.9542L35.6168 19.2994L35.2869 19.344C35.1536 19.3621 35.0482 19.3729 34.9706 19.3766C34.8931 19.3803 34.8145 19.3646 34.7351 19.3296C34.6898 19.3085 34.6611 19.253 34.649 19.163C34.6368 19.0731 34.6631 19.0007 34.7279 18.9462C34.7926 18.8916 34.9549 18.8467 35.2148 18.8116L35.9522 18.7119L36.1134 19.9042L36.9158 19.7957C37.2874 19.7454 37.5652 19.6412 37.7492 19.4832C37.9331 19.325 38.0022 19.0761 37.9561 18.7362C37.8698 18.098 37.4433 17.8306 36.6769 17.9343L35.2795 18.1233C34.9446 18.1687 34.6798 18.2434 34.4853 18.3478ZM36.4116 19.192L36.3393 18.657L36.8017 18.5945C36.8818 18.5837 36.9469 18.5766 36.9974 18.5732C37.2642 18.5508 37.4092 18.6261 37.4327 18.7994L37.433 18.8019C37.4465 18.9019 37.4109 18.9741 37.3262 19.0187C37.2415 19.0632 37.0966 19.0995 36.8916 19.1271L36.4116 19.192ZM37.1938 20.504C37.8124 20.5196 38.1142 20.8248 38.0991 21.4199C38.0917 21.7158 38.0018 21.93 37.8294 22.0628C37.657 22.1955 37.3741 22.2569 36.9808 22.247L36.774 22.2418L36.7891 21.6442L37.0387 21.6503C37.2101 21.6548 37.338 21.6385 37.4221 21.602C37.5063 21.5654 37.5495 21.5022 37.5518 21.4123C37.5541 21.3224 37.5297 21.2553 37.4787 21.2112C37.4277 21.1669 37.3391 21.1433 37.2131 21.1401C37.0129 21.1351 36.8249 21.2194 36.6491 21.3933L36.3147 21.7432C35.9625 22.1027 35.5804 22.2772 35.1688 22.2669C34.846 22.2588 34.6058 22.1795 34.4481 22.0293C34.2904 21.8789 34.2154 21.65 34.2232 21.3424C34.231 21.0349 34.3245 20.8102 34.5039 20.6683C34.6832 20.5265 34.967 20.4604 35.3554 20.4702L35.6 20.4763L35.5841 21.1042L35.2791 21.0966C34.9428 21.0881 34.7726 21.1696 34.7683 21.3411C34.766 21.4318 34.7942 21.4981 34.8529 21.54C34.9115 21.5819 35.0123 21.6045 35.1552 21.6082C35.4073 21.6145 35.6439 21.5044 35.8649 21.2779C35.8718 21.2714 35.922 21.2184 36.0152 21.1189C36.1087 21.0196 36.1639 20.9617 36.1811 20.9452C36.4728 20.6412 36.8105 20.4941 37.1938 20.504ZM16.5758 16.4291C16.311 16.1658 16.6015 15.4823 16.7921 15.1318C16.7264 16.2591 18.2519 16.5656 18.8182 15.6827C19.2485 15.0122 18.9771 14.3382 18.6657 13.6899C18.4043 13.1458 18.3286 12.5737 18.377 12.3716C18.2213 12.5091 17.6802 12.71 17.0772 12.7338C16.3585 12.7621 15.6359 12.8381 15.2449 13.5322C14.7302 14.4461 15.7152 15.6505 16.6804 15.0645C16.4601 15.3972 15.992 15.9738 15.6354 15.8632C15.6038 15.8534 15.5522 15.874 15.5695 15.9086L16.0764 16.1945L16.5665 16.5088C16.6051 16.508 16.5993 16.4525 16.5758 16.4291ZM36.3346 25.5081C36.774 25.5081 37.1302 25.152 37.1302 24.7125C37.1302 24.2731 36.774 23.917 36.3346 23.917C35.8952 23.917 35.5391 24.2731 35.5391 24.7125C35.5391 25.152 35.8952 25.5081 36.3346 25.5081ZM13.2773 21.6218L13.9866 23.2511L14.3877 23.0937L13.7131 21.4961C13.5721 21.5353 13.4263 21.5773 13.2773 21.6218ZM11.8439 22.0848C12.0177 22.0253 12.1937 21.966 12.3695 21.9076L13.0859 23.6045C12.919 23.6694 12.7503 23.7351 12.581 23.8018L11.8439 22.0848ZM11.6496 22.1545C11.4426 22.2279 11.2388 22.3015 11.0428 22.3758L11.7974 24.1087L12.0605 24.0061L12.0614 24.0057L12.0616 24.0057C12.1663 23.9648 12.2725 23.9233 12.3796 23.8816L11.6496 22.1545ZM11.2842 24.3088L11.2844 24.3087C11.3845 24.2695 11.4886 24.2288 11.5959 24.1866L10.8598 22.4443C10.6475 22.5261 10.4452 22.6054 10.2598 22.6826L11.0141 24.4147C11.0997 24.381 11.1896 24.3458 11.283 24.3093L11.2838 24.3089L11.2839 24.3089L11.2842 24.3088ZM12.5664 21.8431C12.742 21.786 12.9149 21.7319 13.086 21.6792L13.7755 23.3336C13.6788 23.3713 13.5799 23.4102 13.4788 23.45L13.2889 23.5247L12.5664 21.8431Z" fill="white" fill-opacity="0.65"/>
</g>
</svg>
