<svg width="116" height="30" viewBox="0 0 116 30" fill="none" xmlns="http://www.w3.org/2000/svg">
<g id="Group">
<path id="Vector" d="M32.9102 0.0297852H35.5684V2.68801H32.9102V0.0297852Z" fill="white" fill-opacity="0.65"/>
<g id="Group_2">
<path id="Vector_2" d="M31.9609 10.2734H33.4799V14.8361H31.9609V10.2734Z" fill="white" fill-opacity="0.65"/>
<path id="Vector_3" d="M33.4766 4.20508H34.9956V10.2791H33.4766V4.20508Z" fill="white" fill-opacity="0.65"/>
<path id="Vector_4" d="M15.3055 16.3586H13.8074C13.8074 12.9161 14.7928 10.3605 16.739 8.74653H11.9922V7.24463H18.5048V9.31235L18.1707 9.5345C16.2719 10.8048 15.3055 13.1003 15.3055 16.3586Z" fill="white" fill-opacity="0.65"/>
<path id="Vector_5" d="M5.33759 15.5747H3.84519C3.84519 13.2962 4.46797 11.4734 5.65848 10.2582H2.73633V8.76392H7.67304V10.5791L7.34076 10.7994C6.00975 11.6804 5.33759 13.2886 5.33759 15.5747Z" fill="white" fill-opacity="0.65"/>
<path id="Vector_6" d="M25.4432 15.5747H23.9508C23.9508 13.2962 24.5736 11.4734 25.7641 10.2582H22.8477V8.76392H27.7749V10.5791L27.4426 10.7994C26.1192 11.6804 25.4432 13.2886 25.4432 15.5747Z" fill="white" fill-opacity="0.65"/>
<path id="Vector_7" d="M34.9961 11.7979H36.5151V13.3168H34.9961V11.7979Z" fill="white" fill-opacity="0.65"/>
<path id="Vector_8" d="M22.8477 4.20508V5.72407H28.9217V17.8722H22.8477V19.3912H30.4407V4.20508H22.8477Z" fill="white" fill-opacity="0.65"/>
<path id="Vector_9" d="M7.66335 5.72407V4.20508H0.0703125V19.3912H7.66335V17.8722H1.5893V5.72407H7.66335Z" fill="white" fill-opacity="0.65"/>
<path id="Vector_10" d="M15.2578 1.16895V2.68793H6.14769V1.16895H15.2578Z" fill="white" fill-opacity="0.65"/>
<path id="Vector_11" d="M9.18359 4.20703V19.3969H21.3355V4.20703H9.18359ZM19.8165 17.8779H10.7026V5.72602H19.8165V17.8779Z" fill="white" fill-opacity="0.65"/>
<path id="Vector_12" d="M7.66748 21.7624V20.908H6.15039V22.6396L15.2548 27.8972V26.1523V26.1466L7.66748 21.7624Z" fill="white" fill-opacity="0.65"/>
<path id="Vector_13" d="M15.2539 24.4V26.1468V26.1525L22.8431 21.7702V20.9082H21.3014L15.2539 24.4Z" fill="white" fill-opacity="0.65"/>
<path id="Vector_14" d="M24.3621 22.6455H24.3602L24.3621 22.6474L15.2539 27.905V29.65L25.8792 23.5228V20.9082H24.3621V22.6455Z" fill="white" fill-opacity="0.65"/>
<path id="Vector_15" d="M15.2539 22.6474L18.2672 20.9082H15.2577L15.2539 20.9101V22.6474Z" fill="white" fill-opacity="0.65"/>
<path id="Vector_16" d="M15.2549 22.655L12.2302 20.9082H9.2207L15.2549 24.3943V22.655Z" fill="white" fill-opacity="0.65"/>
<path id="Vector_17" d="M15.2578 -0.350098V1.16889H24.3679V2.68788H25.8869V-0.350098H15.2578Z" fill="white" fill-opacity="0.65"/>
</g>
<path id="Vector_18" d="M45.1559 12.7301H44.1952V16.3586H42.0078V7.24463H45.1426C47.0527 7.24463 48.0135 8.23197 48.0135 9.95602C48.023 11.6497 46.9065 12.7301 45.1559 12.7301ZM44.1952 9.14336V10.8294H44.9546C45.4559 10.8294 45.7445 10.4877 45.7445 9.97311C45.7445 9.45855 45.4426 9.14336 44.9546 9.14336H44.1952Z" fill="white" fill-opacity="0.65"/>
<path id="Vector_19" d="M49.1328 16.3586V7.24463H51.3315V14.3022H53.4202V16.3586H49.1328Z" fill="white" fill-opacity="0.65"/>
<path id="Vector_20" d="M59.9535 14.1923H57.0826L56.3231 16.3644H54.1719L57.3599 7.25049H59.6763L63.0485 16.3644H60.7168L59.9535 14.1923ZM57.7149 12.3486H59.3212L58.5181 10.0435L57.7149 12.3486Z" fill="white" fill-opacity="0.65"/>
<path id="Vector_21" d="M62.0391 7.24463H64.4751L65.7397 9.73387L67.0099 7.24463H69.3283L66.746 11.8396V16.3586H64.5682V11.887L62.0391 7.24463Z" fill="white" fill-opacity="0.65"/>
<path id="Vector_22" d="M77.2097 15.3503C76.3976 16.1377 75.3025 16.5648 74.1717 16.5351C71.1433 16.5351 69.3262 14.4807 69.3262 11.8206C69.3262 9.16044 71.2249 7.07373 74.1319 7.07373C75.5161 7.07373 76.4901 7.52183 77.2135 8.15411L75.911 9.8136C75.4322 9.38339 74.8116 9.14476 74.1679 9.14335C72.5483 9.14335 71.6388 10.3301 71.6388 11.8168C71.6388 13.3035 72.6528 14.4902 74.1812 14.4902C74.825 14.4823 75.4436 14.2391 75.9205 13.8066L77.2097 15.3503Z" fill="white" fill-opacity="0.65"/>
<path id="Vector_23" d="M83.0043 14.1923H80.1334L79.3739 16.3644H77.2227L80.4106 7.25049H82.7271L86.0992 16.3644H83.7676L83.0043 14.1923ZM80.7657 12.3486H82.372L81.5689 10.0435L80.7657 12.3486Z" fill="white" fill-opacity="0.65"/>
<path id="Vector_24" d="M89.2255 10.5315L90.3648 10.9777C91.5515 11.4657 92.2483 12.2555 92.2483 13.6131C92.2483 15.4568 90.9458 16.5353 89.1135 16.5353C86.5065 16.5353 86.0319 14.8378 86.1116 13.5068H88.2002C88.1736 14.0764 88.3901 14.646 89.1211 14.646C89.6224 14.646 89.9907 14.3688 89.9907 13.8429C89.9907 13.3169 89.6224 13.0834 89.03 12.8536C88.5686 12.6638 88.1072 12.4986 87.6078 12.2479C86.685 11.7752 86.1989 10.879 86.1989 9.77959C86.1989 8.18655 87.3572 7.07959 89.1344 7.07959C91.2819 7.07959 92.0584 8.30427 91.9673 9.92769H89.9262C89.9395 9.35807 89.6508 8.96503 89.1363 8.96503C88.6217 8.96503 88.3863 9.26883 88.3863 9.65048C88.3863 10.0321 88.597 10.2941 89.2255 10.5315Z" fill="white" fill-opacity="0.65"/>
<path id="Vector_25" d="M95.5561 16.3586H93.3555V7.24463H95.5561V16.3586Z" fill="white" fill-opacity="0.65"/>
<path id="Vector_26" d="M99.1951 10.9775V16.3586H97.0742V7.24463H99.3394L102.757 12.751V7.24463H104.876V16.3586H102.708L99.1951 10.9775Z" fill="white" fill-opacity="0.65"/>
<path id="Vector_27" d="M110.351 7.08008C113.326 7.08008 115.183 9.12312 115.183 11.7832C115.183 14.4434 113.34 16.5301 110.415 16.5301C107.44 16.5301 105.623 14.4889 105.623 11.8155C105.623 9.1421 107.545 7.08008 110.351 7.08008ZM110.402 14.4851C112.01 14.4851 112.871 13.3003 112.871 11.8117C112.871 10.3231 111.957 9.144 110.389 9.144C108.783 9.144 107.921 10.3307 107.921 11.8174C107.921 13.3041 108.889 14.4813 110.402 14.4813V14.4851Z" fill="white" fill-opacity="0.65"/>
</g>
</svg>
