<svg width="81" height="33" viewBox="0 0 81 33" fill="none" xmlns="http://www.w3.org/2000/svg">
<g id="Group 513189">
<path id="1" d="M1.91016 24.0735H79.8857V31.5422H1.91016V24.0735Z" fill="white" fill-opacity="0.12"/>
<path id="Union" fill-rule="evenodd" clip-rule="evenodd" d="M2.94053 0.549561C1.83754 0.549561 0.943359 1.44773 0.943359 2.55577V30.5433C0.943359 31.6514 1.83754 32.5496 2.94053 32.5496H78.9462C80.0492 32.5496 80.9434 31.6514 80.9434 30.5433V2.55577C80.9434 1.44773 80.0492 0.549561 78.9462 0.549561H2.94053ZM1.94195 2.55577C1.94195 2.00181 2.38901 1.55267 2.94053 1.55267H78.9462C79.4977 1.55267 79.9448 2.00181 79.9448 2.55577V23.0717H1.94195V2.55577ZM1.94195 24.0748V30.5433C1.94195 31.0973 2.38901 31.5465 2.94053 31.5465H78.9462C79.4977 31.5465 79.9448 31.0973 79.9448 30.5433V24.0748H1.94195ZM29.5152 16.2065C28.9018 16.2065 28.3326 16.11 27.8078 15.9169C27.2905 15.7164 26.8396 15.4343 26.4553 15.0705C26.0784 14.7067 25.7827 14.2798 25.5683 13.7898C25.354 13.2923 25.2468 12.7466 25.2468 12.1526C25.2468 11.5586 25.354 11.0167 25.5683 10.5266C25.7827 10.0292 26.0784 9.59859 26.4553 9.23479C26.8396 8.87099 27.2905 8.59254 27.8078 8.39956C28.3326 8.19911 28.9018 8.09882 29.5152 8.09882C30.2321 8.09882 30.8714 8.22507 31.4332 8.47744C32.0023 8.72993 32.4754 9.09373 32.8523 9.56883L31.4554 10.8385C31.2041 10.5414 30.9269 10.315 30.6239 10.1592C30.3282 10.0033 29.9956 9.92528 29.6261 9.92528C29.3082 9.92528 29.0163 9.9772 28.7502 10.0812C28.4841 10.1851 28.255 10.3373 28.0629 10.5378C27.8781 10.7309 27.7303 10.9648 27.6194 11.2394C27.5159 11.5142 27.4642 11.8185 27.4642 12.1526C27.4642 12.4868 27.5159 12.7911 27.6194 13.0659C27.7303 13.3405 27.8781 13.5782 28.0629 13.7786C28.255 13.9716 28.4841 14.1202 28.7502 14.2241C29.0163 14.3281 29.3082 14.38 29.6261 14.38C29.9956 14.38 30.3282 14.302 30.6239 14.1461C30.9269 13.9902 31.2041 13.7638 31.4554 13.4668L32.8523 14.7364C32.4754 15.2041 32.0023 15.5679 31.4332 15.8278C30.8714 16.0802 30.2321 16.2065 29.5152 16.2065ZM35.863 8.2547H38.0249L41.4618 16.0506H39.1779L38.5728 14.5359H35.2819L34.6767 16.0506H32.4372L35.863 8.2547ZM36.9273 10.4173L37.9232 12.91H35.9314L36.9273 10.4173ZM42.6384 15.9726C43.2297 16.1285 43.8432 16.2065 44.4788 16.2065C45.2475 16.2065 45.8831 16.0914 46.3857 15.8613C46.8957 15.6311 47.2764 15.3267 47.5277 14.948C47.7863 14.562 47.9157 14.1424 47.9157 13.6895C47.9157 13.2811 47.8344 12.9433 47.6717 12.6761C47.5166 12.4013 47.3096 12.1824 47.0509 12.019C46.7923 11.8482 46.504 11.7146 46.1862 11.618C45.8757 11.5141 45.5616 11.4287 45.2438 11.362C44.9334 11.2951 44.6451 11.2319 44.379 11.1726C44.1203 11.1058 43.9097 11.0241 43.7471 10.9275C43.5919 10.8237 43.5143 10.6863 43.5143 10.5155C43.5143 10.3819 43.555 10.2631 43.6362 10.1592C43.6742 10.1105 43.7235 10.0668 43.7842 10.0279C43.8533 9.98369 43.937 9.94573 44.0354 9.91414C44.2202 9.84728 44.464 9.81385 44.767 9.81385C45.1071 9.81385 45.4581 9.86589 45.8203 9.96985C46.1825 10.0663 46.5483 10.2149 46.9179 10.4153L47.5942 8.77817C47.2098 8.55544 46.7701 8.38842 46.2749 8.27699C45.787 8.15821 45.2882 8.09882 44.7781 8.09882C44.0169 8.09882 43.3813 8.21393 42.8712 8.44401C42.3613 8.67421 41.9769 8.97862 41.7183 9.35724C41.4669 9.73598 41.3413 10.1592 41.3413 10.6269C41.3413 11.0426 41.4226 11.3879 41.5852 11.6626C41.7478 11.9299 41.9585 12.149 42.2171 12.3197C42.4758 12.483 42.7604 12.6167 43.0708 12.7206C43.3886 12.8245 43.7028 12.91 44.0132 12.9767C44.331 13.0436 44.6192 13.1104 44.8779 13.1772C45.1366 13.244 45.3473 13.3294 45.5099 13.4333C45.6725 13.5373 45.7538 13.6784 45.7538 13.8565C45.7538 13.9828 45.7094 14.0942 45.6208 14.1907C45.5395 14.2798 45.4064 14.354 45.2216 14.4134C45.0369 14.4653 44.7929 14.4914 44.4899 14.4914C44.0391 14.4914 43.5845 14.4209 43.1262 14.2798C42.6754 14.1313 42.2763 13.9457 41.9289 13.7229L41.2082 15.3489C41.5778 15.6013 42.0545 15.8092 42.6384 15.9726ZM48.5971 8.2547H50.7923V16.0506H48.5971V8.2547ZM53.8285 8.2547H52.0214V16.0506H54.1722V11.896L57.598 16.0506H59.4051V8.2547H57.2543V12.4093L53.8285 8.2547ZM64.5345 16.2065C63.9136 16.2065 63.3408 16.1062 62.8161 15.9057C62.2913 15.7053 61.833 15.4231 61.4413 15.0593C61.057 14.6881 60.7576 14.2575 60.5433 13.7675C60.3289 13.2775 60.2218 12.7392 60.2218 12.1526C60.2218 11.5661 60.3289 11.0278 60.5433 10.5378C60.7576 10.0477 61.057 9.62087 61.4413 9.25707C61.833 8.88581 62.2913 8.60001 62.8161 8.39956C63.3408 8.19911 63.9136 8.09882 64.5345 8.09882C65.1627 8.09882 65.7355 8.19911 66.2529 8.39956C66.7777 8.60001 67.2322 8.88581 67.6166 9.25707C68.0009 9.62087 68.3003 10.0477 68.5146 10.5378C68.7363 11.0278 68.8472 11.5661 68.8472 12.1526C68.8472 12.7392 68.7363 13.2811 68.5146 13.7786C68.3003 14.2687 68.0009 14.6956 67.6166 15.0593C67.2322 15.4231 66.7777 15.7053 66.2529 15.9057C65.7355 16.1062 65.1627 16.2065 64.5345 16.2065ZM64.5345 14.38C64.8301 14.38 65.1036 14.3281 65.3549 14.2241C65.6136 14.1202 65.8354 13.9716 66.0201 13.7786C66.2123 13.5782 66.3601 13.3405 66.4636 13.0659C66.5744 12.7911 66.6299 12.4868 66.6299 12.1526C66.6299 11.8111 66.5744 11.5067 66.4636 11.2394C66.3601 10.9648 66.2123 10.7309 66.0201 10.5378C65.9843 10.4988 65.947 10.4617 65.9084 10.4265C65.8666 10.3883 65.8231 10.3523 65.778 10.3183C65.6501 10.2222 65.509 10.1431 65.3549 10.0812C65.1036 9.9772 64.8301 9.92528 64.5345 9.92528C64.2389 9.92528 63.9617 9.9772 63.703 10.0812C63.4517 10.1851 63.23 10.3373 63.0378 10.5378C62.853 10.7309 62.7052 10.9648 62.5943 11.2394C62.4908 11.5067 62.4391 11.8111 62.4391 12.1526C62.4391 12.4868 62.4908 12.7911 62.5943 13.0659C62.7052 13.3405 62.853 13.5782 63.0378 13.7786C63.23 13.9716 63.4517 14.1202 63.703 14.2241C63.9617 14.3281 64.2389 14.38 64.5345 14.38ZM70.5513 15.9726C71.1425 16.1285 71.756 16.2065 72.3916 16.2065C73.1603 16.2065 73.7959 16.0914 74.2985 15.8613C74.8086 15.6311 75.1892 15.3267 75.4405 14.948C75.6992 14.562 75.8285 14.1424 75.8285 13.6895C75.8285 13.2811 75.7472 12.9433 75.5846 12.6761C75.4294 12.4013 75.2225 12.1824 74.9637 12.019C74.7051 11.8482 74.4168 11.7146 74.099 11.618C73.7886 11.5141 73.4744 11.4287 73.1567 11.362C72.8462 11.2951 72.558 11.2319 72.2919 11.1726C72.1519 11.1364 72.0261 11.0959 71.9142 11.0511C71.8193 11.013 71.7346 10.9719 71.6599 10.9275C71.6162 10.8984 71.5788 10.8664 71.5474 10.8319C71.524 10.8062 71.504 10.779 71.4874 10.7503C71.47 10.72 71.4562 10.688 71.4464 10.6545C71.4335 10.6109 71.4271 10.5646 71.4271 10.5155C71.4271 10.3819 71.4678 10.2631 71.5491 10.1592C71.5542 10.1525 71.5597 10.1459 71.5653 10.1394C71.5731 10.1305 71.5814 10.1217 71.5901 10.113C71.5983 10.1048 71.607 10.0967 71.616 10.0888C71.6249 10.0809 71.6342 10.0732 71.6438 10.0657C71.6788 10.0383 71.7188 10.013 71.7635 9.98969C71.8179 9.9614 71.8795 9.93618 71.9482 9.91414C72.133 9.84728 72.3769 9.81385 72.6799 9.81385C73.0199 9.81385 73.371 9.86589 73.7331 9.96985C74.0953 10.0663 74.4611 10.2149 74.8307 10.4153L75.507 8.77817C75.1227 8.55544 74.6829 8.38842 74.1877 8.27699C73.6999 8.15821 73.201 8.09882 72.691 8.09882C71.9297 8.09882 71.2941 8.21393 70.7841 8.44401C70.2741 8.67421 69.8897 8.97862 69.6311 9.35724C69.3798 9.73598 69.2541 10.1592 69.2541 10.6269C69.2541 11.0426 69.3354 11.3879 69.498 11.6626C69.6606 11.9299 69.8713 12.149 70.13 12.3197C70.3887 12.483 70.6732 12.6167 70.9837 12.7206C71.3014 12.8245 71.6156 12.91 71.926 12.9767C72.2438 13.0436 72.5321 13.1104 72.7908 13.1772C73.0494 13.244 73.2601 13.3294 73.4227 13.4333C73.5853 13.5373 73.6666 13.6784 73.6666 13.8565C73.6666 13.9828 73.6222 14.0942 73.5336 14.1907C73.4523 14.2798 73.3193 14.354 73.1345 14.4134C73.0199 14.4456 72.8825 14.4679 72.7225 14.4802C72.6245 14.4876 72.5179 14.4914 72.4027 14.4914C71.9519 14.4914 71.4973 14.4209 71.039 14.2798C70.5882 14.1313 70.1891 13.9457 69.8417 13.7229L69.1211 15.3489C69.4906 15.6013 69.9674 15.8092 70.5513 15.9726ZM43.4281 29.8789C43.1202 29.8789 42.8362 29.8292 42.576 29.7298C42.3157 29.6305 42.0885 29.4905 41.8943 29.3102C41.7037 29.1261 41.5553 28.9126 41.449 28.6695C41.3427 28.4266 41.2895 28.1596 41.2895 27.8688C41.2895 27.578 41.3427 27.311 41.449 27.0681C41.5553 26.825 41.7037 26.6134 41.8943 26.433C42.0885 26.2489 42.3157 26.1071 42.576 26.0078C42.8362 25.9084 43.1202 25.8587 43.4281 25.8587C43.7396 25.8587 44.0237 25.9084 44.2802 26.0078C44.5404 26.1071 44.7658 26.2489 44.9564 26.433C45.1469 26.6134 45.2954 26.825 45.4016 27.0681C45.5116 27.311 45.5666 27.578 45.5666 27.8688C45.5666 28.1596 45.5116 28.4284 45.4016 28.675C45.2954 28.9181 45.1469 29.1298 44.9564 29.3102C44.8718 29.3902 44.7803 29.4622 44.6821 29.5264C44.6107 29.5729 44.5356 29.6153 44.457 29.6534C44.4 29.6811 44.341 29.7065 44.2802 29.7298C44.2084 29.7576 44.1344 29.7816 44.0583 29.8017C43.9781 29.8227 43.8955 29.8394 43.8105 29.8519C43.688 29.8699 43.5605 29.8789 43.4281 29.8789ZM43.4281 28.9733C43.5747 28.9733 43.7103 28.9475 43.8349 28.8959C43.9632 28.8444 44.0731 28.7708 44.1647 28.675C44.26 28.5757 44.3333 28.4579 44.3847 28.3216C44.4396 28.1855 44.4671 28.0345 44.4671 27.8688C44.4671 27.6995 44.4396 27.5485 44.3847 27.416C44.3333 27.2797 44.26 27.1637 44.1647 27.0681C44.0731 26.9687 43.9632 26.8932 43.8349 26.8417C43.7103 26.7901 43.5747 26.7643 43.4281 26.7643C43.2815 26.7643 43.144 26.7901 43.0157 26.8417C42.9517 26.8681 42.8917 26.901 42.8354 26.94C42.7821 26.977 42.7323 27.0197 42.6859 27.0681C42.6288 27.1277 42.5788 27.1952 42.536 27.2706C42.51 27.3162 42.4868 27.3647 42.466 27.416C42.4147 27.5485 42.3891 27.6995 42.3891 27.8688C42.3891 28.0345 42.4147 28.1855 42.466 28.3216C42.521 28.4579 42.5943 28.5757 42.6859 28.675C42.7812 28.7708 42.8912 28.8444 43.0157 28.8959C43.144 28.9475 43.2815 28.9733 43.4281 28.9733ZM24.1351 25.9359L22.4364 29.8017H23.5469L23.8469 29.0506H25.4787L25.7788 29.8017H26.9113L25.2071 25.9359H24.1351ZM25.1566 28.2444L24.6628 27.0084L24.169 28.2444H25.1566ZM27.7696 25.9359V29.8017H28.8581V28.7911H29.5288C29.8807 28.7911 30.183 28.734 30.4359 28.6198C30.6924 28.502 30.8903 28.3363 31.0296 28.1229C31.1689 27.9093 31.2385 27.6571 31.2385 27.3663C31.2385 27.0718 31.1689 26.8177 31.0296 26.6041C30.8903 26.3869 30.6924 26.2212 30.4359 26.1071C30.183 25.993 29.8807 25.9359 29.5288 25.9359H27.7696ZM28.8581 27.9295H29.4629C29.6901 27.9295 29.8587 27.8798 29.9686 27.7804C30.0822 27.6811 30.139 27.543 30.139 27.3663C30.139 27.2733 30.124 27.1912 30.0938 27.1197C30.0654 27.0524 30.0237 26.9948 29.9686 26.9465C29.8587 26.8472 29.6901 26.7975 29.4629 26.7975H28.8581V27.9295ZM32.319 29.8017V25.9359H34.0781C34.43 25.9359 34.7324 25.993 34.9852 26.1071C35.2418 26.2212 35.4397 26.3869 35.5789 26.6041C35.7182 26.8177 35.7879 27.0718 35.7879 27.3663C35.7879 27.6571 35.7182 27.9093 35.5789 28.1229C35.4397 28.3363 35.2418 28.502 34.9852 28.6198C34.7324 28.734 34.43 28.7911 34.0781 28.7911H33.4075V29.8017H32.319ZM34.0122 27.9295H33.4075V26.7975H34.0122C34.2394 26.7975 34.408 26.8472 34.5179 26.9465C34.6316 27.0459 34.6884 27.1859 34.6884 27.3663C34.6884 27.543 34.6316 27.6811 34.5179 27.7804C34.408 27.8798 34.2394 27.9295 34.0122 27.9295ZM36.8683 25.9359V29.8017H37.9568V28.7744H38.551L39.2487 29.8017H40.4142L39.5837 28.586C39.8165 28.4735 39.9981 28.319 40.1284 28.1229C40.2676 27.9093 40.3372 27.6571 40.3372 27.3663C40.3372 27.0718 40.2676 26.8177 40.1284 26.6041C39.9891 26.3869 39.7911 26.2212 39.5346 26.1071C39.2817 25.993 38.9793 25.9359 38.6275 25.9359H36.8683ZM37.9568 27.9295H38.5615C38.7888 27.9295 38.9573 27.8798 39.0673 27.7804C39.1809 27.6811 39.2377 27.543 39.2377 27.3663C39.2377 27.3278 39.2351 27.2911 39.2299 27.2562C39.228 27.2431 39.2256 27.2302 39.223 27.2176C39.2142 27.1768 39.2017 27.1388 39.1853 27.1035C39.1718 27.0745 39.1557 27.0474 39.1371 27.0221C39.1168 26.9948 39.0936 26.9695 39.0673 26.9465C38.9573 26.8472 38.7888 26.7975 38.5615 26.7975H37.9568V27.9295ZM47.2723 25.9359H46.0958L47.7395 29.8017H48.8116L50.4608 25.9359H49.3833L48.3154 28.4557L47.2723 25.9359ZM52.3133 28.9566V28.2499H54.023V27.4325H52.3133V26.781H54.2539V25.9359H51.2358V29.8017H54.3254V28.9566H52.3133ZM57.2988 25.9359H55.4791V29.8017H57.2988C57.7239 29.8017 58.0978 29.7224 58.4203 29.5641C58.7428 29.4059 58.9939 29.1832 59.1734 28.8959C59.3567 28.6051 59.4483 28.2627 59.4483 27.8688C59.4483 27.4712 59.3567 27.1288 59.1734 26.8417C58.9939 26.5544 58.7428 26.3317 58.4203 26.1735C58.0978 26.0152 57.7239 25.9359 57.2988 25.9359ZM57.2548 28.9291H56.5677V26.8085H57.2548C57.4747 26.8085 57.6653 26.8509 57.8266 26.9355C57.9915 27.0166 58.1197 27.1362 58.2114 27.2945C58.303 27.4528 58.3488 27.6442 58.3488 27.8688C58.3488 28.0897 58.303 28.2811 58.2114 28.4431C58.1197 28.6014 57.9915 28.7229 57.8266 28.8076C57.6653 28.8886 57.4747 28.9291 57.2548 28.9291ZM13.2297 16.217C12.3095 16.0383 11.4984 15.5521 10.9067 14.8689L9.21491 16.3465C10.1286 17.4012 11.3808 18.1519 12.8017 18.4279L13.2297 16.217ZM14.829 16.212C15.7387 16.0293 16.5403 15.5457 17.1266 14.8689L18.8184 16.3465C17.9131 17.3915 16.6755 18.1381 15.2709 18.4202L14.829 16.212ZM17.9227 13.4758L20.0475 14.1956C20.2628 13.5541 20.3795 12.867 20.3795 12.1526C20.3795 11.4383 20.2629 10.7513 20.0477 10.1099L17.9229 10.8297C18.0622 11.245 18.1378 11.69 18.1378 12.1526C18.1378 12.6154 18.0622 13.0604 17.9227 13.4758ZM17.1267 9.43646L18.8184 7.95886C17.9132 6.91388 16.6755 6.16718 15.2709 5.88506L14.829 8.09331C15.7388 8.27601 16.5404 8.75956 17.1267 9.43646ZM13.2297 8.08829L12.8017 5.87734C11.3808 6.15334 10.1285 6.90408 9.21479 7.95886L10.9065 9.43646C11.4983 8.75332 12.3095 8.26695 13.2297 8.08829ZM10.1104 10.8297L7.98563 10.1099C7.77042 10.7513 7.65377 11.4383 7.65377 12.1526C7.65377 12.867 7.77048 13.5541 7.98576 14.1956L10.1106 13.4758C9.9711 13.0604 9.89553 12.6154 9.89553 12.1526C9.89553 11.69 9.9711 11.245 10.1104 10.8297ZM14.0166 19.3468C11.8595 19.3468 9.92509 18.3888 8.61201 16.8732C8.58409 16.8409 8.55648 16.8084 8.52911 16.7756C7.48421 15.5254 6.85491 13.9129 6.85491 12.1526C6.85491 8.1794 10.0613 4.95848 14.0166 4.95848C17.972 4.95848 21.1784 8.1794 21.1784 12.1526C21.1784 13.9127 20.5491 15.5251 19.5044 16.7755C19.4769 16.8083 19.4493 16.8409 19.4212 16.8731C18.1082 18.3888 16.1738 19.3468 14.0166 19.3468ZM14.0166 12.2653C13.9851 12.3363 13.9487 12.4046 13.9078 12.4698C13.8968 12.4946 13.8838 12.5215 13.8688 12.5504C13.8535 12.5797 13.8361 12.6113 13.8165 12.6454L12.843 14.3393L11.6743 14.3392L11.9782 13.8378L12.3321 13.2221C11.5273 13.1238 10.9039 12.4351 10.9039 11.6001C10.9039 10.6977 11.6321 9.96618 12.5305 9.96618C13.193 9.96618 13.763 10.3641 14.0166 10.935C14.2703 10.3641 14.8402 9.96618 15.5028 9.96618C16.4011 9.96618 17.1294 10.6977 17.1294 11.6001C17.1294 11.9197 17.0381 12.2179 16.8801 12.4698C16.8581 12.52 16.8277 12.5778 16.7889 12.6454L15.8153 14.3393L14.6466 14.3392L14.9506 13.8378L15.3045 13.2221C14.728 13.1517 14.2445 12.7784 14.0166 12.2653ZM12.5305 12.2761C12.9021 12.2761 13.2033 11.9735 13.2033 11.6001C13.2033 11.2268 12.9021 10.9242 12.5305 10.9242C12.1589 10.9242 11.8576 11.2268 11.8576 11.6001C11.8576 11.9735 12.1589 12.2761 12.5305 12.2761ZM16.1757 11.6001C16.1757 11.9735 15.8744 12.2761 15.5028 12.2761C15.1312 12.2761 14.8299 11.9735 14.8299 11.6001C14.8299 11.2268 15.1312 10.9242 15.5028 10.9242C15.8744 10.9242 16.1757 11.2268 16.1757 11.6001ZM11.8153 7.55794C11.8153 7.80159 11.6187 7.99911 11.3762 7.99911C11.1336 7.99911 10.937 7.80159 10.937 7.55794C10.937 7.31429 11.1336 7.11678 11.3762 7.11678C11.6187 7.11678 11.8153 7.31429 11.8153 7.55794ZM11.3762 17.161C11.6187 17.161 11.8153 16.9635 11.8153 16.7199C11.8153 16.4762 11.6187 16.2787 11.3762 16.2787C11.1336 16.2787 10.937 16.4762 10.937 16.7199C10.937 16.9635 11.1336 17.161 11.3762 17.161ZM17.1027 7.55794C17.1027 7.80159 16.906 7.99911 16.6635 7.99911C16.4209 7.99911 16.2243 7.80159 16.2243 7.55794C16.2243 7.31429 16.4209 7.11678 16.6635 7.11678C16.906 7.11678 17.1027 7.31429 17.1027 7.55794ZM16.6635 17.161C16.906 17.161 17.1027 16.9635 17.1027 16.7199C17.1027 16.4762 16.906 16.2787 16.6635 16.2787C16.4209 16.2787 16.2243 16.4762 16.2243 16.7199C16.2243 16.9635 16.4209 17.161 16.6635 17.161ZM19.7888 12.1388C19.7888 12.3824 19.5922 12.58 19.3496 12.58C19.1071 12.58 18.9105 12.3824 18.9105 12.1388C18.9105 11.8951 19.1071 11.6976 19.3496 11.6976C19.5922 11.6976 19.7888 11.8951 19.7888 12.1388ZM8.69595 12.58C8.9385 12.58 9.13513 12.3824 9.13513 12.1388C9.13513 11.8951 8.9385 11.6976 8.69595 11.6976C8.4534 11.6976 8.25677 11.8951 8.25677 12.1388C8.25677 12.3824 8.4534 12.58 8.69595 12.58Z" fill="white" fill-opacity="0.65"/>
</g>
</svg>
