<svg width="42" height="41" viewBox="0 0 42 41" fill="none" xmlns="http://www.w3.org/2000/svg">
<g id="Group 513175">
<path id="Vector" d="M3.67522 40.3803C3.31169 40.7404 2.86926 40.9205 2.34793 40.9205C1.82663 40.9205 1.3842 40.7404 1.02064 40.3803C0.660527 40.0168 0.480469 39.5726 0.480469 39.0479C0.480469 38.5232 0.660527 38.0807 1.02064 37.7206C1.3842 37.3571 1.82663 37.1753 2.34793 37.1753C2.86926 37.1753 3.31169 37.3571 3.67522 37.7206C4.03877 38.0807 4.22054 38.5232 4.22054 39.0479C4.22054 39.5726 4.03877 40.0168 3.67522 40.3803ZM1.51966 39.8967C1.74261 40.1163 2.01868 40.226 2.34793 40.226C2.67718 40.226 2.95328 40.1163 3.1762 39.8967C3.39915 39.6738 3.51059 39.3909 3.51059 39.0479C3.51059 38.7049 3.39915 38.422 3.1762 38.1991C2.95328 37.9761 2.67718 37.8647 2.34793 37.8647C2.01868 37.8647 1.74261 37.9761 1.51966 38.1991C1.29674 38.422 1.18527 38.7049 1.18527 39.0479C1.18527 39.3909 1.29674 39.6738 1.51966 39.8967ZM6.90594 37.2473H7.61589V40.8485H7.07571L5.53236 38.6466V40.8485H4.82241V37.2473H5.36259L6.90594 39.444V37.2473ZM9.09674 40.1694H10.4703V40.8485H8.38679V37.2473H9.09674V40.1694ZM10.9765 37.2473H11.6865V40.8485H10.9765V37.2473ZM14.5395 37.2473H15.2495V40.8485H14.7093L13.1659 38.6466V40.8485H12.456V37.2473H12.9962L14.5395 39.444V37.2473ZM16.7304 40.1694H18.248V40.8485H16.0204V37.2473H18.2223V37.9264H16.7304V38.6929H18.0937V39.3617H16.7304V40.1694ZM20.8267 40.8485L20.1013 39.5984H19.5611V40.8485H18.8512V37.2473H20.2917C20.6244 37.2473 20.9074 37.3639 21.1405 37.5971C21.3739 37.8304 21.4903 38.1116 21.4903 38.4408C21.4903 38.6638 21.427 38.8713 21.3 39.0633C21.1733 39.252 21.0051 39.3943 20.7958 39.4903L21.5932 40.8485H20.8267ZM19.5611 37.911V38.9759H20.2917C20.4254 38.9759 20.5405 38.9244 20.6363 38.8215C20.7325 38.7152 20.7804 38.5883 20.7804 38.4408C20.7804 38.2934 20.7325 38.1682 20.6363 38.0653C20.5405 37.9624 20.4254 37.911 20.2917 37.911H19.5611ZM23.7819 40.9205C23.2401 40.9205 22.7925 40.7404 22.4392 40.3803C22.0861 40.0202 21.9093 39.5761 21.9093 39.0479C21.9093 38.5163 22.0861 38.0721 22.4392 37.7155C22.7925 37.3554 23.2401 37.1753 23.7819 37.1753C24.1079 37.1753 24.4079 37.2525 24.6822 37.4068C24.96 37.5577 25.1761 37.7635 25.3304 38.0241L24.7182 38.3791C24.6291 38.2179 24.5021 38.0927 24.3375 38.0036C24.1729 37.911 23.9877 37.8647 23.7819 37.8647C23.4321 37.8647 23.1491 37.9744 22.9331 38.1939C22.7205 38.4134 22.6141 38.6981 22.6141 39.0479C22.6141 39.3943 22.7205 39.6772 22.9331 39.8967C23.1491 40.1163 23.4321 40.226 23.7819 40.226C23.9877 40.226 24.1729 40.1814 24.3375 40.0922C24.5057 39.9996 24.6327 39.8745 24.7182 39.7167L25.3304 40.0717C25.1761 40.3323 24.9619 40.5398 24.6873 40.6941C24.4131 40.845 24.1111 40.9205 23.7819 40.9205ZM28.1695 40.8485L27.9535 40.2003H26.5181L26.3021 40.8485H25.5355L26.7959 37.2473H27.6757L28.9412 40.8485H28.1695ZM26.7445 39.5366H27.7322L27.2384 38.0653L26.7445 39.5366ZM30.5428 40.9205C30.1862 40.9205 29.8862 40.8416 29.6425 40.6839C29.3991 40.5227 29.2277 40.3049 29.128 40.0305L29.7351 39.6755C29.8759 40.0425 30.1518 40.226 30.5633 40.226C30.7624 40.226 30.908 40.19 31.0006 40.118C31.0932 40.0459 31.1395 39.955 31.1395 39.8453C31.1395 39.7184 31.0829 39.6206 30.9698 39.5521C30.8566 39.48 30.6543 39.4029 30.3627 39.3206C30.2016 39.2726 30.0643 39.2245 29.9511 39.1765C29.8415 39.1285 29.7299 39.065 29.6168 38.9862C29.5071 38.9039 29.4232 38.801 29.3647 38.6775C29.3065 38.554 29.2772 38.41 29.2772 38.2454C29.2772 37.9195 29.3923 37.6606 29.6219 37.4685C29.8553 37.273 30.1347 37.1753 30.4605 37.1753C30.7521 37.1753 31.0077 37.2473 31.227 37.3914C31.4501 37.532 31.6231 37.7292 31.7466 37.983L31.1498 38.3277C31.0058 38.019 30.7762 37.8647 30.4605 37.8647C30.3132 37.8647 30.1965 37.899 30.1106 37.9675C30.0283 38.0327 29.9872 38.1184 29.9872 38.2248C29.9872 38.338 30.0335 38.4306 30.1261 38.5026C30.2222 38.5712 30.4039 38.6466 30.6714 38.7289C30.7813 38.7632 30.8637 38.7907 30.9183 38.8113C30.9768 38.8284 31.054 38.8576 31.1498 38.8987C31.2495 38.9364 31.3247 38.9724 31.3762 39.0067C31.4312 39.041 31.4929 39.0874 31.5614 39.1456C31.6302 39.2039 31.6816 39.264 31.7157 39.3257C31.7537 39.3874 31.7845 39.4629 31.8083 39.5521C31.836 39.6378 31.8495 39.7321 31.8495 39.835C31.8495 40.1677 31.7279 40.4318 31.4842 40.6273C31.2444 40.8228 30.9305 40.9205 30.5428 40.9205ZM32.3903 37.2473H33.1002V40.8485H32.3903V37.2473ZM35.9535 37.2473H36.6635V40.8485H36.1233L34.5799 38.6466V40.8485H33.87V37.2473H34.4102L35.9535 39.444V37.2473ZM40.4643 40.3803C40.101 40.7404 39.6585 40.9205 39.137 40.9205C38.6158 40.9205 38.1734 40.7404 37.8097 40.3803C37.4496 40.0168 37.2695 39.5726 37.2695 39.0479C37.2695 38.5232 37.4496 38.0807 37.8097 37.7206C38.1734 37.3571 38.6158 37.1753 39.137 37.1753C39.6585 37.1753 40.101 37.3571 40.4643 37.7206C40.8279 38.0807 41.0096 38.5232 41.0096 39.0479C41.0096 39.5726 40.8279 40.0168 40.4643 40.3803ZM38.3087 39.8967C38.5319 40.1163 38.8078 40.226 39.137 40.226C39.4663 40.226 39.7425 40.1163 39.9653 39.8967C40.1884 39.6738 40.2997 39.3909 40.2997 39.0479C40.2997 38.7049 40.1884 38.422 39.9653 38.1991C39.7425 37.9761 39.4663 37.8647 39.137 37.8647C38.8078 37.8647 38.5319 37.9761 38.3087 38.1991C38.0859 38.422 37.9743 38.7049 37.9743 39.0479C37.9743 39.3909 38.0859 39.6738 38.3087 39.8967Z" fill="white" fill-opacity="0.65"/>
<path id="Union" fill-rule="evenodd" clip-rule="evenodd" d="M7.40086 14.3007C9.3012 12.3663 20.7036 0.862061 20.7036 0.862061L34.278 14.4364C37.2644 17.4228 39.063 28.9948 27.4908 29.8093C27.4908 29.8093 26.5601 29.6517 26.1673 29.402C25.8114 29.1758 25.5904 28.6554 25.5904 28.6554L30.8844 23.7687L29.4252 22.9542L30.4093 19.0856L27.4908 19.8661L26.6085 18.1354L24.0973 21.2236L24.7081 13.9613L22.5701 15.2509L20.7037 11.0428L19.0069 15.2509L16.7332 13.9613L17.3101 21.2236L14.8328 18.1354L13.9165 19.8661L10.8963 19.0856L12.0161 22.9542L10.5908 23.7687L15.8848 28.6554C15.8848 28.6554 15.6424 29.1709 15.3757 29.402C14.9287 29.7897 13.9165 29.8093 13.9165 29.8093C0.71551 27.7392 5.50052 16.235 7.40086 14.3007ZM20.7043 26.6196L13.9171 34.7981H27.4914L20.7043 26.6196Z" fill="white" fill-opacity="0.65"/>
</g>
</svg>
